{"glyphs":{"0":{"ha":1156,"x_min":107,"x_max":1048,"o":"m 107 250 q 142 326 107 294 q 225 358 177 358 q 309 326 273 358 q 343 250 343 294 q 307 172 343 204 q 484 96 376 96 q 611 139 564 96 q 661 245 661 181 q 635 322 661 286 q 570 387 605 363 q 519 414 550 399 q 443 444 488 429 q 368 476 400 461 q 311 504 335 490 q 231 570 264 530 q 180 644 198 606 q 165 724 165 684 q 254 897 165 827 q 468 970 342 968 q 639 936 551 970 q 761 856 709 906 q 802 774 801 822 q 766 697 802 728 q 684 665 731 665 q 600 697 635 665 q 566 774 566 728 q 576 818 566 797 q 481 835 542 835 q 358 804 406 835 q 311 722 311 770 q 353 646 311 679 q 407 612 372 630 q 493 574 441 593 q 579 536 542 554 q 646 501 617 518 q 736 427 701 467 q 767 385 754 406 q 789 340 781 364 q 790 335 790 336 q 731 264 753 306 q 708 174 708 222 q 716 119 708 145 q 741 69 725 93 q 714 43 728 56 q 489 -40 619 -41 q 261 25 357 -40 q 110 220 162 90 l 113 221 q 107 250 107 235 m 777 174 q 816 85 777 120 q 913 49 856 49 q 1009 85 969 49 q 1048 174 1048 120 q 1009 263 1048 227 q 913 300 969 300 q 816 263 855 300 q 777 174 777 227 z "},"1":{"ha":1156,"x_min":114,"x_max":1043,"o":"m 114 590 q 123 640 114 619 q 143 676 132 661 q 172 704 157 692 l 379 704 l 425 747 l 425 890 q 426 917 425 903 q 434 941 426 930 q 460 958 441 951 q 517 965 479 965 q 581 954 554 965 q 625 929 607 943 q 643 913 635 922 q 659 895 652 904 l 790 895 q 835 889 809 895 q 886 874 861 883 q 930 853 911 865 q 957 831 950 842 q 978 802 964 819 q 1007 736 993 784 q 1021 681 1015 713 q 1032 605 1027 648 q 1040 504 1038 562 q 1043 372 1043 446 q 1034 241 1043 298 q 1009 142 1025 184 q 975 69 994 99 q 936 18 956 39 q 831 -43 890 -31 l 713 -43 q 657 -36 686 -43 q 604 -12 628 -29 q 565 35 581 5 q 550 111 550 65 q 577 181 550 158 q 636 216 604 205 q 722 232 675 230 l 722 153 q 711 154 718 153 q 698 155 706 154 q 684 155 690 155 q 655 146 667 155 q 643 109 643 136 q 649 81 643 93 q 661 61 654 69 q 681 43 669 53 l 794 43 q 826 52 814 43 q 843 72 838 61 q 851 102 848 84 l 851 195 q 814 262 851 232 q 708 293 776 293 q 646 310 673 293 q 599 346 618 326 q 557 400 575 370 q 556 379 556 389 q 555 359 555 369 l 555 286 q 552 275 555 283 q 538 257 548 267 q 512 236 529 247 q 468 219 495 226 q 403 211 441 212 q 314 216 366 209 q 256 236 281 220 q 210 274 230 252 q 174 326 189 297 q 149 384 159 354 q 132 445 138 414 q 121 503 125 475 q 116 553 117 530 q 114 590 114 575 m 158 749 l 379 954 l 379 789 l 334 749 l 158 749 m 746 479 q 777 475 753 479 l 827 468 q 858 463 842 465 q 892 458 874 460 q 875 481 883 470 q 859 501 867 492 q 827 531 843 517 q 796 545 811 545 q 771 534 781 545 q 755 511 761 524 q 750 496 753 504 q 746 479 748 488 z "},"2":{"ha":1156,"x_min":138,"x_max":1018,"o":"m 147 329 q 142 352 147 329 q 138 422 138 376 q 149 512 138 468 q 183 595 159 556 q 278 687 220 654 q 407 721 337 720 q 458 714 433 721 q 506 700 484 708 l 549 685 q 568 680 559 682 q 585 677 577 678 q 623 686 601 677 q 673 703 646 694 q 730 720 700 713 q 793 724 761 726 q 829 720 805 724 q 880 705 852 716 q 937 675 908 694 q 990 624 966 655 q 980 618 989 623 q 958 602 970 612 q 930 575 945 591 q 902 538 915 559 q 882 490 890 517 q 873 432 873 464 q 897 335 873 374 q 946 272 920 296 q 995 238 972 249 l 1018 228 q 1014 214 1018 227 q 1001 181 1010 201 q 978 135 992 161 q 945 83 964 110 q 910 38 928 60 q 872 -1 892 16 q 828 -29 851 -18 q 778 -40 804 -40 q 730 -34 750 -40 q 692 -20 711 -28 q 652 -6 673 -12 q 600 0 631 0 q 547 -6 569 0 q 505 -20 524 -12 q 467 -34 486 -27 q 422 -41 448 -40 q 372 -32 396 -43 q 328 -2 349 -20 q 288 40 307 16 q 252 86 269 63 q 208 157 229 117 q 172 239 187 196 q 147 329 156 283 m 576 734 q 588 821 570 779 q 635 892 607 862 q 708 944 665 924 q 752 961 730 955 q 793 968 773 966 q 782 881 798 923 q 737 807 766 840 q 666 753 709 774 q 576 734 621 732 z "},"3":{"ha":1156,"x_min":35,"x_max":1121,"o":"m 36 204 q 35 481 35 344 q 36 758 36 618 q 46 828 33 794 q 84 890 60 863 q 142 938 109 918 q 212 964 175 957 q 289 966 251 968 q 366 966 327 965 q 329 920 346 944 q 297 870 311 896 q 274 816 283 844 q 262 758 265 788 q 266 668 257 712 q 295 584 275 624 q 346 508 315 543 q 414 444 376 472 q 432 414 433 433 q 431 395 431 404 q 431 376 431 386 q 419 291 425 334 q 410 204 412 248 q 468 237 440 220 q 524 273 496 254 q 640 340 579 311 q 888 334 762 318 q 1121 414 1015 350 l 1121 214 q 1089 105 1124 155 q 997 32 1056 56 q 943 16 970 20 q 886 14 915 12 l 239 14 q 162 30 199 14 q 97 72 125 45 q 53 132 69 98 q 36 204 36 166 m 435 703 q 458 607 432 653 q 526 532 485 562 q 624 483 571 500 q 733 464 677 466 q 844 473 789 462 q 947 510 899 485 q 1040 585 1002 538 q 1079 693 1078 634 q 1051 791 1080 747 q 978 867 1021 837 q 867 917 927 901 q 745 929 808 932 q 610 904 675 928 q 496 833 545 881 q 451 774 467 807 q 435 703 435 741 z "},"4":{"ha":1156,"x_min":107,"x_max":1048,"o":"m 107 395 q 170 221 107 301 q 172 218 171 220 q 175 215 172 216 l 175 214 q 353 84 240 132 q 597 37 465 37 l 619 37 l 621 37 l 807 -35 q 823 -37 812 -37 q 847 -32 836 -37 q 867 3 867 -20 l 867 94 l 871 97 l 899 114 l 929 132 q 1022 220 983 168 q 1031 243 1031 231 q 1013 277 1031 262 q 987 283 1000 283 q 951 267 964 283 q 879 199 918 224 l 828 168 q 800 150 812 159 q 781 117 781 138 l 781 62 l 646 115 q 629 119 638 119 l 627 119 q 620 118 623 119 q 612 118 616 118 l 597 118 q 489 128 542 118 q 390 158 437 138 q 306 204 344 177 q 241 267 268 232 l 237 271 l 236 272 q 195 395 195 330 q 226 503 195 454 q 313 590 258 553 q 439 649 368 627 q 595 671 511 671 q 818 623 716 671 l 821 623 q 899 562 871 597 q 928 489 928 529 q 909 428 928 456 q 856 375 890 399 q 768 335 817 349 q 663 321 718 321 q 607 325 633 321 q 533 342 568 330 q 465 371 498 354 l 464 371 q 369 452 402 404 q 335 554 335 499 q 336 563 335 558 q 336 571 336 567 q 257 492 284 536 q 315 385 273 434 q 422 300 357 336 l 425 298 l 427 298 q 595 245 502 259 l 596 245 q 663 241 629 241 q 795 259 732 241 q 907 310 857 277 q 987 391 960 347 q 1015 489 1015 436 q 975 606 1015 552 q 859 694 934 660 l 856 696 q 731 737 797 724 q 595 750 666 750 q 411 724 498 750 q 254 650 324 699 q 145 533 183 598 q 107 395 107 469 m 310 715 q 589 779 435 779 q 677 787 630 787 q 871 746 785 787 l 873 746 q 954 671 932 716 q 1032 566 1009 624 q 1048 635 1048 599 q 1013 738 1048 690 q 911 818 977 785 l 908 819 q 677 868 803 868 q 516 845 592 868 q 378 779 439 822 q 341 748 358 764 q 310 715 323 733 m 392 600 q 499 481 423 532 q 677 419 575 432 l 676 412 l 677 419 q 736 415 707 415 q 882 440 817 415 q 897 489 897 464 q 885 532 897 511 q 817 505 854 513 q 736 496 779 496 l 713 496 q 690 498 701 496 q 617 516 652 504 q 555 544 583 528 q 506 582 528 561 q 472 628 485 604 q 392 600 432 619 m 432 847 q 485 893 456 871 q 605 951 538 930 q 749 971 673 971 q 855 961 804 971 q 951 928 907 950 q 971 913 964 924 q 978 892 978 903 q 975 880 978 886 q 951 854 971 864 q 941 852 946 853 q 933 851 937 852 q 914 856 922 851 q 853 878 886 869 q 787 889 821 886 q 732 897 759 895 q 676 899 705 899 q 432 847 544 899 z "},"5":{"ha":1156,"x_min":138,"x_max":1018,"o":"m 138 -28 l 618 974 l 825 974 l 346 -28 l 138 -28 m 673 123 q 687 62 673 91 q 724 12 701 33 q 779 -22 747 -9 q 846 -35 810 -35 q 913 -22 882 -35 q 968 12 945 -9 q 1005 62 991 33 q 1018 123 1018 91 q 1005 186 1018 157 q 968 237 991 215 q 913 271 945 258 q 846 283 882 283 q 779 271 810 283 q 724 237 747 258 q 687 186 701 215 q 673 123 673 157 z "},"6":{"ha":1156,"x_min":71,"x_max":1101,"o":"m 71 454 q 89 591 71 525 q 141 714 107 656 q 221 818 174 771 q 326 899 269 865 q 449 951 383 932 q 586 969 515 969 q 723 951 657 969 q 846 899 789 932 q 950 818 903 865 q 1031 714 998 771 q 1083 591 1065 656 q 1101 454 1101 525 q 1083 317 1101 382 q 1031 194 1065 251 q 950 89 998 136 q 846 8 903 42 q 723 -43 789 -25 q 586 -62 657 -62 q 385 -21 479 -62 q 221 89 292 19 q 111 253 151 159 q 71 454 71 347 m 286 361 q 296 310 286 334 q 324 268 307 286 q 366 240 342 250 q 417 229 390 229 q 468 239 444 229 q 510 267 492 250 q 538 309 528 285 q 549 359 549 332 l 549 547 q 558 569 549 560 q 581 578 567 578 q 603 569 593 578 q 612 547 612 560 l 612 511 l 652 492 l 712 510 l 712 552 q 701 602 711 578 q 672 642 690 625 q 631 669 654 659 q 581 680 607 680 q 530 670 554 680 q 489 643 507 660 q 460 602 471 625 q 449 553 450 579 l 449 362 q 440 340 449 349 q 418 331 431 331 q 395 340 404 331 q 387 362 387 349 l 387 443 l 286 443 l 286 361 m 612 360 q 622 309 612 333 q 651 268 633 286 q 692 239 669 250 q 743 229 716 229 q 794 240 770 229 q 837 268 819 250 q 865 310 854 286 q 876 361 876 334 l 876 443 l 774 443 l 774 358 q 765 336 774 345 q 743 327 756 327 q 721 336 730 327 q 712 358 712 345 l 712 441 l 652 423 l 612 442 l 612 360 z "},"7":{"ha":1156,"x_min":60,"x_max":1114,"o":"m 60 337 l 60 712 l 248 712 l 248 899 l 353 899 l 353 337 l 60 337 m 166 431 l 248 431 l 248 618 l 166 618 l 166 431 m 376 337 l 376 712 l 482 712 l 482 337 l 376 337 m 376 793 l 376 899 l 482 899 l 482 793 l 376 793 m 528 150 l 528 256 l 704 256 l 704 337 l 528 337 l 528 712 l 810 712 l 810 150 l 528 150 m 634 431 l 704 431 l 704 618 l 634 618 l 634 431 m 833 150 l 833 256 l 1021 256 l 1021 337 l 833 337 l 833 712 l 1114 712 l 1114 150 l 833 150 m 939 431 l 1021 431 l 1021 618 l 939 618 l 939 431 z "},"8":{"ha":1156,"x_min":215,"x_max":940,"o":"m 215 958 l 325 958 l 334 836 l 345 836 l 350 839 q 460 940 393 906 q 618 974 527 974 q 748 948 689 974 q 850 874 807 922 q 916 762 892 827 q 940 618 940 696 q 910 449 940 520 q 832 331 880 377 q 721 262 783 285 q 595 240 659 240 q 522 247 557 240 q 458 269 488 254 q 404 303 428 283 q 363 350 379 323 l 361 353 l 349 353 l 346 346 l 346 -36 l 222 -36 l 222 732 q 220 852 222 798 q 215 958 218 905 m 346 542 q 353 486 346 505 q 433 372 372 416 q 571 328 493 328 q 671 348 626 328 q 747 406 715 368 q 795 495 779 443 q 812 612 812 548 q 795 722 812 672 q 747 808 778 772 q 672 864 715 844 q 575 884 628 884 q 435 838 496 884 q 355 718 374 791 q 346 665 346 686 l 346 542 z "},"9":{"ha":1156,"x_min":36,"x_max":1121,"o":"m 36 68 l 65 214 q 87 254 65 245 l 138 273 l 318 340 q 326 343 323 343 l 326 345 l 326 346 l 328 347 q 373 371 353 358 q 400 396 393 385 q 418 404 408 412 l 419 403 l 428 425 q 435 447 431 435 q 441 444 438 454 l 439 460 l 436 486 l 428 494 q 416 523 419 504 q 410 549 414 542 q 396 562 406 555 q 379 596 388 570 q 371 626 375 610 q 365 655 367 642 q 363 679 363 669 q 368 688 363 688 l 374 688 q 372 692 372 690 q 370 700 371 694 q 363 726 368 711 q 358 750 358 741 q 359 782 358 762 q 364 823 361 802 q 372 865 367 845 q 383 896 376 885 q 418 933 397 917 q 472 957 439 950 q 510 962 485 960 q 562 965 535 964 q 613 964 589 966 q 650 957 637 962 q 668 949 658 954 q 690 937 679 945 q 724 914 709 926 q 749 888 739 901 q 760 859 755 877 q 766 820 764 840 q 770 781 769 800 q 771 750 771 762 q 767 713 770 733 q 761 682 764 693 q 774 688 766 688 q 779 682 778 688 q 780 668 781 677 q 778 649 780 660 q 772 626 775 637 l 762 596 q 753 574 758 582 q 745 561 749 566 q 738 554 741 557 q 733 549 735 551 q 726 523 728 541 q 714 494 724 504 l 707 486 l 704 454 l 704 446 q 705 445 704 444 q 707 447 706 446 q 709 448 708 448 q 710 447 710 449 q 712 441 711 446 q 716 431 714 437 q 721 418 718 425 q 725 407 723 412 q 726 402 726 404 q 730 403 726 400 l 732 403 q 746 395 736 404 l 746 393 q 747 390 747 392 l 749 390 q 776 367 755 379 q 819 345 796 354 q 829 340 824 341 l 1010 273 l 1060 254 q 1080 214 1081 246 l 1121 68 l 36 68 z "},"\u0000":{"ha":694,"x_min":0,"x_max":0,"o":""},"\r":{"ha":463,"x_min":0,"x_max":0,"o":""}," ":{"ha":694,"x_min":0,"x_max":0,"o":""},"!":{"ha":1158,"x_min":136,"x_max":1026,"o":"m 142 125 q 139 128 142 125 q 136 139 136 130 q 145 161 136 149 q 179 191 155 174 q 192 220 185 205 q 205 245 199 234 q 215 266 211 257 q 220 277 219 274 q 224 298 220 279 q 233 345 227 317 q 248 407 239 372 q 267 477 256 441 q 291 538 278 512 q 314 582 303 564 q 334 609 326 600 q 346 621 343 619 q 353 628 351 625 q 350 633 355 630 q 336 646 347 634 q 312 681 324 658 q 292 738 300 704 q 288 819 283 772 q 294 825 290 829 q 301 796 298 821 q 309 765 302 784 q 326 725 315 745 q 352 688 336 705 q 391 661 368 670 q 404 665 393 661 q 444 677 415 670 q 523 693 473 685 q 654 707 574 701 q 656 735 655 722 q 659 760 657 749 q 662 785 660 773 q 654 794 657 789 q 648 805 650 798 q 644 820 645 811 q 635 808 639 811 q 624 807 631 806 q 618 815 621 808 q 616 835 616 823 q 616 860 616 846 q 617 885 616 873 q 624 905 618 897 q 639 919 631 913 q 655 928 647 925 q 669 932 664 931 q 683 937 676 935 q 695 939 690 938 q 707 939 701 939 q 735 954 718 948 q 774 961 750 960 q 833 958 798 963 q 876 956 854 959 q 916 948 894 954 q 959 928 938 941 q 1006 901 990 930 q 1015 882 1010 894 q 1023 858 1020 871 q 1026 831 1026 844 q 1021 808 1026 818 q 1016 808 1019 806 q 1010 814 1013 810 q 1005 825 1008 819 q 1000 810 1002 817 q 993 797 997 804 q 983 787 989 791 q 981 747 984 765 q 972 715 977 729 q 963 690 968 701 q 956 675 958 680 q 954 665 953 670 q 958 654 955 659 q 962 640 958 652 q 969 611 965 629 q 979 573 974 594 q 987 533 983 553 q 994 495 991 513 q 996 466 997 477 q 991 431 996 449 q 981 397 987 413 q 967 368 975 381 q 954 349 960 355 q 953 322 955 334 q 947 298 951 309 q 939 279 943 288 q 931 264 935 270 q 923 246 928 258 q 914 219 919 233 q 905 189 909 204 q 899 164 901 174 q 895 125 895 144 q 898 100 894 106 q 905 91 900 97 q 916 78 911 85 q 925 63 921 71 q 928 52 928 56 q 922 41 927 46 q 910 32 917 36 q 897 25 904 28 q 884 22 889 22 q 872 24 880 22 q 858 29 865 26 q 845 38 851 33 q 837 50 840 43 q 831 83 831 63 q 834 117 831 104 q 842 150 836 124 q 852 210 848 176 q 858 281 857 244 q 852 348 859 318 q 812 336 834 340 q 772 330 791 332 q 727 328 749 327 q 718 288 723 307 q 709 252 714 271 q 697 217 703 233 q 694 201 695 214 q 693 171 693 188 q 692 135 692 154 q 692 101 692 117 q 694 67 692 85 q 699 33 696 49 q 707 -4 702 15 q 716 -14 712 -8 q 723 -24 720 -18 q 724 -37 726 -31 q 707 -58 722 -51 q 678 -66 693 -66 q 662 -63 671 -66 q 647 -55 654 -60 q 636 -42 640 -50 q 631 -26 631 -35 q 632 -2 631 -16 q 633 30 632 13 q 634 64 633 47 q 633 97 634 81 q 631 150 632 128 q 625 191 631 172 q 619 218 623 201 q 610 255 614 235 q 602 296 606 275 q 597 338 598 318 q 589 340 594 338 q 585 343 586 342 q 566 322 575 332 q 548 303 557 313 q 531 286 539 293 q 534 273 532 280 q 537 259 536 266 q 540 247 538 252 q 541 239 541 241 q 557 225 541 231 q 567 220 560 224 q 580 211 574 216 q 591 200 586 206 q 595 189 595 195 q 588 179 595 182 q 572 175 582 176 q 549 176 562 174 q 524 184 536 178 q 519 192 522 184 q 511 211 515 200 q 503 235 507 222 q 495 260 499 248 q 489 281 492 272 q 485 293 486 290 q 481 309 482 302 q 483 323 479 315 q 488 335 485 327 q 494 352 491 342 q 498 371 496 361 q 499 388 500 380 q 492 405 498 395 q 476 421 486 414 q 456 434 467 429 q 435 439 445 439 q 419 435 428 439 q 401 423 411 430 q 383 408 392 416 q 366 393 374 399 q 346 377 356 386 q 327 360 336 368 q 312 346 319 352 q 302 338 305 340 q 295 328 300 336 q 281 305 289 319 q 264 275 273 292 q 247 243 256 259 q 232 214 239 227 q 223 193 226 200 q 218 175 221 188 q 208 150 215 163 q 189 128 201 138 q 158 119 177 119 q 142 125 149 120 z "},"\"":{"ha":1158,"x_min":58,"x_max":1077,"o":"m 68 326 q 58 354 60 338 q 60 387 56 371 q 74 414 64 403 q 98 427 83 426 q 110 426 106 429 q 116 419 114 423 q 121 411 119 415 q 130 407 123 408 q 235 437 184 420 q 340 467 286 454 q 343 510 336 490 q 358 547 349 530 q 374 577 367 564 q 380 598 382 590 q 362 610 378 607 q 310 610 347 612 q 307 640 304 626 q 315 665 309 654 q 331 680 321 675 q 351 685 341 686 q 373 673 368 683 q 378 649 377 663 q 381 624 379 636 q 397 604 384 611 q 420 619 410 611 q 443 635 431 627 q 467 650 454 643 q 495 660 479 656 q 494 679 497 672 q 490 695 492 686 q 484 701 489 700 q 473 701 479 701 q 461 701 467 701 q 454 705 456 701 l 454 741 q 470 749 460 747 q 492 751 481 751 q 512 746 503 750 q 526 736 522 743 q 520 712 528 718 q 500 705 513 707 q 507 687 502 694 q 515 670 512 680 q 575 680 541 680 q 644 680 610 680 q 652 693 650 685 q 655 711 654 701 q 652 720 656 718 q 643 722 648 722 q 635 725 638 723 q 634 736 631 728 q 648 762 636 756 q 675 763 661 767 q 700 746 689 758 q 711 720 711 734 q 696 715 706 715 q 675 715 686 715 q 671 697 672 707 q 665 680 669 688 q 685 670 673 673 q 710 664 697 667 q 734 656 722 661 q 753 645 745 652 q 773 660 769 651 q 777 678 777 668 q 778 699 777 688 q 789 720 779 710 q 814 719 804 722 q 830 709 824 715 q 842 693 837 702 q 850 675 846 684 q 841 671 847 672 q 828 669 835 669 q 813 670 821 669 q 799 670 806 671 q 788 655 791 665 q 779 640 785 646 q 788 626 782 631 q 800 615 794 621 q 812 604 806 610 q 819 589 817 597 q 900 608 859 600 q 984 625 941 617 q 992 639 989 631 q 999 656 996 648 q 1006 671 1002 665 q 1021 680 1011 678 q 1062 651 1050 675 q 1077 594 1074 627 q 1056 575 1069 580 q 1028 573 1042 570 q 1002 584 1015 576 q 984 604 990 592 q 906 590 944 598 q 829 574 867 583 q 828 562 828 570 q 829 544 829 553 q 829 525 829 534 q 825 508 828 515 q 847 501 838 499 q 864 508 856 503 q 882 519 873 513 q 902 524 890 524 q 912 503 909 517 q 913 474 915 488 q 903 450 911 460 q 881 442 895 440 q 861 457 865 444 q 856 488 857 471 q 846 487 850 487 q 839 489 842 488 q 832 492 836 490 q 825 493 829 493 q 809 480 816 488 q 795 466 802 473 q 781 453 788 459 q 763 442 773 446 q 773 421 764 425 q 794 416 782 416 q 818 415 806 416 q 840 407 831 415 q 820 368 839 379 q 773 356 802 357 q 772 378 772 368 q 772 397 773 388 q 765 414 770 406 q 747 427 760 421 q 724 420 734 425 q 705 410 714 416 q 687 400 696 405 q 665 392 677 395 q 668 373 665 380 q 675 356 672 365 q 686 354 679 354 q 701 355 693 355 q 716 354 709 355 q 727 346 724 353 q 718 320 727 332 q 696 301 709 308 q 669 293 684 294 q 644 300 655 292 q 646 315 644 309 q 651 324 648 320 q 659 332 655 328 q 665 341 663 336 q 653 360 658 349 q 644 382 649 370 q 597 362 621 372 q 542 351 573 353 q 541 343 542 347 q 538 337 539 340 q 536 331 536 334 q 536 321 535 327 q 539 311 536 313 q 548 307 543 309 q 557 304 553 306 q 562 296 562 302 q 555 268 565 278 q 531 256 545 258 q 503 258 517 253 q 485 275 490 263 q 490 293 484 287 q 502 304 496 298 q 511 318 508 310 q 511 341 515 326 q 489 346 501 345 q 463 348 476 347 q 438 350 450 348 q 418 356 427 351 q 410 350 412 354 q 404 342 407 347 q 399 333 401 337 q 392 326 396 329 q 396 317 393 321 q 402 310 399 313 q 407 302 405 307 q 408 290 408 298 q 380 285 395 286 q 354 290 366 285 q 335 304 342 294 q 330 331 328 315 q 347 341 338 339 q 366 345 357 343 q 384 351 376 347 q 397 367 393 355 q 367 403 382 385 q 346 448 353 421 q 290 433 317 441 q 238 414 264 424 q 187 395 212 405 q 135 376 161 385 q 127 349 130 363 q 114 326 124 334 q 101 324 106 324 q 92 324 96 323 q 82 325 87 324 q 68 326 77 326 m 466 567 q 462 560 466 567 q 458 537 458 553 q 464 504 458 521 q 479 473 469 487 q 500 449 488 458 q 526 437 513 439 q 563 443 543 435 q 600 464 583 450 q 626 494 616 477 q 634 528 636 511 q 616 560 632 545 q 579 585 601 575 q 533 596 557 594 q 490 589 509 597 q 466 567 473 581 m 703 559 q 701 551 703 559 q 703 528 699 543 q 719 503 707 513 q 753 493 730 492 q 765 509 762 498 q 768 533 768 519 q 768 561 769 547 q 768 589 767 576 q 739 600 752 602 q 716 587 725 597 q 703 559 707 576 z "},"#":{"ha":1158,"x_min":136,"x_max":1008,"o":"m 136 142 l 281 905 l 776 905 l 746 760 l 417 760 l 366 497 l 671 497 l 640 374 l 341 374 l 296 142 l 136 142 m 703 227 q 711 264 703 247 q 732 295 719 282 q 763 316 745 309 q 801 323 781 323 q 840 316 821 323 q 871 295 858 309 q 892 264 884 282 q 900 227 900 247 q 892 189 900 206 q 871 158 884 171 q 840 137 858 144 q 801 130 821 130 q 763 137 781 130 q 732 158 745 144 q 711 189 719 171 q 703 227 703 206 m 764 398 l 833 903 l 1008 903 l 876 398 l 764 398 z "},"$":{"ha":1156,"x_min":204,"x_max":912,"o":"m 204 611 l 204 655 q 247 795 213 735 q 329 895 280 855 q 436 954 378 935 q 553 974 495 974 q 644 962 597 974 q 735 925 691 951 q 817 859 779 900 q 879 760 854 819 q 888 739 883 750 q 895 718 892 728 q 898 709 895 717 q 904 692 901 702 q 909 672 907 682 q 912 658 912 663 l 912 610 q 895 521 912 566 q 852 432 878 477 q 797 342 826 387 q 743 253 767 298 q 729 235 738 244 q 715 216 720 225 q 698 186 707 201 q 680 157 689 172 q 620 52 650 105 q 558 -54 589 -1 q 458 109 508 28 q 359 271 408 189 q 312 349 337 310 q 265 428 287 389 q 227 507 243 468 q 205 585 210 547 q 204 600 205 591 q 204 611 204 610 m 433 616 q 433 611 433 615 q 433 603 433 608 q 434 593 433 598 q 436 584 435 588 q 458 544 445 560 q 488 517 472 528 q 522 503 504 507 q 556 498 539 498 q 608 508 583 498 q 650 536 632 519 q 679 578 669 554 q 690 629 690 602 q 680 681 690 656 q 652 723 669 705 q 611 751 635 741 q 560 761 587 761 q 515 754 538 761 q 474 732 492 747 q 444 696 456 718 q 433 644 433 674 l 433 616 z "},"%":{"ha":1158,"x_min":126,"x_max":1033,"o":"m 126 506 q 151 632 122 574 q 237 733 180 691 q 374 799 294 776 q 552 817 454 821 q 672 798 612 814 q 786 757 732 783 q 887 695 840 731 q 966 616 933 659 q 1018 522 1000 572 q 1033 417 1036 472 q 999 301 1030 357 q 911 204 967 246 q 776 137 854 162 q 600 111 697 112 q 523 114 557 111 q 461 123 489 117 q 412 135 434 128 q 372 149 390 142 q 368 153 368 151 q 374 153 368 154 q 447 145 417 143 q 493 157 476 148 q 513 180 509 166 q 511 207 517 194 q 474 230 503 221 q 406 249 445 239 q 323 274 367 259 q 239 316 279 289 l 240 318 q 244 327 242 323 q 247 334 245 330 q 250 339 248 337 q 256 345 252 345 l 383 345 q 391 338 388 345 q 394 331 392 336 q 398 320 396 326 q 404 307 401 313 q 410 295 406 300 q 419 287 414 291 q 433 283 425 283 q 448 287 437 283 q 463 304 458 290 q 465 312 465 309 q 464 318 465 315 q 463 320 463 319 q 463 323 463 321 q 462 324 462 323 q 461 326 462 325 q 451 348 460 326 q 427 402 441 370 q 396 472 412 435 q 365 542 379 509 q 341 595 351 574 q 331 616 331 616 q 327 624 330 621 q 320 627 325 627 q 316 626 317 627 q 313 624 315 625 q 311 621 313 623 l 309 616 q 302 603 308 616 q 287 568 296 589 q 266 521 277 547 q 241 467 254 494 q 218 413 229 439 q 197 368 206 387 l 193 357 q 179 373 182 368 q 174 379 176 376 q 157 406 165 391 q 142 438 149 421 q 131 472 136 454 q 126 506 127 490 m 282 401 q 278 404 279 401 q 279 407 278 406 l 315 494 l 316 494 q 317 496 317 496 q 320 498 317 498 q 323 496 323 498 l 323 494 l 324 494 l 361 407 q 357 401 363 401 l 282 401 m 494 318 q 527 286 494 286 q 560 318 560 286 l 560 592 q 527 624 560 624 q 503 616 511 624 q 494 592 494 609 l 494 318 m 624 318 q 657 286 624 286 q 690 318 690 286 l 690 446 l 754 315 q 766 301 758 308 q 783 295 774 294 q 802 301 794 294 q 815 316 810 308 l 880 446 l 880 318 q 888 294 880 301 q 912 286 897 286 q 937 294 928 286 q 946 318 946 301 l 946 592 q 938 616 946 609 q 913 624 929 624 q 888 615 897 624 q 880 603 884 611 l 784 390 l 690 603 q 681 615 686 612 q 656 624 673 624 q 624 592 624 624 l 624 318 z "},"&":{"ha":1158,"x_min":71,"x_max":1088,"o":"m 71 346 l 71 484 q 78 500 71 494 q 94 507 85 507 l 338 507 l 232 323 l 94 323 q 78 330 85 323 q 71 346 71 336 m 151 21 l 161 111 q 169 124 162 121 q 183 123 175 127 l 244 88 q 252 76 252 83 q 245 64 252 69 l 167 12 q 154 9 159 6 q 151 21 149 12 m 203 149 q 193 163 195 154 q 195 180 190 172 l 473 663 q 488 674 479 671 q 505 672 496 677 l 566 638 q 576 624 574 633 q 574 606 578 614 l 295 123 q 281 112 290 115 q 264 115 272 110 l 203 149 m 476 323 l 582 507 l 643 507 l 729 323 l 476 323 m 556 843 q 553 856 556 843 q 547 885 549 868 q 553 906 545 902 q 568 899 558 909 q 590 871 577 889 q 617 829 602 853 q 647 778 632 804 q 679 725 663 751 q 709 675 694 698 q 742 620 723 653 q 780 550 760 587 q 820 476 800 513 q 857 408 840 439 q 885 354 873 376 q 901 326 897 332 q 905 307 907 315 q 898 290 903 298 q 884 277 892 283 q 871 270 877 272 q 860 265 865 267 q 849 262 854 263 q 837 262 844 261 q 821 269 830 264 q 802 294 815 271 q 772 351 789 317 q 736 426 755 385 q 700 506 718 467 q 668 577 683 545 q 646 628 654 610 q 626 672 638 646 q 602 729 614 699 q 576 788 589 758 q 556 843 564 819 m 849 507 l 1065 507 q 1081 500 1074 507 q 1088 484 1088 494 l 1088 346 q 1081 330 1088 336 q 1065 323 1074 323 l 942 323 q 936 345 941 334 q 927 359 932 349 q 913 386 922 370 q 884 441 901 410 q 849 507 867 472 m 864 199 q 861 217 858 208 q 873 231 863 227 l 907 249 q 926 251 916 254 q 941 238 936 248 l 970 183 q 971 163 975 174 q 960 148 968 153 l 935 133 q 916 130 926 127 q 901 142 906 133 l 864 199 m 942 54 q 931 78 932 68 q 931 97 929 89 q 939 110 934 104 q 947 118 943 115 q 981 129 966 129 q 1004 123 995 130 q 1020 104 1014 117 q 1029 77 1026 92 q 1034 -8 1037 43 q 1020 6 1031 1 q 995 18 1009 12 q 966 33 981 24 q 942 54 952 41 z "},"'":{"ha":1158,"x_min":111,"x_max":966,"o":"m 123 182 q 111 230 113 206 q 111 277 109 254 q 120 318 114 299 q 133 352 127 338 q 145 376 140 367 q 151 386 150 385 l 595 899 q 770 974 696 974 q 816 965 795 974 q 851 943 836 957 q 878 910 867 928 q 896 873 888 892 q 906 836 903 854 q 910 803 909 818 q 910 787 910 802 q 909 746 909 772 q 908 686 909 720 q 907 615 907 652 q 910 561 906 583 q 920 526 914 539 q 933 502 926 510 q 955 483 946 494 q 966 456 963 471 q 964 426 968 440 q 955 399 960 411 q 943 380 949 388 q 936 371 937 372 l 930 365 l 922 364 q 899 185 903 352 q 898 161 899 172 q 897 144 898 151 q 890 75 897 104 q 873 25 883 45 q 852 -7 863 5 q 829 -28 840 -20 q 695 -68 756 -68 q 636 -58 662 -68 q 590 -33 610 -48 q 558 -2 571 -18 q 537 28 545 15 q 519 52 528 43 q 500 65 510 60 q 482 71 491 70 q 464 73 473 73 q 434 70 450 73 q 401 64 418 67 q 370 58 385 60 q 338 54 354 56 l 335 54 l 332 54 q 123 182 167 85 m 159 309 q 155 297 159 309 q 150 256 151 285 q 160 198 148 227 q 337 93 193 121 q 366 97 351 94 q 393 102 380 99 q 429 109 411 106 q 464 112 446 112 q 526 96 500 112 q 571 48 551 81 q 588 24 577 37 q 613 -1 598 10 q 649 -21 629 -13 q 695 -29 669 -29 q 808 5 746 -29 q 824 20 815 10 q 840 46 832 30 q 852 87 847 62 q 858 146 857 111 q 859 163 859 153 q 859 186 859 173 q 862 263 860 227 q 870 329 865 300 q 884 376 875 357 q 909 401 894 395 q 922 423 916 409 q 926 450 928 437 q 923 459 926 454 q 911 471 920 465 q 901 480 908 473 q 886 505 893 488 q 872 549 878 522 q 867 616 867 576 q 869 687 868 654 q 870 747 869 721 q 871 802 871 777 q 870 813 871 803 q 865 839 869 824 q 855 870 862 853 q 837 902 848 887 q 809 926 826 916 q 770 935 793 935 q 621 869 711 935 l 182 363 q 174 348 182 363 q 159 309 166 332 m 254 262 q 252 246 251 254 q 264 235 254 238 q 280 227 272 230 q 296 222 288 223 q 313 224 304 221 q 340 252 319 231 q 398 299 361 274 q 493 347 436 324 q 632 380 551 370 q 631 290 631 337 q 632 202 631 243 q 634 109 633 155 q 671 85 652 93 q 709 82 688 79 q 752 109 730 85 q 752 152 752 125 q 752 209 752 178 q 751 272 751 240 q 751 332 751 304 q 751 379 751 359 q 751 405 751 399 q 767 407 754 404 q 810 414 780 410 q 822 420 819 417 q 823 427 825 423 q 809 435 821 431 q 764 433 783 433 l 745 433 l 745 724 q 730 756 741 745 q 705 767 722 766 q 661 748 689 768 l 264 282 q 254 262 256 271 m 497 431 q 506 440 499 435 l 642 591 l 642 433 q 592 429 616 431 q 550 426 572 428 q 515 424 529 425 q 499 425 502 422 q 497 431 496 428 z "},"(":{"ha":1158,"x_min":110,"x_max":1069,"o":"m 110 568 q 115 631 108 602 q 137 684 122 661 q 172 721 151 707 q 217 737 193 735 q 264 728 241 739 q 304 696 286 717 q 333 647 321 675 q 347 585 345 618 q 341 522 349 552 q 320 469 334 492 q 284 432 305 446 q 239 416 264 418 q 193 426 215 414 q 153 457 170 437 q 123 507 135 478 q 110 568 112 535 m 173 125 q 179 173 173 151 q 200 217 186 195 q 235 260 214 238 q 288 308 257 282 q 341 356 318 333 q 384 399 365 378 q 418 440 403 420 q 447 479 433 460 q 509 533 474 519 q 577 548 543 548 q 611 546 594 548 q 643 538 627 544 q 674 520 659 532 q 703 489 689 509 q 755 421 732 450 q 801 370 779 393 q 843 330 823 348 q 885 292 863 311 q 940 240 918 263 q 973 196 961 217 q 989 154 985 175 q 994 106 994 132 q 984 50 994 81 q 956 -6 975 20 q 907 -50 937 -33 q 836 -68 877 -68 q 761 -62 793 -68 q 698 -51 728 -57 q 639 -39 668 -44 q 577 -33 610 -33 q 516 -37 544 -33 q 459 -45 488 -41 q 397 -54 430 -50 q 323 -58 365 -58 q 253 -39 281 -58 q 206 8 224 -20 q 181 67 189 36 q 173 125 173 99 m 347 814 q 356 877 347 848 q 380 927 365 905 q 417 961 396 949 q 462 974 438 974 q 507 961 486 974 q 543 927 528 949 q 568 877 559 905 q 577 814 577 848 q 568 753 577 782 q 543 702 559 724 q 507 668 528 680 q 462 655 486 655 q 417 668 438 655 q 380 702 396 680 q 356 753 365 724 q 347 814 347 782 m 648 707 q 643 720 648 707 q 636 763 638 732 q 642 826 634 793 q 667 884 650 859 q 704 927 684 910 q 749 951 725 945 q 797 952 773 958 q 810 945 801 951 q 830 927 819 939 q 851 900 841 916 q 869 864 862 884 q 878 819 876 844 q 873 767 880 795 q 848 709 865 734 q 811 666 831 683 q 766 642 790 648 q 718 641 742 635 q 676 665 694 647 q 648 707 659 682 m 827 499 q 836 566 827 536 q 861 617 845 596 q 899 650 878 639 q 946 663 921 662 q 961 660 950 663 q 985 649 971 656 q 1013 630 998 642 q 1040 601 1028 618 q 1061 559 1053 583 q 1069 503 1069 534 q 1061 438 1070 466 q 1036 393 1053 411 q 998 366 1020 375 q 951 357 977 357 q 904 365 926 357 q 865 391 882 373 q 838 435 848 408 q 827 499 828 463 z "},")":{"ha":1158,"x_min":125,"x_max":1057,"o":"m 125 177 l 125 191 q 126 204 125 197 q 128 217 127 210 q 181 411 144 318 q 221 497 199 456 q 273 576 244 538 q 332 644 300 612 q 401 701 363 675 q 440 725 420 714 q 481 745 460 736 q 526 758 505 753 q 537 761 531 760 q 548 763 543 762 q 553 764 551 764 q 559 764 556 764 q 566 765 563 765 q 572 765 569 765 l 616 765 q 622 764 619 765 q 627 763 625 764 q 650 758 639 761 q 672 752 661 755 q 751 720 712 741 q 816 675 786 700 q 873 619 846 650 q 969 477 930 553 q 1038 288 1015 387 q 1040 280 1039 284 q 1042 271 1040 276 q 1048 249 1045 260 q 1053 227 1050 237 q 1056 205 1055 216 q 1057 184 1058 195 q 1052 166 1055 174 q 1043 151 1048 159 q 1014 120 1030 134 q 876 35 952 66 q 789 8 833 18 q 698 -6 744 -1 q 599 -12 648 -12 q 500 -7 549 -12 q 415 3 457 -4 q 332 24 372 11 q 263 52 296 36 q 200 92 230 68 q 150 140 172 113 q 139 153 144 146 q 129 168 134 160 q 126 172 127 170 q 125 177 125 174 m 190 209 q 190 207 189 208 q 190 205 190 206 q 192 201 192 201 q 211 172 201 184 q 263 124 233 144 q 328 92 294 104 q 410 67 368 76 q 495 56 452 59 q 589 51 542 51 q 684 54 637 50 q 775 65 730 57 q 863 90 821 74 q 932 126 899 104 q 985 182 966 148 q 988 186 987 184 q 992 232 1000 210 q 973 275 985 255 q 949 320 961 298 q 924 364 937 342 q 901 398 913 382 q 875 431 888 415 q 847 464 861 448 q 819 495 833 479 q 783 529 801 513 q 745 560 765 545 q 740 564 743 562 q 736 568 737 566 q 726 575 730 572 q 706 576 716 580 q 687 564 695 573 q 671 547 679 555 q 637 507 653 528 q 606 465 621 486 q 575 426 591 445 q 541 392 559 408 q 526 381 534 387 q 509 375 518 376 q 484 380 494 375 q 462 395 472 386 q 443 415 452 405 q 426 434 435 424 q 406 453 416 445 q 383 465 395 461 q 357 465 371 469 q 323 443 338 458 q 296 413 308 429 q 281 393 288 404 q 268 373 275 383 q 255 353 262 363 q 243 332 249 342 q 218 291 230 312 q 199 246 207 269 q 195 234 197 240 q 192 222 193 229 q 191 215 191 218 q 190 209 190 212 z "},"*":{"ha":1158,"x_min":113,"x_max":1078,"o":"m 113 98 l 113 699 l 403 699 q 497 682 458 697 q 559 634 536 667 q 586 543 586 597 q 558 454 586 488 q 513 420 543 436 q 582 368 558 405 q 606 279 606 332 q 579 184 606 227 q 559 158 570 170 q 536 136 549 146 q 505 117 522 125 q 469 106 488 110 q 384 98 430 98 l 113 98 m 252 203 l 378 203 q 413 205 398 203 q 439 213 429 208 q 479 288 479 232 q 441 352 479 336 q 380 363 420 361 l 252 363 l 252 203 m 252 462 l 379 462 q 443 477 417 462 q 467 530 467 492 q 435 585 467 571 q 363 595 406 595 l 252 595 l 252 462 m 652 327 q 711 498 652 439 q 865 558 770 558 q 966 538 919 558 q 1040 475 1012 517 q 1062 433 1053 455 q 1074 386 1070 411 q 1078 300 1079 356 l 765 300 q 810 210 768 235 q 838 198 823 201 q 872 194 854 194 q 934 213 911 194 q 958 243 948 225 l 1072 243 q 1030 165 1068 205 q 869 102 973 102 q 718 155 783 102 q 652 327 652 208 m 743 614 l 743 673 l 985 673 l 985 614 l 743 614 m 768 375 l 961 375 q 931 443 959 419 q 865 466 905 466 q 826 459 843 466 q 798 441 810 453 q 778 412 785 429 q 768 375 771 395 z "},"+":{"ha":1158,"x_min":86,"x_max":1027,"o":"m 86 332 l 86 835 l 257 835 l 257 589 q 395 643 319 624 q 556 663 471 663 q 739 637 654 663 q 889 569 825 612 q 990 467 953 525 q 1027 341 1027 408 q 990 216 1027 275 q 889 114 953 158 q 739 45 825 71 q 556 20 654 20 q 376 44 460 20 q 228 111 292 68 q 127 210 165 153 q 87 332 90 267 l 86 332 m 257 341 q 280 257 257 296 q 345 190 304 218 q 439 144 385 161 q 556 127 494 127 q 672 144 618 127 q 768 190 727 161 q 832 257 808 218 q 856 341 856 296 q 832 425 856 386 q 768 493 808 464 q 672 538 727 522 q 556 555 618 555 q 439 538 494 555 q 345 493 385 522 q 280 425 304 464 q 257 341 257 386 m 359 341 q 374 396 359 370 q 417 442 390 422 q 479 472 444 461 q 556 484 515 484 q 633 472 597 484 q 696 442 669 461 q 739 396 723 422 q 754 341 754 370 q 739 286 754 312 q 696 241 723 260 q 633 211 669 222 q 556 200 597 200 q 479 211 515 200 q 417 241 444 222 q 374 286 390 260 q 359 341 359 312 z "},",":{"ha":1158,"x_min":133,"x_max":1044,"o":"m 133 215 l 133 550 q 156 662 133 610 q 218 753 178 714 q 310 815 257 793 q 422 838 362 838 l 623 838 q 684 822 651 835 q 748 788 717 809 q 806 740 779 767 q 847 681 832 713 q 854 666 851 672 q 861 649 858 659 q 867 625 864 640 q 873 583 869 610 q 880 536 876 556 q 897 505 884 516 q 923 495 905 497 q 961 493 941 493 q 998 491 981 492 q 1021 486 1015 490 l 1034 475 l 1041 460 l 1044 447 l 1042 215 q 1019 103 1042 155 q 957 11 996 50 q 866 -51 918 -28 q 754 -73 814 -73 l 422 -73 q 310 -51 362 -73 q 218 11 257 -28 q 156 103 178 50 q 133 215 133 155 m 370 218 q 386 179 370 195 q 425 163 401 163 l 751 163 q 790 179 774 163 q 806 218 806 195 q 790 257 806 241 q 751 273 774 273 l 425 273 q 386 257 401 273 q 370 218 370 241 m 370 548 q 386 509 370 526 q 425 492 401 492 l 585 492 q 624 509 608 492 q 640 548 640 526 q 624 587 640 570 q 585 603 608 603 l 425 603 q 386 587 401 603 q 370 548 370 570 z "},"-":{"ha":1158,"x_min":136,"x_max":1044,"o":"m 136 174 l 136 623 q 141 651 136 638 q 156 674 146 665 q 179 689 166 684 q 207 695 192 695 l 972 695 q 1023 674 1002 695 q 1044 623 1044 654 l 1044 174 q 1038 146 1044 159 q 1023 124 1032 134 q 1000 109 1013 114 q 972 103 987 103 l 339 103 q 313 56 332 73 q 274 31 294 39 q 224 19 251 22 q 241 70 239 47 q 241 103 243 94 l 207 103 q 179 109 192 103 q 156 124 166 114 q 141 146 146 134 q 136 174 136 159 m 252 316 q 262 292 252 302 q 286 282 272 282 q 310 292 300 282 q 320 316 320 302 q 310 340 320 330 q 286 350 300 350 q 262 340 272 350 q 252 316 252 330 m 526 212 q 557 170 535 186 q 608 153 579 153 q 641 160 625 153 q 668 178 656 167 q 686 206 680 190 q 693 239 693 222 l 693 246 l 526 212 m 863 316 q 872 292 863 302 q 897 282 882 282 q 920 292 910 282 q 930 316 930 302 q 920 340 930 330 q 897 350 910 350 q 872 340 882 350 q 863 316 863 330 z "},".":{"ha":1158,"x_min":149,"x_max":1006,"o":"m 149 -68 l 317 796 q 333 823 322 811 q 359 842 342 833 q 403 850 376 850 l 1006 850 l 1006 273 q 996 242 1006 257 q 966 218 985 227 q 914 197 955 212 q 813 161 873 182 q 681 115 753 140 q 535 64 609 90 q 149 -68 361 5 m 495 308 q 542 279 515 291 q 596 263 564 269 q 669 263 629 257 q 734 287 710 270 q 771 323 758 304 q 793 371 787 345 q 803 428 800 397 q 802 488 805 454 q 785 562 798 523 q 759 601 775 587 q 724 621 743 615 q 686 624 705 626 q 651 616 667 622 q 625 601 635 610 q 614 584 614 592 l 608 585 l 608 756 l 495 739 l 495 308 m 608 351 l 608 517 q 618 527 611 523 q 635 532 625 530 q 663 533 646 534 q 687 519 680 531 q 697 493 694 507 q 699 466 700 479 q 699 449 699 453 q 699 436 699 445 q 699 415 700 427 q 695 389 698 403 q 685 363 692 376 q 665 348 677 351 q 639 345 652 344 q 608 351 624 345 z "},"/":{"ha":1158,"x_min":113,"x_max":1042,"o":"m 113 273 q 134 166 113 216 q 194 80 156 117 q 282 21 231 43 q 390 0 332 0 l 517 0 l 522 0 l 522 146 l 442 146 q 369 157 401 145 q 342 172 355 163 q 318 194 328 180 q 300 228 307 208 q 294 273 294 247 q 300 318 294 298 q 318 351 307 337 q 342 374 328 365 q 369 389 355 383 q 442 400 401 401 l 522 400 l 522 547 l 517 547 l 390 547 q 282 525 332 547 q 194 466 231 503 q 134 379 156 429 q 113 273 113 330 m 462 734 q 485 810 462 775 q 547 872 507 846 q 639 914 586 899 q 752 929 692 929 q 865 914 812 929 q 957 872 918 899 q 1019 810 996 846 q 1042 734 1042 775 q 1028 675 1042 703 q 990 623 1015 647 q 932 582 966 600 q 858 553 899 564 l 771 465 l 771 541 q 762 539 766 540 q 752 539 758 539 q 639 554 692 539 q 547 596 586 570 q 485 658 507 623 q 462 734 462 694 z "},":":{"ha":1158,"x_min":68,"x_max":1086,"o":"m 68 401 q 86 492 68 450 q 135 565 104 534 q 208 615 166 597 q 297 633 250 633 q 298 633 298 633 q 297 638 298 635 q 297 645 297 642 q 317 746 297 699 q 373 829 338 793 q 455 885 408 865 q 556 905 503 905 q 646 889 604 905 q 723 844 689 873 q 779 777 756 816 q 810 692 802 738 q 819 693 814 692 q 826 693 823 693 q 927 672 880 693 q 1010 616 975 652 q 1065 533 1045 581 q 1086 431 1086 486 q 1065 330 1086 377 q 1010 247 1045 282 q 927 191 975 212 q 826 170 880 170 q 821 171 823 170 q 815 171 819 171 l 305 171 q 301 171 303 171 q 297 170 300 170 q 293 171 296 170 q 290 171 291 171 l 284 171 q 199 193 239 174 q 131 243 160 212 q 85 315 102 274 q 68 401 68 355 z "},";":{"ha":1158,"x_min":98,"x_max":1057,"o":"m 98 789 l 524 651 l 524 43 l 100 187 l 98 789 m 176 850 l 576 968 l 968 850 l 576 722 l 176 850 m 629 41 l 630 653 l 1057 785 l 1057 187 l 629 41 z "},"<":{"ha":1158,"x_min":115,"x_max":1042,"o":"m 115 463 q 150 640 115 555 q 252 792 185 724 q 400 892 318 858 q 578 926 481 926 q 758 892 674 926 q 908 791 841 858 q 1008 642 974 725 q 1042 463 1042 558 q 1008 285 1042 368 q 909 138 975 202 q 755 35 840 71 q 578 0 670 0 q 402 35 486 0 q 251 137 319 70 q 150 287 184 204 q 115 463 115 370 m 199 463 q 229 320 199 389 q 313 197 258 252 q 435 113 368 142 q 579 85 503 85 q 724 114 654 85 q 850 198 793 142 q 930 318 903 251 q 958 463 958 385 q 930 609 958 541 q 848 731 902 677 q 726 814 794 786 q 579 842 658 842 q 433 814 500 842 q 313 732 366 787 q 229 608 258 677 q 199 463 199 539 m 315 463 q 325 402 315 429 q 353 357 335 375 q 397 329 372 338 q 453 319 422 319 q 524 339 492 319 q 575 392 556 359 l 517 421 q 493 389 507 397 q 460 381 479 381 q 413 405 428 381 q 398 463 398 429 q 412 522 398 498 q 460 545 426 545 q 485 538 469 545 q 511 508 500 531 l 573 541 q 522 592 553 576 q 450 607 490 607 q 397 597 422 607 q 354 569 372 587 q 325 524 336 551 q 315 463 315 497 m 582 463 q 592 524 582 497 q 621 569 603 551 q 664 597 640 587 q 718 607 689 607 q 789 592 757 607 q 841 541 821 576 l 779 508 q 767 527 774 519 q 752 538 760 534 q 739 544 745 542 q 728 545 732 545 q 680 522 694 545 q 665 463 665 498 q 680 405 665 429 q 728 381 695 381 q 761 389 746 381 q 785 421 775 397 l 842 392 q 792 339 824 359 q 720 319 760 319 q 664 329 690 319 q 621 357 639 338 q 592 402 602 375 q 582 463 582 429 z "},"=":{"ha":1158,"x_min":58,"x_max":1100,"o":"m 58 453 q 77 591 58 525 q 130 716 96 658 q 211 821 163 774 q 316 903 258 869 q 441 955 374 937 q 579 974 507 974 q 718 955 651 974 q 842 903 784 937 q 947 821 900 869 q 1029 716 995 774 q 1081 591 1063 658 q 1100 453 1100 525 q 1077 300 1100 373 q 1014 166 1055 228 l 1090 -18 l 907 49 q 756 -37 840 -6 q 579 -68 673 -68 q 441 -49 507 -68 q 316 3 374 -31 q 211 85 258 37 q 130 190 163 132 q 77 315 96 248 q 58 453 58 381 m 258 528 l 329 225 q 351 193 334 204 q 386 185 367 181 l 872 300 q 901 322 891 304 q 905 361 911 340 l 835 663 q 813 696 829 684 q 778 703 796 707 l 673 678 q 622 705 650 695 q 564 714 594 714 q 466 686 510 714 q 399 614 422 659 l 291 589 q 262 566 272 584 q 258 528 253 549 m 458 449 q 469 500 458 476 q 497 542 479 524 q 539 570 515 559 q 590 581 563 581 q 641 570 617 581 q 682 542 665 559 q 710 500 700 524 q 721 449 721 476 q 710 398 721 422 q 682 356 700 374 q 641 328 665 338 q 590 318 617 318 q 539 328 563 318 q 497 356 515 338 q 469 398 479 374 q 458 449 458 422 m 506 449 q 512 416 506 431 q 530 390 519 401 q 557 372 542 378 q 590 366 572 366 q 622 372 607 366 q 649 390 637 378 q 667 416 661 401 q 673 449 673 431 q 667 482 673 467 q 649 509 661 497 q 622 527 637 520 q 590 533 607 533 q 557 527 572 533 q 530 509 542 520 q 512 482 519 497 q 506 449 506 467 z "},">":{"ha":1158,"x_min":172,"x_max":970,"o":"m 172 407 l 399 620 l 437 592 l 437 684 l 256 684 l 571 974 l 886 684 l 703 684 l 703 313 l 743 348 l 970 140 l 854 140 l 854 -68 l 646 -68 l 646 140 l 519 140 l 669 274 l 669 731 l 797 731 l 571 939 l 345 731 l 472 731 l 472 553 l 623 407 l 495 407 l 495 -68 l 287 -68 l 287 407 l 172 407 z "},"?":{"ha":1158,"x_min":121,"x_max":1042,"o":"m 121 768 q 131 791 121 781 q 153 800 140 800 q 177 791 167 800 q 186 768 186 781 q 177 744 186 754 q 153 734 167 734 q 131 744 140 734 q 121 768 121 754 m 144 646 q 150 660 144 654 q 164 666 155 666 q 179 660 173 666 q 184 646 184 654 q 179 630 184 637 q 164 624 173 624 q 150 630 155 624 q 144 646 144 637 m 149 197 q 156 217 149 209 q 176 225 164 225 q 195 217 187 225 q 203 197 203 209 q 195 178 203 186 q 176 170 187 170 q 156 178 164 170 q 149 197 149 186 m 156 43 q 164 63 156 55 q 184 72 173 72 q 205 63 197 72 q 214 43 214 55 q 205 23 214 31 q 184 14 197 14 q 164 23 173 14 q 156 43 156 31 m 170 470 q 202 629 170 554 q 289 759 234 703 q 418 846 345 814 q 576 878 492 878 q 685 864 633 878 q 782 822 736 849 q 864 759 827 795 q 928 676 901 722 q 969 578 954 631 q 983 470 983 526 q 969 361 983 414 q 928 264 954 309 q 864 181 901 218 q 782 117 827 144 q 685 76 736 90 q 576 61 633 61 q 418 93 492 61 q 289 181 345 125 q 202 311 234 236 q 170 470 170 385 m 188 880 q 200 908 188 897 q 229 920 212 920 q 258 908 246 920 q 269 880 269 897 q 258 850 269 863 q 229 838 246 838 q 200 850 212 838 q 188 880 188 863 m 210 470 q 239 327 210 393 q 318 210 268 260 q 434 131 368 159 q 576 102 500 102 q 719 131 652 102 q 836 210 786 159 q 914 327 885 260 q 943 470 943 393 q 914 613 943 546 q 836 729 885 680 q 719 808 786 779 q 576 837 652 837 q 434 808 500 837 q 318 729 368 779 q 239 613 268 680 q 210 470 210 546 m 229 117 q 240 144 229 133 q 266 155 250 155 q 292 144 281 155 q 303 117 303 133 q 292 91 303 102 q 266 80 281 80 q 240 91 250 80 q 229 117 229 102 m 267 412 l 357 412 q 381 359 366 385 q 417 312 397 334 q 462 274 437 290 q 513 249 487 258 l 513 159 q 419 189 460 170 q 348 238 378 208 q 298 311 317 269 q 267 412 278 354 m 267 534 q 348 697 289 635 q 513 780 406 759 l 513 690 q 462 668 487 682 q 417 634 437 654 q 381 590 397 615 q 357 534 366 565 l 267 534 m 392 470 q 407 542 392 509 q 446 601 421 576 q 505 642 471 627 q 576 656 538 656 q 649 642 615 656 q 708 601 682 627 q 748 542 733 576 q 762 470 762 509 q 748 397 762 431 q 708 338 733 363 q 649 298 682 313 q 576 283 615 283 q 505 298 538 283 q 446 338 471 313 q 407 397 421 363 q 392 470 392 431 m 432 470 q 444 414 432 440 q 475 368 455 387 q 520 336 494 348 q 576 325 547 325 q 633 336 606 325 q 679 368 659 348 q 710 414 699 387 q 721 470 721 440 q 710 526 721 500 q 679 572 699 552 q 633 603 659 591 q 576 614 606 614 q 520 603 547 614 q 475 572 494 591 q 444 526 455 552 q 432 470 432 500 m 647 159 l 647 249 q 697 274 674 258 q 740 312 721 290 q 773 359 759 334 q 797 412 788 385 l 886 412 q 854 311 876 354 q 802 238 833 269 q 732 189 772 208 q 647 159 693 170 m 647 690 l 647 780 q 802 697 739 759 q 886 534 865 635 l 797 534 q 740 634 779 596 q 647 690 701 673 m 830 58 q 847 98 830 81 q 888 115 864 115 q 910 111 899 115 q 928 99 920 106 q 940 80 936 91 q 945 58 945 70 q 940 35 945 45 q 928 17 936 24 q 910 4 920 9 q 888 0 899 0 q 847 17 864 0 q 830 58 830 34 m 952 186 q 965 218 952 205 q 997 231 978 231 q 1028 218 1015 231 q 1042 186 1042 205 q 1028 154 1042 167 q 997 141 1015 141 q 965 154 978 141 q 952 186 952 167 m 956 352 q 963 371 956 363 q 982 378 971 378 q 1001 371 994 378 q 1009 352 1009 363 q 1001 333 1009 340 q 982 326 994 326 q 963 333 971 326 q 956 352 956 340 m 977 699 q 983 713 977 707 q 997 719 989 719 q 1011 713 1005 719 q 1017 699 1017 707 q 1011 686 1017 692 q 997 680 1005 680 q 983 686 989 680 q 977 699 977 692 z "},"@":{"ha":1158,"x_min":78,"x_max":1071,"o":"m 94 664 q 78 674 78 669 q 94 685 78 680 l 239 723 q 271 742 256 727 q 289 772 286 756 l 327 919 q 337 935 332 935 q 347 919 343 935 l 386 772 q 404 742 390 756 q 435 723 418 727 l 581 685 q 597 674 597 680 q 581 664 597 669 l 435 626 q 404 607 418 621 q 386 576 390 593 l 368 510 q 344 479 355 495 q 322 446 332 464 l 289 576 q 271 607 286 593 q 239 626 256 621 l 94 664 m 294 252 q 290 230 294 252 q 293 171 287 208 q 322 110 299 134 q 393 85 346 85 q 448 103 418 85 q 505 158 477 121 l 513 166 q 513 162 513 165 q 512 159 513 160 q 516 133 512 146 q 527 110 519 120 q 545 93 534 99 q 569 86 555 86 q 641 116 602 86 q 737 209 681 146 q 787 273 768 243 q 790 281 788 278 q 791 287 791 284 q 783 298 791 298 q 776 296 779 298 q 770 291 774 295 q 751 268 763 283 q 719 233 739 252 q 623 165 652 165 l 618 166 q 604 176 607 168 q 601 194 601 184 q 604 217 601 206 q 610 239 607 228 q 669 387 635 315 q 734 532 703 459 q 770 611 751 572 q 802 690 788 649 q 811 720 808 704 q 815 751 815 736 q 801 791 815 777 q 765 811 786 806 l 761 812 q 756 806 756 812 q 753 782 757 800 q 747 758 751 770 q 739 734 743 746 q 697 628 722 678 q 648 528 672 577 l 637 509 l 637 516 q 626 542 635 530 q 606 561 618 553 q 581 572 595 568 q 552 576 566 576 q 514 571 532 576 q 479 555 496 565 q 447 533 463 546 q 418 507 431 521 q 355 427 382 472 q 313 338 328 382 q 294 252 300 296 m 386 220 q 395 288 387 254 q 417 354 403 321 q 450 417 431 387 q 491 473 469 447 q 505 490 498 481 q 521 505 513 498 q 538 516 529 511 q 559 520 548 520 q 597 475 598 520 q 590 416 597 445 q 573 360 584 388 q 549 305 563 332 q 520 253 535 278 q 488 208 507 228 q 454 174 470 188 q 423 161 439 161 q 395 177 406 161 q 386 220 385 194 m 481 833 q 475 837 475 834 q 481 840 475 839 l 535 855 q 547 862 541 857 q 555 873 552 867 l 568 928 q 572 935 570 935 q 576 928 574 935 l 591 873 q 597 862 591 867 q 608 855 603 857 l 663 840 q 669 837 669 839 q 663 833 669 834 l 608 818 q 597 811 603 817 q 591 800 591 806 l 576 745 q 572 739 574 739 q 568 745 570 739 l 555 800 q 547 811 552 806 q 535 818 541 817 l 481 833 m 772 372 q 763 378 763 374 q 772 384 763 381 l 859 407 q 877 417 869 408 q 888 435 886 426 l 911 522 q 917 532 913 532 q 923 522 920 532 l 945 435 q 957 417 948 426 q 975 407 965 408 l 1061 384 q 1071 378 1071 381 q 1061 372 1071 374 l 975 349 q 957 338 965 347 q 945 320 948 330 l 923 233 q 917 223 920 223 q 911 233 913 223 l 888 320 q 877 338 886 330 q 859 349 869 347 l 772 372 z "},"A":{"ha":1156,"x_min":144,"x_max":1013,"o":"m 144 114 q 233 139 195 125 q 299 175 270 153 q 352 229 328 197 q 400 306 376 260 q 400 315 400 311 q 399 323 400 319 q 406 413 399 368 q 421 489 410 452 q 448 556 431 525 q 487 613 465 588 q 538 653 509 637 q 558 646 547 650 q 581 636 570 642 l 629 614 l 672 594 q 689 586 682 589 q 701 582 696 583 q 709 560 699 571 q 751 542 720 549 q 784 537 764 539 q 826 538 803 535 q 877 552 850 541 q 932 586 904 563 q 948 563 941 574 q 963 540 956 551 l 989 498 l 1013 460 q 969 427 991 442 q 922 400 947 412 q 878 381 901 389 q 825 368 854 374 q 777 363 804 363 q 707 372 742 363 q 707 359 707 365 q 706 348 707 353 l 704 319 q 788 274 746 300 q 868 214 830 247 q 936 144 905 182 q 983 66 966 107 l 945 39 l 917 17 l 886 -7 l 842 -41 q 724 106 789 53 q 571 180 659 160 q 512 118 546 150 q 434 56 477 85 q 337 1 391 26 q 220 -40 283 -24 q 206 -15 212 -26 q 195 7 199 -3 l 176 43 q 161 76 168 60 q 144 114 154 93 m 570 823 q 582 879 570 853 q 615 925 594 905 q 664 956 636 945 q 724 968 692 968 q 784 956 755 968 q 834 925 812 945 q 868 879 855 905 q 880 823 880 853 q 868 768 880 793 q 834 723 855 742 q 784 692 812 703 q 724 681 755 681 q 664 692 692 681 q 615 723 636 703 q 582 768 594 742 q 570 823 570 793 z "},"B":{"ha":1156,"x_min":35,"x_max":1121,"o":"m 35 79 l 114 153 l 114 268 l 368 33 l 243 33 l 164 -40 l 35 79 m 100 467 l 100 647 q 278 624 192 647 q 439 561 363 602 q 576 462 514 519 q 682 335 637 405 q 751 185 726 265 q 775 20 775 106 l 579 20 q 544 191 579 109 q 440 338 509 273 q 284 434 372 401 q 100 467 197 467 m 100 787 l 100 970 q 370 936 239 970 q 613 839 500 901 q 820 690 726 777 q 980 497 913 603 q 1084 271 1047 391 q 1121 20 1121 150 l 926 20 q 897 223 926 125 q 812 406 867 321 q 683 561 758 491 q 515 682 607 631 q 318 760 423 732 q 100 787 213 787 z "},"C":{"ha":1156,"x_min":113,"x_max":1043,"o":"m 113 805 q 130 829 113 825 q 150 831 138 831 q 173 831 162 830 q 192 838 184 833 q 201 859 199 844 q 200 892 204 878 q 196 919 197 907 q 201 942 195 931 q 231 962 208 952 q 254 968 243 968 q 264 966 260 968 q 284 945 277 961 q 294 905 292 929 q 294 891 294 898 q 295 877 294 884 q 295 867 295 872 q 294 857 295 863 q 350 863 323 863 q 394 859 372 863 q 470 835 433 852 q 539 794 506 818 q 600 743 572 770 q 651 688 628 715 q 691 637 674 661 q 720 597 709 614 q 750 603 735 601 q 779 604 766 604 q 882 585 834 604 q 966 532 930 566 q 1022 454 1002 498 q 1043 359 1043 410 q 1022 265 1043 309 q 966 188 1002 221 q 882 135 930 154 q 779 115 834 115 l 774 115 q 669 3 740 47 q 511 -40 598 -40 q 398 -19 451 -40 q 307 38 346 2 q 245 123 268 75 q 222 228 222 172 q 237 313 222 273 q 277 386 251 353 q 339 443 303 418 q 418 482 375 468 q 418 489 418 486 q 418 496 418 493 q 408 606 418 557 q 375 701 396 661 q 326 760 354 741 q 273 778 300 778 l 265 778 q 233 776 248 777 q 203 774 218 775 l 193 774 q 154 777 171 774 q 122 787 133 779 q 113 805 113 794 m 283 228 q 301 145 283 184 q 350 79 319 107 q 423 34 381 50 q 511 17 465 17 q 572 25 543 17 q 627 47 602 33 q 673 81 652 61 q 708 125 694 100 l 707 125 q 719 147 713 136 q 728 170 724 158 l 729 170 q 737 228 737 196 q 693 353 737 298 q 582 428 649 407 l 582 427 q 558 432 570 430 q 530 436 545 435 l 530 437 q 511 439 524 439 q 423 422 465 439 q 350 377 381 406 q 301 310 319 348 q 283 228 283 271 m 334 817 q 389 764 366 793 q 430 703 413 734 q 456 638 446 671 q 473 578 467 606 q 481 529 479 551 q 485 496 484 507 l 511 496 q 559 492 535 496 q 679 585 604 554 q 600 685 638 644 q 525 754 561 727 q 457 795 490 781 q 397 814 425 810 q 352 818 372 817 q 342 818 347 818 q 334 817 338 817 m 393 310 q 408 342 393 330 q 443 355 422 355 q 478 342 464 355 q 493 310 493 330 q 478 276 493 290 q 443 262 464 262 q 408 276 422 262 q 393 310 393 290 m 612 479 q 748 382 697 450 q 800 228 800 315 q 791 164 800 193 q 869 182 833 166 q 932 224 905 198 q 976 285 960 250 q 991 359 991 319 q 975 436 991 400 q 929 498 958 471 q 861 540 900 525 q 779 555 823 555 q 685 535 728 555 q 612 479 642 514 z "},"D":{"ha":1156,"x_min":35,"x_max":1121,"o":"m 35 348 l 35 365 q 46 434 36 398 q 81 505 57 470 q 146 570 106 539 q 249 625 187 601 l 184 745 l 340 762 l 393 663 q 401 665 397 663 q 498 677 452 673 q 587 682 545 682 l 598 682 q 672 680 637 682 q 741 673 708 677 q 866 646 810 663 q 962 608 921 629 q 1121 486 1061 559 l 623 351 l 507 570 q 569 576 541 576 q 575 576 572 576 l 588 576 q 625 573 607 575 q 661 569 644 572 l 710 484 l 879 526 q 815 558 848 543 q 746 585 783 574 q 679 602 715 595 q 602 612 643 609 q 562 614 582 614 q 428 595 497 614 l 566 336 l 66 201 q 35 348 34 278 m 193 397 q 201 355 193 374 l 368 397 l 293 540 q 249 508 267 524 q 219 476 231 492 q 202 445 208 460 q 195 416 197 430 q 193 397 193 406 z "},"E":{"ha":1156,"x_min":125,"x_max":1029,"o":"m 125 340 l 211 304 q 196 414 196 359 q 196 429 196 421 q 197 444 197 437 q 206 505 199 473 q 230 568 214 537 q 271 626 245 598 q 335 677 297 654 q 348 698 342 687 q 358 722 353 709 q 371 770 366 742 q 372 793 373 783 q 370 825 372 810 l 467 778 q 538 833 507 804 q 589 895 566 860 q 614 970 611 929 q 669 932 642 954 q 725 880 696 909 q 777 823 749 856 q 831 749 804 791 q 887 655 859 707 q 942 541 916 604 q 975 561 960 548 q 1001 587 989 572 q 1019 623 1013 602 q 1029 479 1029 547 q 1008 294 1029 378 q 982 213 998 254 q 941 136 965 173 q 883 67 916 99 q 805 13 849 36 q 705 -24 761 -11 q 579 -37 649 -37 l 538 -39 q 376 -9 452 -39 q 297 33 336 6 q 223 100 257 59 q 163 201 189 142 q 125 340 138 260 m 294 353 q 307 241 294 294 q 333 169 315 205 q 381 105 351 134 q 457 60 412 77 q 564 43 502 43 q 576 42 570 42 q 581 41 578 42 q 590 42 585 41 q 686 60 641 42 q 734 85 710 69 q 779 125 758 100 q 815 185 800 150 q 838 269 831 220 l 786 249 q 795 313 795 283 q 795 323 795 318 q 794 334 795 328 q 788 371 793 352 q 773 407 783 389 q 749 441 764 425 q 711 472 734 458 q 697 500 703 484 q 689 528 692 512 q 690 561 686 543 l 632 532 q 609 548 619 539 q 589 566 598 556 q 559 603 572 581 q 543 648 546 624 q 511 625 528 639 q 476 595 494 612 q 413 516 447 566 q 347 390 380 466 q 338 396 342 393 q 328 403 333 399 q 311 418 319 410 q 300 439 302 427 q 294 353 294 393 z "},"F":{"ha":1156,"x_min":325,"x_max":832,"o":"m 325 465 l 325 636 l 435 636 l 435 775 q 435 790 435 780 q 437 816 436 800 q 461 881 441 848 q 529 943 482 916 q 665 970 576 970 l 832 970 l 832 793 l 710 793 q 676 779 691 793 q 661 753 661 766 l 661 636 l 832 636 l 826 572 l 819 517 l 811 465 l 660 465 l 660 -39 l 435 -39 l 435 465 l 325 465 z "},"G":{"ha":1156,"x_min":281,"x_max":873,"o":"m 281 152 q 288 203 281 178 q 334 284 299 248 q 425 325 368 319 q 388 360 401 334 q 374 421 374 388 q 384 482 374 454 q 416 522 394 511 q 328 606 358 557 q 292 707 297 654 q 291 719 291 713 q 290 732 290 725 q 304 810 290 772 q 362 899 323 861 q 464 957 402 937 q 553 970 503 970 q 578 969 566 970 q 604 966 591 968 q 663 956 631 964 q 729 943 694 947 q 748 941 739 941 q 767 940 758 940 q 801 942 783 940 q 873 966 838 946 l 873 815 q 842 808 857 812 q 808 802 827 804 q 821 731 821 769 q 821 725 821 728 q 821 718 821 722 q 808 656 819 688 q 780 598 798 625 q 739 548 763 570 q 686 514 715 526 q 640 502 665 506 q 593 491 615 497 q 556 473 571 484 q 539 439 541 461 q 548 409 538 422 q 576 386 558 396 q 617 367 593 375 q 666 351 640 358 l 734 332 q 793 312 766 322 q 833 288 821 301 q 863 231 854 264 q 869 176 869 205 q 869 169 869 172 q 869 161 869 165 q 853 90 867 125 q 817 32 840 56 q 774 2 800 15 q 716 -20 748 -12 q 649 -34 685 -29 q 576 -39 613 -39 l 567 -39 q 522 -38 544 -39 q 478 -33 500 -36 q 391 -9 431 -25 q 326 32 351 7 q 286 110 295 63 q 283 131 284 121 q 281 152 282 141 m 441 176 q 450 138 441 158 q 478 106 457 118 q 529 90 500 94 q 548 87 538 88 q 559 87 553 87 q 568 87 564 87 q 579 87 573 87 q 590 87 585 87 q 648 101 623 90 q 690 129 673 111 q 703 167 703 144 q 703 175 703 172 q 683 217 700 201 q 639 239 665 233 q 597 244 621 244 q 589 244 593 244 q 582 243 585 244 q 522 235 550 241 q 452 203 471 222 q 441 176 441 193 m 458 732 q 482 650 458 696 q 517 633 496 638 q 559 628 537 628 q 602 634 581 628 q 637 650 623 640 q 661 728 661 693 q 660 736 661 732 q 659 745 660 741 q 624 803 652 783 q 559 825 596 823 l 555 825 q 496 808 522 825 q 460 749 468 788 q 458 732 458 740 z "},"H":{"ha":1156,"x_min":138,"x_max":1018,"o":"m 138 812 l 138 831 q 196 874 157 863 q 285 895 235 886 l 351 905 q 373 907 362 906 q 393 908 384 908 q 402 908 398 908 q 410 907 406 908 q 458 893 437 905 q 489 856 479 882 q 494 830 493 845 q 489 804 496 815 q 470 791 483 795 q 443 784 457 787 q 416 777 429 781 q 399 765 404 773 q 395 739 395 758 l 395 700 q 394 671 395 685 q 393 644 394 658 l 390 593 l 388 542 l 388 531 q 390 485 388 509 q 391 472 390 481 q 393 455 392 464 q 397 440 395 447 q 403 432 399 433 q 415 429 408 429 q 428 431 422 429 q 441 435 435 433 q 452 437 448 437 l 511 450 q 565 460 538 456 q 620 469 591 465 l 685 476 q 694 477 689 477 q 707 479 700 478 l 736 480 q 764 483 751 481 q 781 489 777 485 q 791 514 791 497 q 788 546 791 530 l 785 564 q 781 607 782 587 q 779 647 779 627 q 781 686 779 666 q 785 728 782 705 q 787 747 786 736 q 789 770 789 758 q 789 791 790 781 q 783 804 787 800 q 759 812 776 811 q 734 817 741 813 q 709 829 722 821 q 688 849 697 838 q 675 876 679 861 q 675 907 671 890 q 689 922 677 915 q 713 935 701 929 q 792 959 750 953 q 879 974 834 966 l 954 974 q 975 963 964 974 q 995 936 986 951 q 1009 904 1004 921 q 1010 876 1014 887 q 997 864 1007 869 q 974 853 986 858 q 950 843 962 848 q 935 833 939 838 q 924 806 926 824 q 920 766 921 787 q 920 744 920 755 q 920 721 920 732 q 921 698 921 709 q 921 677 921 687 l 921 261 l 921 240 l 921 216 q 922 195 921 204 q 926 183 924 186 q 948 179 932 178 q 974 178 966 180 q 994 165 983 175 q 1010 143 1004 155 q 1018 115 1018 129 q 1011 90 1018 101 q 1004 84 1009 87 q 991 79 998 81 q 976 73 984 76 q 961 66 968 71 q 878 40 930 54 q 798 30 836 30 q 789 30 793 30 q 781 31 785 30 q 752 40 768 32 q 723 61 736 49 q 701 89 709 74 q 696 117 693 103 q 706 134 697 127 q 730 147 715 140 q 742 149 735 149 q 758 151 749 150 q 783 158 776 152 q 789 175 789 163 q 789 200 790 186 q 786 228 788 214 q 785 254 785 243 q 785 279 785 268 q 785 307 786 290 q 785 321 785 313 q 785 336 785 329 q 785 349 785 343 q 783 357 785 355 q 764 362 779 361 q 732 361 749 362 q 699 358 715 360 q 675 357 682 357 l 620 349 q 585 344 602 347 q 551 338 568 341 q 518 330 535 334 q 482 319 501 326 l 439 308 q 401 288 410 300 q 396 272 397 282 q 395 250 395 262 q 396 224 395 237 q 398 198 397 210 l 401 170 q 402 157 402 164 q 400 142 401 151 q 403 118 397 125 q 415 112 407 114 q 431 110 422 110 l 446 110 q 458 109 452 110 q 492 83 474 103 q 507 47 507 66 q 481 7 507 22 q 440 -10 464 -3 q 391 -23 416 -18 q 341 -31 366 -28 q 297 -35 316 -34 q 280 -36 287 -35 q 268 -36 273 -36 q 257 -35 262 -36 q 244 -33 251 -35 q 201 -4 222 -26 q 182 34 182 15 q 203 65 182 54 l 240 82 q 255 85 247 85 q 267 90 264 86 q 271 122 273 97 q 269 146 270 135 q 267 167 268 157 q 258 288 260 224 q 254 410 256 351 q 254 443 254 427 q 253 474 254 459 l 250 533 q 248 593 249 562 q 248 660 248 623 l 248 682 l 248 706 q 247 727 248 718 q 243 739 245 736 q 233 744 239 743 q 220 747 227 746 q 206 750 213 749 q 193 754 199 751 q 160 775 172 761 q 138 812 149 789 z "},"I":{"ha":1156,"x_min":35,"x_max":1122,"o":"m 35 560 q 47 612 35 586 q 139 705 73 671 q 231 726 183 726 q 273 722 252 726 l 311 711 l 300 725 q 273 813 273 769 q 277 846 273 829 q 336 933 289 906 q 395 946 363 946 q 428 943 412 946 q 524 876 486 928 l 541 850 l 547 840 l 551 850 l 551 852 q 578 909 551 884 q 637 950 606 935 q 723 970 680 970 q 772 964 747 970 q 876 896 843 946 l 882 889 q 906 810 906 851 q 897 758 906 784 l 879 722 l 930 732 q 967 732 949 733 q 1002 729 985 732 q 1057 708 1033 722 q 1082 672 1082 695 l 1082 669 q 1091 631 1082 651 q 1096 607 1097 618 q 1093 587 1096 596 q 997 497 1067 528 q 1023 486 1009 492 q 1048 473 1038 481 q 1072 452 1061 465 l 1092 428 l 1100 416 q 1121 355 1118 387 q 1122 348 1122 351 q 1122 341 1122 345 q 1114 292 1122 317 q 1029 193 1091 224 q 954 175 994 175 q 893 184 926 175 q 843 205 867 189 q 848 154 848 178 q 843 107 848 130 q 787 39 828 60 q 734 24 764 24 q 697 29 718 24 q 653 48 673 35 q 608 86 632 62 l 607 78 q 521 -21 585 10 q 487 -33 504 -28 q 453 -38 471 -37 q 446 -39 450 -39 q 439 -39 442 -39 q 382 -32 410 -39 q 313 0 336 -20 l 294 22 q 277 43 285 31 q 255 119 256 79 q 264 170 255 145 l 272 189 l 300 231 q 243 222 271 223 l 238 222 q 214 223 227 222 q 191 227 202 224 q 165 233 177 228 q 143 245 153 239 q 127 258 134 250 l 115 273 q 100 323 100 296 q 104 349 100 335 q 121 381 111 366 q 147 410 131 396 l 171 428 l 160 431 q 89 461 118 435 q 70 478 79 468 q 53 498 60 488 q 35 560 35 530 m 102 561 q 113 528 104 543 q 172 490 132 495 l 187 488 l 412 513 q 437 555 417 534 l 300 647 l 257 663 q 243 665 250 664 q 229 665 236 666 q 171 652 200 665 q 133 627 147 644 q 110 591 118 611 q 105 576 106 584 q 102 561 103 568 m 321 121 q 335 72 321 95 q 401 25 354 37 q 432 21 416 21 q 489 35 460 21 q 525 58 510 43 q 547 93 539 74 l 551 107 l 551 164 q 544 244 551 205 q 533 319 536 283 q 482 335 504 323 l 351 193 q 328 153 332 176 l 321 121 m 342 829 q 341 815 341 822 q 344 792 341 803 q 358 754 349 774 l 367 739 l 505 602 l 529 608 l 497 777 q 490 800 494 789 q 479 822 486 811 q 408 884 452 873 q 390 888 398 888 q 374 882 380 888 q 342 829 345 867 m 464 458 q 494 392 464 419 q 568 364 526 364 q 640 392 608 364 q 671 458 671 418 q 640 526 671 496 q 568 551 611 551 q 494 526 526 551 q 471 494 479 511 q 464 458 464 478 m 604 319 l 628 196 l 646 149 q 717 86 673 95 q 723 85 720 85 q 729 85 726 85 l 735 85 q 753 92 743 86 q 783 143 779 102 q 784 149 784 146 q 784 155 784 151 q 765 216 784 185 l 757 231 l 717 277 l 652 338 l 631 328 l 604 319 m 607 819 l 608 762 l 624 602 q 647 590 636 596 q 669 576 659 585 l 810 733 q 816 743 813 738 q 822 754 819 749 l 833 777 l 838 807 q 825 857 838 836 q 755 904 804 893 q 720 909 736 909 q 667 897 692 909 q 630 870 646 886 q 608 833 615 854 l 607 819 m 705 387 l 869 264 q 911 241 887 246 q 948 235 930 235 q 999 249 974 235 q 1051 310 1042 267 l 1057 338 q 1034 399 1057 375 q 1008 425 1024 416 q 975 440 993 435 l 960 441 l 897 440 l 721 427 l 717 410 l 705 387 m 710 528 l 713 524 l 717 513 l 908 534 q 935 539 922 537 q 960 547 949 542 q 1034 608 1016 570 l 1036 623 l 1029 642 q 975 672 1017 668 l 957 673 q 893 661 924 673 l 873 654 l 717 534 l 710 528 z "},"J":{"ha":1156,"x_min":103,"x_max":1055,"o":"m 103 764 q 107 796 103 783 q 128 866 113 837 q 166 916 144 896 q 214 949 188 937 q 265 966 239 961 q 323 971 298 970 q 329 971 326 971 q 369 968 351 971 q 406 961 389 966 q 437 949 422 956 q 501 904 475 930 q 548 841 526 877 l 581 787 q 637 884 606 842 q 713 946 668 925 q 747 959 730 954 q 782 967 764 964 q 814 971 796 970 q 854 972 833 972 l 875 972 q 967 933 926 959 q 1032 860 1008 907 q 1055 772 1055 820 q 1055 765 1055 768 q 1055 759 1055 762 q 1037 675 1053 718 q 995 587 1021 631 q 934 497 969 542 q 860 410 899 452 q 763 293 808 353 q 681 176 718 234 q 618 63 644 118 q 582 -37 593 9 q 579 -31 581 -35 q 574 -21 577 -27 l 564 6 l 553 33 l 547 49 q 526 93 536 74 q 500 137 515 113 l 462 195 l 401 283 q 366 332 386 306 q 322 386 346 357 l 274 443 l 228 500 q 190 552 205 528 q 161 595 175 576 q 109 711 119 656 q 103 764 103 743 z "},"K":{"ha":1156,"x_min":83,"x_max":1074,"o":"m 83 275 l 380 275 l 380 513 l 380 522 q 369 576 380 551 q 337 620 357 602 q 290 649 317 639 q 232 660 262 660 q 174 649 201 660 q 127 620 147 639 q 95 576 107 602 q 83 522 83 551 q 84 517 83 519 q 85 513 85 515 l 83 513 l 83 275 m 123 779 q 155 707 123 738 q 232 677 187 677 q 310 707 278 677 q 342 779 342 737 q 310 850 342 821 q 232 880 278 880 q 155 850 187 880 q 123 779 123 821 m 315 171 l 677 171 l 677 463 l 676 463 q 677 473 677 467 q 663 539 677 508 q 624 592 649 570 q 566 628 600 615 q 496 642 533 642 q 426 628 458 642 q 368 592 393 615 q 330 539 344 570 q 315 473 315 509 l 315 463 l 315 171 m 364 787 q 402 700 364 736 q 496 664 440 664 q 590 700 551 664 q 629 787 629 735 q 590 875 629 840 q 496 911 551 911 q 402 875 440 911 q 364 787 364 839 m 579 -37 l 1074 -37 l 1074 359 l 1072 359 q 1073 367 1073 363 q 1074 375 1074 370 q 1054 465 1074 423 q 1001 538 1035 507 q 923 587 968 569 q 827 604 878 604 q 730 587 775 604 q 651 538 685 569 q 598 465 618 507 q 579 375 579 423 l 579 359 l 579 -37 m 644 804 q 659 869 644 839 q 697 923 673 900 q 755 959 722 946 q 827 972 789 972 q 897 959 864 972 q 954 923 930 946 q 993 869 979 900 q 1007 804 1007 839 q 993 738 1007 769 q 954 684 979 707 q 897 648 930 661 q 827 635 864 635 q 756 648 789 635 q 698 684 723 661 q 659 738 673 707 q 644 804 644 769 z "},"L":{"ha":1156,"x_min":35,"x_max":1121,"o":"m 35 463 q 60 581 35 526 q 130 677 85 636 q 233 742 174 718 q 358 766 292 766 q 538 718 460 766 q 659 578 616 669 q 670 553 659 575 l 695 498 l 728 427 l 764 349 q 786 306 774 325 q 812 273 797 286 q 847 251 827 259 q 899 242 868 243 l 909 242 q 996 269 963 242 q 1034 342 1032 298 q 1026 377 1034 363 q 1004 401 1018 391 q 969 418 989 411 q 922 434 948 426 q 778 500 826 464 q 729 606 729 537 q 741 669 729 641 q 775 717 753 697 q 831 748 798 737 q 904 759 863 759 q 1061 671 1008 759 l 991 638 q 950 675 972 665 q 900 686 928 686 q 838 664 863 686 q 814 609 814 642 q 820 579 814 591 q 837 557 826 566 q 864 542 848 548 q 899 529 880 535 l 957 512 q 1030 485 999 500 q 1081 450 1061 470 q 1111 404 1101 430 q 1121 341 1121 377 q 1104 270 1121 302 q 1059 213 1088 237 q 990 177 1029 190 q 904 163 950 163 q 770 201 819 163 q 689 307 720 239 l 677 331 l 574 552 q 490 646 548 611 q 358 683 431 683 q 268 666 310 683 q 193 618 225 648 q 142 548 161 588 q 123 463 123 508 q 142 377 123 418 q 193 307 161 337 q 268 260 225 277 q 358 242 311 242 q 424 251 393 242 q 483 275 456 259 q 531 312 509 290 q 567 360 553 334 l 610 270 q 500 190 565 219 q 358 161 435 161 q 233 184 292 161 q 130 249 174 208 q 60 345 85 290 q 35 463 35 400 z "},"M":{"ha":1156,"x_min":35,"x_max":1122,"o":"m 35 197 l 35 730 q 46 756 35 745 q 74 766 57 766 l 1083 766 q 1111 756 1099 766 q 1122 730 1122 745 l 1122 197 q 1111 171 1122 181 q 1083 161 1099 161 l 74 161 q 46 171 57 161 q 35 197 35 181 m 127 461 q 139 401 128 431 q 146 399 143 399 q 166 403 157 399 q 182 409 176 406 q 179 441 182 429 q 180 459 176 448 q 193 442 187 451 q 205 425 199 433 q 212 413 208 418 q 220 402 216 408 l 227 402 q 243 404 236 402 q 251 404 247 404 q 261 405 256 405 l 264 404 q 271 430 271 414 q 272 462 272 445 q 274 489 272 475 q 282 515 275 503 q 300 451 290 482 q 323 387 310 419 q 345 393 338 390 q 357 395 352 395 q 361 393 358 395 q 347 436 353 414 q 338 483 342 459 q 323 541 331 512 q 304 593 315 569 q 301 592 303 593 q 298 591 300 591 q 291 590 294 591 q 285 589 288 589 q 277 588 281 591 q 269 585 273 585 l 268 585 q 267 588 267 585 q 265 591 267 591 q 239 539 247 567 q 222 479 231 511 q 214 494 218 486 q 205 509 210 502 q 190 537 199 523 q 174 562 182 551 l 165 562 q 146 560 155 562 q 129 556 138 559 l 127 528 q 127 494 127 511 q 127 461 127 477 m 370 444 q 375 410 370 426 q 406 377 382 385 q 431 374 412 374 q 461 377 446 374 q 486 384 475 380 q 471 393 482 391 q 453 389 463 393 q 435 387 443 387 l 431 387 q 414 398 421 388 q 408 420 408 407 q 409 431 408 426 q 411 444 410 437 q 429 441 418 441 l 450 441 l 453 441 q 458 440 456 441 q 463 439 460 439 q 467 471 467 454 q 467 477 467 474 q 466 484 467 480 q 460 523 464 507 l 447 527 q 427 531 439 531 l 421 531 q 402 523 411 530 q 387 507 393 517 q 376 484 380 496 q 371 458 372 471 q 370 451 370 454 q 370 444 370 448 m 408 460 l 414 460 q 418 459 416 460 q 421 458 419 459 q 425 458 422 458 l 429 459 q 427 499 433 477 q 410 462 410 481 l 408 460 m 484 419 q 492 401 486 409 q 509 389 499 394 q 530 381 519 384 q 554 378 542 378 q 596 391 581 380 q 582 402 595 397 q 554 388 574 389 q 522 404 534 388 q 519 435 511 416 q 534 433 526 434 q 549 433 542 433 q 559 433 554 433 q 568 434 564 434 q 568 461 567 450 q 572 484 570 473 q 576 504 575 494 q 578 526 576 515 q 536 541 560 538 q 484 423 484 502 q 484 419 484 421 m 521 452 q 532 486 524 473 q 538 499 534 490 l 539 505 l 541 499 q 543 474 543 488 q 538 450 542 459 l 532 450 q 521 452 524 450 m 589 465 q 606 460 595 460 q 628 459 616 459 l 636 456 q 637 440 637 448 q 639 422 637 431 q 641 397 640 410 q 642 370 642 384 l 653 370 q 662 371 657 370 q 672 372 667 372 q 671 392 672 382 q 671 410 671 401 q 670 434 671 422 q 671 460 670 447 q 693 463 681 463 q 725 469 715 463 q 713 480 717 473 q 700 491 706 487 q 686 498 694 495 q 684 491 684 498 q 683 485 684 488 q 676 481 682 481 l 672 481 l 672 483 q 673 511 673 496 q 671 543 672 526 q 668 589 668 566 q 672 631 668 612 q 657 642 667 638 q 632 645 648 645 l 631 645 q 629 647 629 645 q 627 651 628 649 q 620 610 620 633 l 620 599 q 623 571 621 585 q 627 543 624 557 q 631 510 629 526 q 629 480 632 495 l 615 480 q 604 481 610 481 q 591 477 596 481 q 589 465 589 473 m 735 486 q 735 480 735 483 q 736 467 735 474 q 755 391 736 411 q 783 380 766 380 q 810 385 795 380 l 812 389 l 822 401 q 833 412 825 406 q 840 423 834 416 q 855 451 848 437 q 859 488 861 466 l 844 500 q 827 507 837 505 l 823 507 q 821 505 822 507 q 819 505 821 503 l 819 492 q 818 466 819 480 q 813 438 817 452 q 802 415 810 425 q 782 401 795 405 q 778 463 778 431 q 777 471 777 467 q 777 479 777 475 l 777 491 q 766 495 771 494 q 737 507 753 505 q 735 486 735 496 m 871 402 q 885 371 882 390 q 892 333 889 352 q 896 303 895 317 q 903 277 897 288 q 909 277 905 277 q 918 276 913 276 l 928 276 q 937 276 933 276 q 943 275 941 275 q 931 351 931 302 q 931 365 931 358 q 932 380 931 372 q 990 406 964 387 q 1029 451 1015 425 q 1040 492 1037 467 q 1041 499 1041 494 q 1028 545 1041 522 q 979 560 1001 560 q 977 560 978 560 q 926 537 949 560 q 909 509 916 526 q 898 473 902 492 q 891 437 894 455 q 888 408 889 420 q 884 406 885 408 l 871 402 m 933 417 q 968 437 953 422 q 990 470 983 452 q 996 497 994 481 q 996 500 996 499 q 986 531 996 515 l 985 532 l 983 531 q 963 508 971 521 q 949 479 955 494 q 940 449 943 465 q 933 417 936 433 z "},"N":{"ha":1156,"x_min":293,"x_max":864,"o":"m 293 323 q 315 374 293 352 q 370 395 337 395 q 424 374 402 395 q 447 323 447 353 q 446 317 447 321 q 446 311 446 314 l 541 248 l 541 460 l 408 550 q 370 541 393 541 q 315 561 338 541 q 293 611 293 582 q 299 640 293 626 q 315 663 305 653 q 339 678 326 672 q 370 684 353 684 q 424 663 402 684 q 447 611 447 642 q 446 606 447 608 q 446 600 446 603 l 541 534 l 541 734 l 407 825 q 370 815 388 817 q 339 821 353 815 q 315 836 326 827 q 299 859 305 846 q 293 888 293 872 q 315 937 293 917 q 370 958 337 958 q 424 937 402 958 q 447 888 447 917 q 446 881 447 885 q 446 873 446 876 l 541 810 l 541 970 l 615 970 l 615 667 l 711 730 q 710 742 710 736 q 732 791 710 771 q 787 812 755 812 q 842 791 820 812 q 864 742 864 771 q 858 713 864 726 q 842 690 852 700 q 818 675 831 681 q 787 669 804 669 q 747 681 765 669 l 615 591 l 615 393 l 711 457 q 710 465 710 461 q 732 517 710 495 q 787 538 755 538 q 818 532 804 538 q 842 517 831 526 q 858 494 852 507 q 864 465 864 480 q 842 415 864 436 q 787 395 819 395 q 746 406 765 395 l 615 317 l 615 106 l 711 170 q 710 178 710 174 q 732 228 710 206 q 787 249 755 249 q 842 228 820 249 q 864 178 864 206 q 858 149 864 162 q 842 126 852 136 q 818 111 831 117 q 787 106 804 106 q 746 117 763 106 l 615 29 l 615 -40 l 612 -40 l 547 -40 l 541 -40 l 541 172 l 408 261 q 370 252 388 252 q 315 273 337 252 q 293 323 293 294 z "},"O":{"ha":1156,"x_min":35,"x_max":1121,"o":"m 35 374 q 41 421 35 397 q 127 557 60 494 q 299 662 195 620 q 532 715 403 705 l 532 875 l 697 974 l 697 711 q 854 678 775 702 q 1015 611 934 654 l 1121 677 l 1121 492 l 815 492 l 908 546 q 799 585 852 570 q 697 608 746 600 l 697 151 l 532 53 q 353 93 431 70 q 218 146 275 115 q 63 277 106 205 q 35 374 35 324 m 201 372 q 227 292 201 331 q 333 205 258 243 q 532 151 408 167 l 532 615 q 401 589 459 610 q 301 539 343 569 q 234 471 258 509 q 203 395 209 434 q 201 372 201 383 z "},"P":{"ha":1156,"x_min":49,"x_max":1106,"o":"m 49 77 l 258 975 l 734 975 q 840 957 785 975 q 932 901 893 939 q 988 806 971 864 q 997 745 997 779 q 987 669 997 711 q 934 545 970 600 q 846 452 897 490 q 731 394 795 414 q 595 374 667 374 l 396 374 l 328 77 l 49 77 m 157 -35 l 170 14 l 403 14 l 472 313 l 671 313 q 806 333 742 313 q 923 390 871 353 q 1011 483 975 428 q 1064 607 1048 538 q 1072 678 1072 646 q 1072 690 1072 684 q 1071 702 1072 696 q 1051 779 1067 743 q 1099 687 1084 743 q 1106 631 1106 663 q 1097 558 1106 596 q 1044 434 1080 489 q 956 341 1007 379 q 840 283 905 303 q 704 262 776 262 l 504 262 l 436 -35 l 157 -35 m 436 546 l 526 546 l 571 730 l 708 730 q 726 728 716 730 q 693 774 717 756 q 632 791 669 791 l 496 791 l 436 546 m 572 546 q 624 557 599 547 q 669 584 649 567 q 705 622 690 600 q 726 669 720 644 q 728 681 728 675 l 604 681 l 572 546 z "},"Q":{"ha":1156,"x_min":69,"x_max":1088,"o":"m 69 486 l 69 505 q 114 674 75 601 q 216 806 154 747 q 364 906 278 863 q 568 962 450 948 q 673 968 618 968 q 737 966 703 968 q 951 908 865 958 q 1071 761 1037 858 q 1088 652 1088 713 q 1087 633 1088 643 q 1086 614 1087 623 q 1077 531 1083 572 q 1061 450 1070 490 q 1042 369 1051 409 q 1026 288 1034 329 q 1000 129 1013 208 q 972 -40 987 50 l 829 -40 l 823 -40 q 763 -32 788 -40 q 723 -8 739 -23 q 698 26 707 6 q 687 68 690 45 q 685 101 685 84 q 687 134 685 117 q 697 202 690 169 q 711 265 704 236 q 685 248 698 257 q 660 229 673 239 q 632 210 646 219 q 602 195 618 201 q 505 171 553 175 q 450 169 477 169 q 316 185 376 169 q 177 254 233 208 q 93 366 121 300 q 69 483 69 422 q 69 486 69 484 m 404 472 q 458 400 414 425 q 485 389 471 393 q 513 381 498 384 q 532 378 523 380 q 543 378 538 378 q 551 378 547 378 q 562 378 556 378 q 572 379 567 378 q 628 390 602 382 q 671 408 654 397 q 731 478 705 431 q 766 577 756 525 q 770 623 770 600 q 764 675 770 650 q 715 746 752 723 q 690 758 705 753 q 657 765 676 762 q 612 769 631 768 q 603 769 608 769 q 595 768 599 769 q 539 756 562 766 q 498 734 517 747 q 440 666 467 712 q 404 570 414 620 q 397 521 397 545 q 404 472 397 496 z "},"R":{"ha":1156,"x_min":35,"x_max":1121,"o":"m 35 574 q 46 622 35 599 q 75 663 57 644 q 118 691 95 681 q 170 701 141 701 l 171 701 l 182 701 q 235 693 209 701 q 278 671 259 684 q 284 673 281 672 q 292 676 288 675 q 417 723 351 709 q 550 742 483 737 q 555 803 550 772 q 578 863 561 834 q 613 903 591 886 q 663 926 634 920 l 664 926 q 705 930 685 930 q 815 908 759 930 q 878 957 838 941 l 879 957 q 926 964 903 964 q 975 954 953 964 l 977 954 q 1032 913 1010 942 q 1054 849 1054 882 q 1053 835 1054 840 q 1039 792 1050 811 q 1011 760 1028 774 q 926 729 973 729 l 911 729 q 831 766 863 733 q 806 801 815 782 q 796 844 796 821 l 796 848 q 751 863 774 857 q 705 869 729 869 l 693 869 q 639 835 654 865 q 623 789 627 814 q 619 741 619 765 q 750 721 686 736 q 872 675 813 705 l 873 673 q 879 671 876 673 q 897 682 891 680 q 974 704 931 704 q 977 704 975 704 q 1013 700 993 704 l 1014 700 q 1086 657 1055 689 q 1121 583 1117 625 l 1121 576 q 1099 509 1121 539 q 1046 464 1077 479 q 1048 449 1047 457 q 1048 433 1048 441 q 994 288 1048 353 q 879 194 947 229 q 737 140 811 158 q 657 127 696 132 q 578 122 618 122 q 343 164 455 122 q 232 222 284 186 q 146 310 180 257 q 118 370 127 338 q 109 433 109 401 q 109 448 109 440 q 111 463 110 456 q 60 507 78 481 q 35 574 35 540 m 106 574 q 115 546 106 557 q 131 528 123 533 q 168 584 146 558 q 218 632 190 610 q 200 637 209 635 q 182 640 192 640 l 176 640 l 175 640 q 127 621 149 637 q 106 578 108 602 l 106 574 m 178 431 q 183 392 178 410 q 228 313 195 349 q 301 254 260 280 l 311 250 l 321 244 q 446 200 380 214 q 579 186 511 186 l 602 186 q 614 186 608 186 q 625 187 620 186 q 758 212 693 193 q 879 269 823 232 q 940 328 916 295 q 977 401 968 362 q 979 416 979 408 l 979 432 q 969 486 979 460 q 943 534 960 511 q 859 608 909 579 q 753 653 808 637 l 731 659 l 710 664 q 579 677 644 677 q 404 653 488 677 q 299 608 349 637 q 214 533 249 578 q 178 431 178 488 m 342 486 q 354 447 342 464 q 389 425 368 430 q 410 421 397 421 q 457 439 435 421 q 479 484 479 457 l 479 485 l 479 488 q 458 530 479 513 q 410 549 436 549 q 396 547 403 549 q 364 533 378 545 q 345 504 350 521 q 342 495 342 500 l 342 486 m 374 317 q 378 300 374 309 q 390 289 382 293 q 561 240 468 240 l 571 240 q 658 249 616 240 q 739 275 700 257 q 751 281 745 278 q 764 288 757 283 q 775 296 770 290 q 783 310 782 302 q 785 317 785 314 q 782 329 785 321 q 768 343 778 339 q 750 349 756 349 q 733 345 742 349 q 572 302 660 304 q 452 328 507 302 q 432 340 442 331 q 426 343 429 342 q 419 346 422 345 q 407 349 412 349 q 395 346 402 349 l 393 346 q 378 334 385 342 q 374 317 374 326 m 677 485 q 690 521 677 506 q 722 545 702 537 q 746 549 734 549 q 786 538 767 549 q 811 505 806 524 q 815 485 815 494 q 803 447 815 464 q 768 425 785 428 l 766 425 q 747 421 755 421 q 703 436 722 421 q 679 472 683 448 l 679 473 q 677 485 677 479 m 864 846 q 882 808 864 824 q 922 793 901 793 l 926 793 q 966 808 949 793 q 986 846 983 823 l 986 848 q 966 888 986 872 q 927 904 950 904 q 925 904 926 904 q 917 904 920 904 q 909 903 913 903 q 878 884 889 899 q 864 848 864 869 l 864 846 m 939 632 q 989 584 967 610 q 1026 526 1011 559 q 1043 546 1036 535 q 1051 576 1051 559 q 1044 603 1051 589 q 1032 618 1040 612 q 1015 631 1025 625 q 975 640 995 640 q 939 632 956 640 z "},"S":{"ha":1156,"x_min":35,"x_max":1121,"o":"m 35 488 q 46 539 35 515 q 76 581 57 563 q 121 609 96 599 q 176 620 147 620 q 266 591 229 620 q 315 517 304 562 l 606 427 q 655 458 627 447 q 717 470 684 470 l 760 594 l 760 601 q 774 666 760 635 q 812 720 788 696 q 870 756 837 743 q 940 769 903 769 q 1010 756 977 769 q 1068 720 1043 743 q 1107 666 1093 696 q 1121 601 1121 635 q 1087 502 1121 546 q 1000 442 1054 460 l 878 347 q 880 323 880 335 q 868 264 880 291 q 833 217 855 237 q 782 186 811 197 q 720 174 753 174 q 618 207 661 174 q 564 290 575 239 l 262 384 q 176 357 224 357 q 121 368 147 357 q 76 395 96 378 q 46 437 57 413 q 35 488 35 460 m 81 488 q 110 424 81 451 q 179 397 139 397 q 208 401 193 397 l 161 416 q 123 458 134 429 q 120 480 119 470 q 129 513 120 498 q 176 549 144 541 q 199 553 188 553 q 235 544 218 553 l 265 532 q 230 568 253 555 q 179 581 208 581 q 110 554 139 581 q 81 488 81 527 m 591 280 q 630 230 602 250 q 694 210 658 210 q 770 239 739 210 q 802 309 802 269 q 770 380 802 351 q 694 409 739 409 q 671 406 684 409 l 730 387 q 768 345 758 373 q 772 323 772 333 q 762 290 772 307 q 716 254 747 264 q 693 251 704 251 q 657 260 675 251 l 591 280 m 799 601 q 810 549 799 573 q 841 508 821 526 q 885 480 860 490 q 940 470 911 470 q 994 480 968 470 q 1039 508 1020 490 q 1069 549 1058 526 q 1080 601 1080 573 q 1069 651 1080 627 q 1039 692 1058 674 q 995 720 1020 709 q 940 730 969 730 q 885 720 911 730 q 841 692 860 709 q 810 651 821 674 q 799 601 799 627 m 839 600 q 868 665 839 638 q 939 692 897 692 q 1010 665 981 692 q 1040 600 1040 637 q 1010 534 1040 562 q 939 507 981 507 q 868 533 897 507 q 839 600 839 560 z "},"T":{"ha":1156,"x_min":235,"x_max":922,"o":"m 235 558 l 235 701 q 301 726 267 712 q 358 757 335 739 q 400 797 382 777 q 432 844 418 818 q 471 972 459 893 l 627 972 l 627 739 l 880 739 l 880 558 l 627 558 l 627 300 q 627 230 627 255 q 632 192 628 204 q 673 147 644 164 q 757 127 713 127 q 922 178 840 127 l 922 18 q 856 -8 888 3 q 796 -25 823 -18 q 672 -37 739 -37 q 638 -36 654 -37 q 609 -33 623 -35 q 582 -27 595 -31 q 554 -20 568 -24 q 456 31 496 -2 q 400 98 416 62 q 383 205 383 135 l 383 558 l 235 558 z "},"U":{"ha":1156,"x_min":35,"x_max":1121,"o":"m 35 157 l 35 479 l 335 403 l 335 486 l 328 486 q 227 505 274 486 q 145 557 180 524 q 90 634 110 590 q 69 728 69 678 q 90 821 69 777 q 146 899 111 865 q 230 951 182 932 q 332 970 277 970 q 425 954 381 970 q 503 909 469 937 q 561 844 538 882 q 590 762 583 806 l 599 762 q 628 843 606 806 q 686 909 651 881 q 765 954 720 937 q 859 970 809 970 q 961 951 913 970 q 1044 899 1008 932 q 1100 821 1080 865 q 1121 728 1121 777 q 1100 633 1121 677 q 1044 557 1080 589 q 961 505 1008 524 q 859 486 913 486 l 647 486 l 778 127 l 335 127 l 335 240 l 35 157 m 257 728 q 278 680 257 699 q 332 660 299 660 q 384 680 362 660 q 406 728 406 700 q 384 776 406 755 q 332 796 362 796 q 278 776 299 796 q 257 728 257 756 m 790 728 q 811 680 790 699 q 864 660 831 660 q 892 665 879 660 q 916 680 906 671 q 931 701 926 689 q 937 728 937 713 q 916 776 937 755 q 864 796 894 796 q 811 776 831 796 q 790 728 790 756 z "},"V":{"ha":1156,"x_min":35,"x_max":1121,"o":"m 35 831 l 265 831 l 425 428 l 583 831 l 806 831 l 542 214 l 304 214 l 35 831 m 896 724 q 929 650 896 682 q 1008 620 962 620 q 1088 650 1056 620 q 1121 724 1121 682 q 1088 798 1121 769 q 1008 828 1055 828 q 929 798 963 828 q 896 724 896 769 z "},"W":{"ha":1156,"x_min":35,"x_max":1122,"o":"m 35 947 l 35 968 l 41 970 l 182 970 l 292 970 l 301 968 l 301 949 q 295 942 301 945 q 283 940 289 940 l 250 939 q 218 920 218 935 q 225 892 218 906 q 235 866 229 880 q 248 836 241 852 l 280 764 l 316 684 l 353 603 l 443 406 l 449 404 l 558 627 l 549 646 l 542 661 q 536 675 537 669 l 461 825 q 454 842 458 836 q 448 855 452 848 q 443 865 444 861 l 424 905 q 404 932 414 926 q 378 940 395 938 q 366 947 366 941 l 366 968 l 366 971 l 555 971 l 557 968 l 557 947 q 550 940 557 941 l 541 939 q 520 933 526 937 q 514 922 514 930 q 519 902 514 914 q 533 872 524 890 l 606 722 l 685 885 q 693 903 690 896 q 695 915 695 910 q 694 922 695 920 q 690 928 692 925 q 679 935 688 930 q 653 939 671 939 l 644 940 l 639 943 q 637 949 637 945 l 637 968 l 639 971 l 819 971 l 821 968 l 821 949 q 812 940 821 941 q 793 938 801 939 q 783 935 786 937 q 766 920 776 932 q 754 900 762 913 q 737 872 746 888 l 633 675 l 633 673 q 631 668 633 671 l 757 406 l 765 403 l 962 885 q 967 907 966 897 q 960 926 967 919 q 945 935 953 932 q 921 939 937 939 l 900 940 q 890 943 894 940 q 884 945 888 945 q 880 949 880 946 l 880 968 l 897 972 l 1121 972 l 1122 968 l 1122 949 q 1114 940 1122 941 q 1048 921 1073 939 q 1017 872 1028 905 l 917 640 l 875 545 l 835 452 l 799 368 l 771 302 q 737 270 753 270 l 735 270 q 703 304 718 272 l 678 356 l 648 424 l 615 497 l 583 568 l 550 497 l 514 424 l 481 356 l 454 304 q 418 269 435 270 l 416 269 q 385 302 400 271 l 327 435 l 257 589 l 186 743 q 155 814 170 781 q 129 875 140 846 q 102 928 111 920 q 50 940 90 939 q 35 947 35 940 z "},"X":{"ha":1156,"x_min":65,"x_max":1090,"o":"m 65 268 l 304 268 l 493 557 l 351 787 l 113 787 l 253 557 l 65 268 m 460 358 l 836 972 l 1090 972 l 714 358 l 957 -37 l 703 -37 l 460 358 z "},"Y":{"ha":1156,"x_min":35,"x_max":1121,"o":"m 35 774 l 35 837 l 519 837 l 519 832 l 521 832 l 519 821 l 519 774 l 374 774 l 427 705 l 483 637 l 532 575 l 571 527 l 766 692 l 650 692 l 635 753 l 1059 753 l 1055 749 l 1057 749 l 1026 709 l 1025 709 l 1014 692 l 935 692 q 921 689 928 690 q 909 686 915 688 q 880 671 903 686 l 828 635 l 763 587 q 715 549 739 568 q 672 514 691 530 q 641 484 654 497 q 625 462 628 470 q 624 445 625 458 q 624 413 624 431 q 624 374 624 395 q 625 335 625 353 q 627 301 626 316 q 628 281 627 286 q 656 279 635 279 l 703 279 q 750 279 728 279 q 781 277 772 278 l 779 233 q 743 233 771 233 q 676 234 715 234 l 599 234 l 526 234 q 494 234 515 234 q 450 233 474 233 q 399 232 425 232 q 351 231 374 231 l 306 231 l 314 273 l 342 273 q 373 273 357 273 q 406 274 390 273 q 434 279 421 276 q 453 290 446 283 q 457 304 455 292 q 459 333 458 316 q 460 370 460 350 q 459 408 460 389 q 458 440 459 426 q 457 460 458 454 q 437 488 454 466 q 393 543 419 511 l 336 612 l 273 680 l 218 739 q 196 760 205 751 q 179 774 186 769 l 35 774 m 970 235 l 1003 233 l 1038 231 l 1048 296 l 1011 298 l 970 302 l 970 235 m 979 627 l 981 347 l 1046 340 l 1121 614 q 1107 615 1118 614 q 1082 617 1097 616 q 1051 619 1067 618 q 1019 622 1034 621 q 994 625 1004 623 q 979 627 983 626 z "},"Z":{"ha":1156,"x_min":35,"x_max":1121,"o":"m 35 519 l 35 775 l 106 775 l 106 521 l 435 521 l 435 775 l 510 775 l 575 775 l 575 903 l 575 970 l 905 970 l 908 970 l 982 970 l 982 772 l 1046 772 l 1121 772 l 1121 467 l 1059 467 l 1059 142 l 1059 74 l 585 74 l 513 74 l 513 450 l 307 450 l 307 332 l 361 332 l 361 262 l 433 262 l 433 72 l 361 72 l 180 72 l 107 72 l 107 262 l 180 262 l 180 142 l 361 142 l 361 262 l 180 262 l 180 332 l 233 332 l 233 450 l 106 450 l 106 519 l 35 519 m 106 775 l 106 842 l 180 842 l 180 775 l 106 775 m 180 842 l 180 911 l 361 911 l 361 842 l 180 842 m 361 775 l 361 842 l 435 842 l 435 775 l 361 775 m 510 521 l 586 521 l 586 452 l 586 450 l 586 142 l 755 142 l 755 332 l 821 332 l 821 142 l 985 142 l 985 519 l 1046 519 l 1046 704 l 982 704 l 982 583 l 908 583 l 905 583 l 647 583 l 575 583 l 575 704 l 510 704 l 510 521 m 647 653 l 905 653 l 905 903 l 647 903 l 647 653 z "},"[":{"ha":1158,"x_min":276,"x_max":847,"o":"m 276 889 q 282 922 276 907 q 300 949 289 937 q 327 967 311 960 q 359 974 342 974 q 391 967 376 974 q 417 949 406 960 q 435 922 429 937 q 441 889 441 907 q 435 856 441 871 q 417 829 429 841 q 391 811 406 818 q 359 804 376 804 q 327 811 342 804 q 300 829 311 818 q 282 856 289 841 q 276 889 276 871 m 293 -54 l 293 716 q 345 665 318 690 q 404 621 372 640 q 475 591 436 602 q 562 581 513 580 q 648 593 610 581 q 717 624 686 606 q 775 667 749 643 q 825 714 801 690 l 825 -54 l 696 -54 l 694 40 l 694 255 q 696 377 695 317 q 697 497 696 437 q 668 488 684 494 q 635 477 653 481 q 581 468 610 470 q 523 469 551 467 q 468 479 494 472 q 422 498 442 487 q 422 441 422 470 q 423 385 422 413 l 423 -17 q 423 -35 423 -26 q 422 -54 422 -44 l 293 -54 m 681 889 q 687 922 681 907 q 705 949 694 937 q 732 967 717 960 q 764 974 747 974 q 797 967 781 974 q 823 949 812 960 q 841 922 834 937 q 847 889 847 907 q 841 856 847 871 q 823 829 834 841 q 797 811 812 818 q 764 804 781 804 q 732 811 747 804 q 705 829 717 818 q 687 856 694 841 q 681 889 681 871 z "},"\\":{"ha":1158,"x_min":0,"x_max":1172,"o":"m 0 758 l 221 577 l 572 791 l 351 974 l 0 758 m 16 371 l 353 174 l 549 342 l 219 542 l 16 371 m 235 138 l 572 -68 l 572 324 l 349 141 l 235 202 l 235 138 m 600 -68 l 937 138 l 937 202 l 823 141 l 600 324 l 600 -68 m 600 791 l 821 974 l 1172 758 l 951 577 l 600 791 m 623 342 l 819 174 l 1156 371 l 953 542 l 623 342 z "},"]":{"ha":1158,"x_min":136,"x_max":1038,"o":"m 136 390 q 151 506 136 454 q 189 601 165 559 q 240 675 212 643 q 294 729 268 707 q 342 765 321 751 q 372 783 363 778 q 403 799 389 791 q 432 814 418 806 q 463 833 447 823 q 498 858 479 843 q 515 875 507 865 q 530 898 524 884 q 542 929 537 911 q 550 974 547 948 q 577 941 563 958 q 606 909 592 924 q 634 881 621 894 q 659 861 648 869 q 696 840 677 849 q 734 822 715 830 q 772 804 753 813 q 811 783 791 795 q 839 764 819 778 q 884 728 859 751 q 937 673 909 705 q 986 598 964 641 q 1023 502 1008 555 q 1038 382 1038 448 q 1021 258 1038 316 q 975 152 1004 201 q 904 66 945 104 q 813 1 863 28 q 707 -40 764 -26 q 591 -54 650 -54 q 474 -38 531 -54 q 367 5 417 -23 q 274 72 316 33 q 200 161 231 112 q 153 269 170 211 q 136 390 136 326 m 326 266 q 370 170 324 201 q 385 161 377 165 q 404 154 393 157 q 430 150 414 151 q 467 148 445 148 q 518 157 492 148 q 571 179 545 166 q 623 209 597 193 q 671 238 648 224 q 714 260 694 251 q 748 268 734 269 q 773 259 760 267 q 800 238 786 250 q 829 211 814 225 q 856 183 843 196 q 881 161 869 170 q 901 152 892 153 q 936 161 922 151 q 968 197 950 172 q 983 227 977 210 q 994 259 989 243 q 1000 291 998 276 q 1002 318 1002 307 q 999 344 1002 330 q 988 371 996 358 q 969 392 981 383 q 938 400 956 400 q 911 393 926 400 q 879 375 896 386 q 843 352 861 364 q 807 328 825 339 q 774 310 790 317 q 746 302 758 302 q 698 320 724 302 q 640 359 671 338 q 571 399 608 381 q 491 416 534 416 q 427 403 456 416 q 374 370 397 391 q 339 322 352 349 q 326 266 326 295 m 541 57 q 536 48 537 54 q 541 37 536 42 q 578 14 557 22 q 622 4 600 7 q 668 2 645 1 q 711 5 690 3 q 749 13 731 7 q 781 25 767 18 q 804 38 795 33 q 815 46 813 44 q 820 56 821 52 q 819 63 820 60 q 815 69 818 66 q 805 66 812 71 q 758 44 790 54 q 677 33 725 33 q 635 36 653 33 q 604 42 618 38 q 581 51 591 45 q 564 62 571 56 q 561 64 562 64 q 556 64 560 64 q 548 62 551 64 q 541 57 545 60 m 636 104 q 646 101 641 98 q 665 115 652 104 q 676 125 671 120 q 689 133 682 130 q 705 138 696 136 q 728 140 714 140 q 749 138 741 140 q 762 132 757 136 q 770 124 767 129 q 775 115 772 119 q 783 103 781 105 q 790 104 785 100 q 798 123 803 111 q 789 142 795 131 q 775 159 784 153 q 754 167 766 165 q 730 168 742 168 q 710 168 718 168 q 689 162 701 168 q 664 147 676 157 q 643 130 651 137 q 636 104 627 116 z "},"^":{"ha":1158,"x_min":41,"x_max":1121,"o":"m 41 248 q 54 279 41 266 q 86 292 67 292 q 101 289 93 292 l 496 743 q 487 757 491 749 q 484 775 484 766 q 498 809 484 795 q 532 823 512 823 q 565 809 551 823 q 579 775 579 795 l 954 652 q 983 698 961 680 q 1036 716 1006 716 q 1069 709 1053 716 q 1096 691 1084 703 q 1114 663 1107 679 q 1121 630 1121 648 q 1114 597 1121 612 q 1096 570 1107 582 q 1069 552 1084 559 q 1036 545 1053 545 q 1025 546 1030 545 q 1015 547 1020 546 l 970 326 q 987 292 987 314 q 975 261 987 274 q 945 248 962 248 q 927 252 935 248 q 914 261 920 256 l 639 147 q 641 136 640 142 q 642 124 642 131 q 636 93 642 108 q 619 68 630 79 q 594 51 608 57 q 563 44 579 44 q 532 51 547 44 q 507 68 517 57 q 490 93 496 79 q 484 124 484 108 q 484 133 484 129 q 485 141 484 137 l 125 227 q 109 209 120 216 q 86 202 98 202 q 54 215 67 202 q 41 248 41 229 m 111 284 q 115 281 114 283 l 375 387 q 374 399 374 393 q 388 433 374 419 q 422 448 401 448 q 439 444 431 448 l 505 734 l 505 734 l 111 284 m 125 268 q 130 248 130 259 q 130 243 130 245 q 130 238 130 241 l 489 152 q 502 176 493 165 q 523 194 511 186 l 445 357 q 422 351 435 351 q 398 357 408 351 q 382 372 388 363 l 125 268 m 450 438 q 464 422 458 432 l 543 454 l 532 726 q 524 727 528 726 q 515 729 519 728 l 450 438 m 455 364 l 532 199 q 542 202 538 201 q 551 204 547 203 l 543 438 l 469 408 q 469 399 469 406 q 466 380 469 389 q 455 364 462 370 m 546 729 l 557 460 l 728 530 l 560 736 q 553 732 557 734 q 546 729 550 730 m 558 444 l 567 205 q 612 188 591 203 l 821 418 l 739 517 l 558 444 m 568 743 l 740 534 l 952 619 q 951 625 951 623 q 951 630 951 627 q 952 640 951 637 l 578 764 q 568 743 575 752 m 619 180 q 634 159 631 170 l 907 271 q 901 292 901 281 q 907 312 901 302 l 828 408 l 619 180 m 749 522 l 828 426 l 968 581 q 960 592 963 586 q 954 605 957 598 l 749 522 m 836 417 l 913 321 q 927 332 919 328 q 945 336 935 336 q 952 335 949 336 q 959 332 956 334 l 1004 551 q 988 559 995 554 q 975 571 981 564 l 836 417 z "},"_":{"ha":1158,"x_min":142,"x_max":997,"o":"m 142 -36 q 145 -6 140 -17 q 162 9 151 4 q 186 16 172 14 q 214 19 199 18 q 241 25 228 21 q 263 37 254 28 q 269 48 265 39 q 277 68 273 57 q 285 92 281 79 q 290 115 288 105 q 294 183 293 144 q 293 266 294 222 q 291 357 292 309 q 290 454 290 405 q 291 545 290 499 q 293 635 292 591 q 293 717 294 678 q 290 787 292 755 q 285 812 288 798 q 278 839 282 826 q 271 861 275 851 q 263 875 267 871 q 234 891 252 887 q 199 899 216 895 q 171 911 182 903 q 163 943 159 920 q 179 957 170 953 q 200 961 189 960 q 223 960 212 961 q 242 958 234 958 q 397 957 313 958 q 567 956 481 956 q 734 958 652 956 q 883 969 816 961 q 897 972 889 970 q 914 974 905 974 q 931 971 922 974 q 946 958 939 968 q 948 940 949 949 q 944 920 947 930 q 939 899 941 910 q 936 875 937 888 q 938 832 935 857 q 940 785 941 807 q 932 749 940 763 q 904 740 925 735 q 889 752 893 742 q 883 777 885 763 q 880 804 882 790 q 873 828 879 818 q 831 858 862 846 q 759 875 800 869 q 675 883 719 881 q 594 886 631 886 q 548 885 573 886 q 500 881 524 884 q 455 869 476 877 q 420 849 434 862 q 416 772 417 813 q 414 688 414 730 q 416 604 414 645 q 420 526 417 562 q 479 519 445 522 q 550 514 513 515 q 623 512 587 512 q 689 516 659 513 q 723 521 704 517 q 751 532 741 524 q 772 557 768 543 q 779 588 777 572 q 785 619 781 604 q 804 646 789 634 q 831 636 824 646 q 840 612 839 627 q 839 578 842 597 q 836 542 836 560 q 834 486 834 515 q 836 433 834 456 q 840 397 836 415 q 843 364 843 379 q 839 338 844 349 q 820 323 835 328 q 798 336 806 328 q 785 353 790 344 q 778 374 781 363 q 771 395 775 385 q 760 415 767 406 q 741 433 753 425 q 675 452 713 450 q 595 452 637 455 q 509 445 553 449 q 426 443 465 440 q 417 401 419 423 q 414 355 414 379 q 415 307 414 332 q 416 256 416 281 q 414 208 416 233 q 411 160 412 184 q 414 114 411 136 q 426 74 416 92 q 450 51 433 60 q 488 37 466 42 q 535 30 509 31 q 587 28 560 28 q 638 29 613 28 q 684 32 663 31 q 755 40 720 35 q 822 55 791 45 q 876 80 852 65 q 909 115 899 94 q 919 149 918 133 q 921 179 920 164 q 926 207 922 193 q 946 235 930 220 q 982 220 970 230 q 997 197 994 210 q 996 166 1000 183 q 987 132 993 150 q 975 95 981 114 q 967 58 969 76 q 966 30 965 44 q 968 2 968 16 q 967 -23 969 -11 q 957 -46 965 -35 q 935 -54 946 -53 q 912 -52 924 -54 q 887 -45 900 -49 q 862 -41 875 -42 q 794 -38 830 -38 q 720 -38 758 -37 q 642 -40 682 -39 q 563 -41 602 -41 q 410 -39 486 -41 q 269 -41 334 -38 q 235 -44 252 -41 q 201 -48 218 -47 q 170 -46 185 -49 q 142 -36 155 -44 z "},"`":{"ha":1158,"x_min":62,"x_max":1103,"o":"m 62 106 l 62 800 q 76 866 62 835 q 114 921 90 897 q 170 960 138 945 q 235 974 201 974 l 930 974 q 996 960 964 974 q 1051 921 1027 945 q 1089 866 1075 897 q 1103 800 1103 835 l 1103 106 q 1089 40 1103 71 q 1051 -15 1075 9 q 996 -54 1027 -39 q 930 -68 964 -68 l 745 -68 l 745 326 l 918 326 l 918 499 l 745 499 l 745 568 q 755 602 745 589 q 778 615 766 615 l 918 615 l 918 789 l 778 789 q 702 770 737 789 q 640 722 666 752 q 598 651 613 691 q 583 567 583 610 l 583 499 l 455 499 l 455 326 l 583 326 l 583 -68 l 235 -68 q 170 -54 201 -68 q 114 -15 138 -39 q 76 40 90 9 q 62 106 62 71 z "},"a":{"ha":1156,"x_min":35,"x_max":1122,"o":"m 35 239 q 37 244 35 242 q 45 248 40 248 q 54 245 50 248 q 306 148 169 182 q 590 113 442 113 q 780 129 684 113 q 972 180 876 146 q 986 185 979 183 q 1000 191 993 187 q 1014 192 1007 193 q 1023 186 1021 191 q 1026 178 1025 184 q 1018 165 1026 170 q 995 151 1007 157 q 972 138 983 144 q 781 64 886 90 q 578 39 677 39 q 285 90 421 39 q 41 231 149 140 q 35 239 35 235 m 335 507 q 369 618 335 574 q 460 685 402 663 q 522 704 489 697 q 591 714 555 710 q 637 718 615 717 q 677 722 659 720 l 677 737 q 677 778 677 757 q 664 815 676 799 q 635 838 653 831 q 600 844 618 844 l 591 844 q 536 826 561 842 q 504 778 511 810 q 498 765 503 771 q 485 757 493 760 l 371 771 q 358 777 364 772 q 354 793 351 782 q 387 868 363 838 q 444 918 411 899 q 514 946 476 937 q 591 958 553 956 l 615 958 q 707 946 658 958 q 791 904 755 935 q 832 843 823 877 q 842 770 842 809 l 842 718 l 842 549 q 855 489 842 511 q 886 449 869 469 q 892 434 892 442 q 885 421 892 427 q 865 405 876 414 q 841 385 854 395 q 816 365 827 374 q 796 349 805 356 q 766 347 783 340 q 728 384 739 370 l 700 418 q 646 373 671 389 q 591 349 620 357 q 509 340 553 340 q 385 382 434 340 q 335 507 335 423 m 504 526 q 523 468 504 490 q 575 447 542 447 q 585 448 581 447 q 591 449 589 449 q 656 497 634 458 q 676 553 675 527 q 677 582 677 567 q 677 612 677 597 l 677 635 q 633 633 655 635 q 591 628 611 632 q 558 614 574 623 q 530 594 543 606 q 504 526 504 570 m 918 227 q 925 236 918 231 q 972 258 947 250 q 996 263 984 261 q 1020 266 1008 264 q 1034 267 1027 267 q 1048 267 1041 267 q 1057 267 1053 267 q 1065 267 1061 267 q 1118 254 1108 263 q 1121 247 1120 252 q 1122 236 1122 243 l 1122 231 q 1118 197 1122 217 q 1104 157 1114 178 q 1082 118 1095 137 q 1050 85 1068 98 q 1041 80 1045 80 q 1038 81 1040 80 q 1035 92 1032 83 l 1048 123 q 1059 151 1053 137 q 1067 178 1064 165 q 1070 201 1070 191 q 1067 216 1071 211 q 1030 229 1059 227 l 1019 229 q 972 227 996 229 q 949 224 960 224 q 928 221 937 224 q 918 227 918 221 z "},"b":{"ha":1156,"x_min":35,"x_max":1121,"o":"m 35 281 l 35 653 q 62 777 35 718 q 136 879 89 835 q 245 947 182 922 q 379 972 308 972 l 619 972 q 691 954 652 968 q 767 916 730 939 q 836 863 804 893 q 885 799 867 833 l 895 781 q 900 768 897 775 q 906 751 903 762 q 911 727 908 741 q 917 690 913 712 q 925 637 921 660 q 945 603 929 615 q 977 592 955 595 q 1022 589 998 590 q 1066 588 1046 589 q 1093 582 1086 587 l 1108 571 l 1118 553 l 1121 539 l 1118 281 q 1091 157 1118 215 q 1017 56 1064 99 q 908 -13 970 12 q 774 -37 845 -37 l 379 -37 q 245 -13 308 -37 q 136 55 182 12 q 62 156 89 98 q 35 281 35 214 m 317 286 q 322 263 317 274 q 336 243 327 252 q 357 230 345 235 q 383 225 369 225 l 771 225 q 818 243 800 225 q 836 286 836 261 q 818 329 836 311 q 771 346 800 346 l 383 346 q 336 329 355 346 q 317 286 317 311 m 317 650 q 322 626 317 637 q 336 607 327 615 q 357 593 345 598 q 383 589 369 589 l 574 589 q 600 594 588 589 q 621 607 612 599 q 635 626 630 615 q 640 650 640 637 q 635 673 640 662 q 621 693 630 684 q 600 706 612 701 q 574 711 588 711 l 383 711 q 357 706 369 711 q 336 693 345 701 q 322 673 327 684 q 317 650 317 662 z "},"c":{"ha":1156,"x_min":35,"x_max":1121,"o":"m 35 465 q 58 615 35 541 q 127 747 83 685 q 232 855 172 809 q 367 930 291 901 q 468 961 416 950 q 578 971 520 971 q 739 947 659 971 q 813 920 778 937 q 880 884 848 904 q 1078 663 1014 801 q 1121 465 1120 569 q 1096 315 1121 385 q 1067 246 1085 279 q 1028 183 1050 214 q 923 75 983 121 q 789 0 863 29 q 578 -39 687 -39 q 416 -17 490 -39 q 342 10 378 -6 q 273 47 306 26 q 158 144 208 88 q 78 269 109 199 q 35 465 36 361 m 109 465 l 578 465 l 578 29 q 717 49 648 29 q 781 72 750 58 q 840 104 812 86 q 941 188 898 139 q 1010 296 983 236 q 1038 377 1028 334 q 1047 465 1047 420 l 578 465 l 578 901 q 437 882 509 901 q 374 859 404 872 q 315 828 344 845 q 215 743 258 791 q 144 635 173 694 q 109 465 109 555 z "},"d":{"ha":1156,"x_min":35,"x_max":1121,"o":"m 35 467 q 54 601 35 536 q 109 722 73 665 q 194 824 144 778 q 304 904 243 871 q 434 955 364 937 q 578 972 503 972 q 722 955 652 972 q 852 904 791 937 q 962 824 912 871 q 1047 722 1012 778 q 1102 601 1082 665 q 1121 467 1121 536 q 1102 332 1121 397 q 1047 212 1082 268 q 962 110 1012 155 q 852 31 912 64 q 722 -20 791 -2 q 578 -37 652 -37 q 367 2 465 -37 q 193 109 269 41 q 77 270 119 178 q 35 467 35 362 m 154 467 q 181 330 154 395 q 254 214 208 265 q 301 271 273 237 q 372 340 329 304 q 476 412 417 378 q 610 471 534 447 q 598 498 603 484 q 586 524 593 511 q 473 496 529 507 q 368 481 418 486 q 275 474 318 475 q 201 472 233 472 l 155 472 q 154 467 154 471 m 167 562 q 182 562 174 562 q 201 561 191 561 l 208 561 q 356 569 267 561 q 542 606 445 578 q 454 743 494 690 q 392 819 414 795 q 250 714 308 781 q 167 562 190 646 m 326 150 q 443 94 379 113 q 578 74 507 74 q 729 98 659 74 q 691 252 712 180 q 644 387 669 323 q 519 332 573 365 q 425 262 466 299 q 362 199 387 229 q 326 150 338 168 m 489 851 q 555 765 517 818 q 635 636 592 712 q 748 693 694 660 q 843 774 802 727 q 721 838 787 814 q 578 861 654 861 q 533 859 554 861 q 489 851 511 856 m 676 554 q 691 524 683 538 q 705 493 699 510 q 765 500 734 498 q 828 503 795 503 q 1002 485 911 503 q 975 606 999 549 q 911 710 951 663 q 801 620 860 657 q 676 554 742 583 m 741 407 q 783 282 763 348 q 818 143 802 217 q 932 251 886 188 q 994 395 979 315 q 907 409 947 404 q 828 414 867 414 l 827 414 q 782 412 803 414 q 741 407 761 410 z "},"e":{"ha":1156,"x_min":35,"x_max":1121,"o":"m 35 366 q 41 414 35 391 q 70 454 47 437 q 137 481 93 471 q 257 492 182 492 q 372 481 332 492 q 418 469 398 477 l 418 603 l 501 603 l 501 455 l 503 455 q 532 480 516 473 q 571 488 547 488 q 625 468 606 488 q 680 487 649 484 q 718 489 698 489 q 728 489 723 489 l 749 489 l 749 512 q 743 542 749 530 q 715 553 737 553 q 697 549 703 553 q 687 539 690 545 q 684 525 684 533 q 684 509 684 517 l 600 509 q 632 578 600 560 q 666 593 646 589 q 710 597 686 597 q 730 596 721 597 q 747 594 739 595 l 728 632 l 847 632 l 925 464 l 1010 632 l 1121 632 l 975 371 l 975 233 l 865 233 l 865 371 l 830 436 l 830 361 q 831 348 830 355 q 832 335 831 342 l 835 308 l 757 308 l 753 346 l 751 346 q 720 314 738 325 q 673 304 702 304 q 662 304 667 304 q 653 305 656 304 q 648 266 652 286 q 636 230 645 245 q 612 204 627 214 q 570 194 596 194 q 527 202 545 194 q 498 232 510 211 l 497 232 l 497 201 l 418 201 l 418 258 q 397 251 408 254 q 374 244 386 247 q 321 237 350 240 q 257 235 292 235 q 139 244 183 235 q 72 271 96 254 q 42 313 49 288 q 35 366 35 337 m 189 353 q 190 328 189 341 q 198 304 191 315 q 218 286 204 293 q 257 279 232 279 q 310 293 296 279 q 323 323 323 309 l 372 323 l 374 323 l 418 323 l 418 353 l 189 353 m 189 391 l 328 391 q 327 410 328 400 q 320 429 326 420 q 299 443 314 437 q 257 448 285 448 q 217 442 231 448 q 197 427 203 436 q 190 408 191 418 q 189 391 189 398 m 501 345 q 508 267 501 292 q 534 243 514 243 q 565 267 558 243 q 571 345 571 292 q 570 382 571 366 q 566 412 569 399 q 534 439 562 439 q 505 412 509 439 q 501 345 501 386 m 675 397 q 676 381 675 389 q 680 367 677 373 q 690 357 684 361 q 707 353 696 353 q 734 363 725 353 q 747 388 743 374 q 749 413 749 399 q 749 431 749 419 q 749 446 749 442 q 719 444 732 444 q 695 439 705 443 q 680 425 686 435 q 675 397 675 416 z "},"f":{"ha":1156,"x_min":125,"x_max":1031,"o":"m 125 -33 l 578 974 l 1031 -35 l 861 -35 l 861 -33 l 625 -33 l 625 125 l 812 212 l 791 254 l 625 178 l 625 235 l 734 289 l 711 332 l 625 289 l 625 392 l 507 392 l 507 231 l 419 286 l 392 248 l 507 174 l 507 -3 l 507 -33 l 125 -33 z "},"g":{"ha":1156,"x_min":222,"x_max":935,"o":"m 222 153 q 245 234 222 189 q 332 314 269 279 q 403 343 365 332 q 477 361 441 355 q 547 371 514 368 q 604 375 581 374 q 589 393 596 384 q 575 413 581 403 q 566 436 570 424 q 562 465 562 449 q 567 494 562 482 q 576 517 571 505 q 554 515 566 515 q 530 514 542 514 q 429 532 473 514 q 355 579 385 550 q 310 646 326 608 q 294 722 294 684 q 317 816 294 769 q 385 900 339 863 q 514 960 446 947 q 640 972 581 972 l 935 972 l 843 925 l 754 925 l 784 901 q 810 874 797 890 q 833 840 823 859 q 849 797 843 821 q 856 746 856 773 q 834 655 856 693 q 780 592 812 618 l 736 558 q 722 545 729 551 q 709 530 715 538 q 700 513 703 522 q 696 493 696 504 q 700 473 696 481 q 709 457 703 465 q 721 445 715 450 q 733 436 728 440 l 785 399 q 830 362 808 380 q 868 321 852 343 q 894 273 884 300 q 904 214 904 247 q 880 122 904 167 q 808 41 856 77 q 691 -16 761 6 q 529 -37 621 -37 q 394 -21 452 -37 q 298 21 336 -5 q 241 82 260 47 q 222 153 222 116 m 349 180 q 366 115 349 144 q 416 64 384 85 q 495 30 449 42 q 599 18 541 18 q 755 58 703 18 q 808 161 808 99 q 799 207 808 186 q 771 247 790 227 q 723 288 753 267 q 653 336 694 309 q 645 337 649 337 q 638 338 642 338 l 621 338 q 600 337 615 338 q 563 334 584 336 q 517 328 542 332 q 471 317 493 323 q 438 304 458 313 q 398 279 418 295 q 363 240 378 264 q 349 180 349 216 m 419 787 q 430 713 419 754 q 463 636 441 672 q 518 576 484 600 q 597 551 551 551 q 652 562 626 551 q 694 589 677 572 q 725 640 720 612 q 729 664 728 653 q 730 685 730 675 q 725 736 730 709 q 710 790 720 763 q 685 842 701 817 q 650 887 670 867 q 605 918 630 906 q 550 929 580 929 q 495 917 522 929 q 450 885 468 904 q 426 839 432 864 q 419 787 419 814 z "},"h":{"ha":1156,"x_min":36,"x_max":1121,"o":"m 36 586 q 78 733 36 664 q 194 853 121 802 q 367 934 268 904 q 578 964 465 964 q 789 934 690 964 q 962 853 888 904 q 1078 733 1036 802 q 1121 586 1121 664 q 1102 485 1121 534 q 1047 395 1082 437 q 962 318 1011 353 q 852 259 912 283 q 722 220 791 234 q 578 207 652 207 q 406 227 492 207 q 373 211 390 219 q 336 195 355 203 l 264 165 q 199 143 229 152 q 151 135 170 135 q 194 218 179 174 q 218 302 210 262 q 84 428 133 355 q 36 586 36 500 m 310 628 q 318 581 310 602 q 329 557 319 572 q 368 513 344 530 q 398 485 382 499 q 433 457 414 471 l 501 406 l 578 354 l 654 406 l 723 457 q 758 485 741 471 q 789 513 774 499 q 828 557 814 534 q 839 581 834 566 l 844 604 q 847 628 847 614 q 834 688 847 660 q 799 736 821 715 q 747 769 777 757 q 684 781 717 781 q 631 770 652 781 q 599 744 611 760 q 583 711 587 729 q 578 679 578 694 q 570 711 578 694 q 547 744 562 729 q 514 770 533 760 q 472 781 494 781 q 409 769 439 781 q 358 736 380 757 q 323 688 336 715 q 310 628 310 660 z "},"i":{"ha":1156,"x_min":35,"x_max":1121,"o":"m 35 467 q 54 600 35 536 q 109 721 73 665 q 194 823 144 777 q 304 902 243 869 q 434 953 364 935 q 578 971 503 971 q 722 953 652 971 q 852 902 791 935 q 962 823 912 869 q 1047 721 1011 777 q 1102 600 1082 665 q 1121 467 1121 536 q 1102 332 1121 397 q 1047 212 1082 268 q 962 109 1012 155 q 852 30 912 62 q 722 -22 791 -4 q 583 -39 654 -39 q 578 -39 581 -39 q 367 0 465 -39 q 193 109 269 39 q 77 270 119 178 q 35 467 35 362 m 143 467 q 177 310 143 383 q 270 181 211 236 q 408 94 329 126 q 578 62 487 62 q 694 77 638 62 q 798 118 749 92 q 886 181 846 144 q 953 263 925 218 q 997 359 981 308 q 1013 467 1013 411 q 997 574 1013 522 q 953 670 981 625 q 886 751 925 715 q 798 814 846 788 q 694 855 749 841 q 578 869 638 869 q 408 838 487 869 q 270 751 329 806 q 177 623 211 696 q 143 467 143 550 m 342 289 q 363 340 342 316 q 419 370 385 366 q 461 366 441 371 l 461 668 l 777 718 l 777 717 l 777 334 l 777 330 l 777 323 q 757 273 777 296 q 699 243 734 247 q 692 242 695 242 q 687 242 690 242 q 637 259 659 242 q 608 318 608 281 q 629 369 608 345 q 686 399 652 395 q 728 395 709 399 l 728 604 l 510 567 l 510 304 l 510 301 l 510 294 q 490 243 510 267 q 433 214 468 218 q 427 213 430 213 q 421 213 425 213 q 372 230 393 213 q 343 282 347 250 q 342 289 343 287 z "},"j":{"ha":1156,"x_min":35,"x_max":1121,"o":"m 35 593 q 54 678 35 638 q 106 748 73 718 q 183 795 139 778 q 278 812 228 812 q 421 770 359 812 q 507 664 484 728 l 570 720 l 715 587 l 1121 974 l 1121 624 l 872 446 l 905 414 l 568 110 l 273 375 q 180 392 224 375 q 104 439 137 410 q 53 509 72 469 q 35 593 35 549 m 69 593 q 85 520 69 554 q 130 461 102 486 q 196 421 158 436 q 277 407 233 407 q 306 409 290 407 q 336 414 321 410 l 541 245 l 1084 643 l 1084 904 l 549 390 l 464 515 q 484 593 484 551 q 467 666 484 631 q 423 725 451 700 q 357 766 395 751 q 277 781 319 781 q 196 766 234 781 q 130 725 158 751 q 85 666 102 700 q 69 593 69 631 z "},"k":{"ha":1156,"x_min":35,"x_max":1121,"o":"m 35 526 q 50 569 39 549 q 76 606 61 589 q 111 637 92 623 q 151 663 130 651 l 210 693 l 180 722 q 156 749 168 734 q 133 780 143 764 q 115 816 123 797 q 106 856 108 835 q 105 866 105 859 q 113 900 105 883 q 142 932 121 920 q 176 939 160 941 q 207 930 193 937 q 233 912 220 922 q 257 895 245 901 q 283 939 268 918 q 326 971 298 960 q 337 972 332 972 q 349 974 343 972 q 403 903 399 968 q 404 895 404 899 q 404 888 404 891 q 403 869 404 878 q 401 850 402 859 q 384 773 395 810 q 367 708 373 736 q 534 644 460 688 q 654 521 607 599 q 693 443 677 484 q 713 349 710 401 q 710 331 713 342 q 710 314 707 321 q 722 298 713 306 l 737 282 q 760 261 747 272 q 785 241 772 251 q 812 223 798 231 q 838 211 825 215 q 878 205 857 205 l 887 205 q 927 210 907 206 q 968 219 948 214 q 1007 229 988 224 q 1043 237 1026 234 q 1074 241 1060 241 q 1091 239 1083 241 q 1120 214 1111 234 q 1120 204 1120 208 q 1121 196 1121 200 q 1108 168 1117 180 q 1086 146 1099 156 q 1058 127 1073 136 q 1026 111 1042 119 q 922 73 980 89 q 800 46 863 57 q 670 30 736 35 q 545 25 604 25 q 490 -6 521 5 q 422 -26 459 -18 q 385 -31 403 -29 q 349 -35 367 -32 q 302 -36 326 -36 q 256 -35 279 -36 q 182 -8 208 -32 q 162 22 170 3 q 160 61 155 41 q 203 112 168 93 q 279 140 239 132 q 270 160 277 151 q 260 180 264 170 q 245 257 245 215 l 245 273 q 251 318 246 298 q 264 355 256 338 l 221 366 q 217 346 218 355 q 210 330 216 338 q 181 312 199 317 q 145 313 163 308 q 116 332 128 318 q 106 370 104 347 q 127 407 108 390 q 170 438 146 425 l 197 454 q 227 469 208 460 l 258 486 q 288 505 274 494 q 304 526 301 515 q 306 540 307 532 q 304 555 306 548 q 300 570 302 563 q 296 581 298 576 q 286 574 288 579 l 279 566 q 252 541 267 553 l 222 515 l 180 484 q 132 461 159 469 q 119 459 125 460 q 106 458 113 458 q 75 465 89 458 q 37 504 49 476 q 35 526 37 516 m 63 526 q 64 517 63 520 q 83 490 68 498 q 121 486 98 482 q 169 509 144 492 q 216 546 193 526 l 237 563 q 247 571 241 566 q 257 582 252 576 q 266 592 261 587 q 275 605 270 598 q 297 619 286 619 q 317 598 308 618 q 330 568 328 579 q 334 541 334 553 q 330 518 334 527 q 310 488 323 499 q 266 459 292 472 q 212 432 241 447 q 190 420 203 428 q 164 404 176 413 q 143 385 151 395 q 135 364 134 374 q 142 345 135 351 q 158 338 149 339 q 176 340 167 337 q 189 351 185 344 q 188 375 193 361 q 192 395 182 389 q 213 397 200 401 q 225 393 220 394 q 233 390 230 391 l 277 382 q 292 401 284 389 q 310 423 300 412 q 332 441 320 433 q 361 449 345 449 q 387 439 376 449 q 402 416 397 429 q 406 389 408 403 q 395 367 405 375 q 351 350 377 350 l 347 350 l 294 353 q 277 307 281 334 q 273 265 273 287 l 273 250 q 284 192 275 219 q 311 147 294 165 q 359 149 336 149 q 389 148 375 149 q 415 146 402 147 q 383 221 388 181 q 382 245 381 235 q 390 298 382 272 q 432 361 402 334 q 507 393 463 387 q 520 394 514 394 q 534 395 527 395 q 577 389 557 395 q 620 375 601 384 q 652 358 638 366 q 673 342 665 349 q 685 332 682 334 q 672 411 682 375 q 647 478 663 448 q 612 534 632 509 q 567 583 591 560 q 478 645 528 620 q 364 681 427 669 q 345 684 353 682 q 334 692 336 685 q 335 704 332 694 q 340 722 338 714 l 363 797 q 375 878 372 830 q 372 918 375 898 q 355 945 368 938 q 347 947 351 947 q 332 943 340 947 q 296 910 307 932 q 275 868 284 889 q 287 856 281 864 q 299 836 293 847 q 310 812 305 825 q 318 787 315 800 q 320 768 320 777 q 315 743 320 753 q 277 724 307 724 q 245 741 254 724 q 234 782 236 758 q 233 790 233 786 q 233 798 233 794 q 234 813 233 805 q 236 829 235 821 q 244 865 240 854 q 227 882 233 873 q 210 897 221 890 q 201 903 206 900 q 190 910 197 907 q 158 911 178 918 q 149 906 153 909 q 141 897 144 902 q 136 887 138 892 q 134 878 134 882 q 134 858 132 868 q 138 839 135 847 q 174 769 146 803 q 224 718 201 736 q 245 705 231 712 q 258 689 260 701 q 239 675 258 681 q 208 663 222 670 q 158 635 178 650 q 113 603 134 619 q 79 567 92 586 q 66 545 73 559 q 63 526 63 534 m 187 45 q 191 26 187 35 q 201 13 195 18 q 215 3 208 7 q 228 -3 222 -1 q 289 -9 253 -9 q 363 -7 324 -9 q 437 5 401 -4 q 494 28 472 14 q 394 51 441 35 q 314 100 347 67 q 302 113 305 108 q 295 117 300 117 q 289 117 291 117 l 254 105 q 207 81 226 96 q 187 45 187 66 m 262 787 q 267 762 263 773 q 281 751 271 751 q 294 766 295 753 q 289 791 292 781 q 278 813 285 804 q 268 833 272 823 q 267 835 268 835 q 262 814 263 827 q 261 797 260 805 q 262 787 261 792 m 310 378 l 347 378 q 378 389 367 378 q 377 407 380 398 q 367 421 374 416 q 332 407 345 421 q 310 378 319 393 m 335 122 q 418 71 368 87 q 530 52 469 54 q 556 98 550 67 q 558 115 558 106 q 546 157 558 136 q 532 173 539 168 q 528 187 525 179 q 534 194 530 192 q 543 196 538 195 q 555 196 549 196 q 567 196 561 195 q 611 207 593 197 q 642 231 629 216 q 664 263 655 245 q 677 300 672 281 l 644 328 q 607 352 626 341 q 563 367 587 363 q 538 369 551 369 q 510 367 525 369 q 448 338 473 361 q 414 285 424 315 q 409 245 409 264 q 411 221 409 233 q 439 161 416 189 q 451 149 444 155 q 466 138 458 143 q 478 127 473 132 q 484 118 484 122 q 473 108 482 107 q 454 111 464 109 q 395 121 427 118 q 361 123 378 123 q 348 123 354 123 q 335 122 341 123 m 570 52 q 702 59 633 53 q 837 79 771 66 q 960 112 903 92 q 1059 160 1018 132 q 1082 180 1069 167 q 1093 199 1093 190 q 1092 205 1093 203 q 1077 215 1089 214 q 1051 212 1065 215 q 1023 203 1037 208 q 1000 197 1008 199 q 947 187 977 192 q 892 179 918 182 q 883 178 887 178 q 876 178 879 178 q 830 185 848 178 q 793 202 810 192 q 762 225 777 213 q 734 251 747 237 q 705 277 720 264 q 702 279 703 279 q 701 279 702 279 q 700 278 701 279 q 656 208 685 239 q 571 170 629 178 q 585 126 585 150 q 585 122 585 124 q 585 116 585 119 q 585 110 585 113 q 571 58 581 77 q 570 54 571 58 q 568 52 568 53 q 570 52 568 52 z "},"l":{"ha":1156,"x_min":35,"x_max":1121,"o":"m 35 856 q 44 901 35 880 q 70 936 53 922 q 112 959 87 951 q 167 968 136 968 q 220 959 197 968 q 260 936 243 951 q 287 901 277 921 q 297 856 296 880 q 262 776 297 808 q 165 743 226 743 l 164 743 q 69 776 104 743 q 35 856 35 808 m 49 3 l 49 654 l 281 654 l 281 3 l 49 3 m 410 3 q 411 161 410 86 q 411 306 411 237 l 411 422 l 411 527 q 410 609 411 576 q 410 654 410 643 l 643 654 l 643 562 l 642 559 l 643 559 l 643 562 q 671 598 654 579 q 713 632 688 616 q 772 659 738 648 q 852 669 806 669 q 959 652 910 669 q 1044 598 1008 634 q 1101 507 1080 562 q 1121 376 1121 452 l 1121 3 l 888 3 l 888 351 q 881 412 888 385 q 861 458 875 439 q 824 488 846 477 q 770 498 802 498 q 692 473 721 498 q 650 419 663 450 q 644 395 646 408 q 643 367 643 382 l 643 3 l 410 3 z "},"m":{"ha":1156,"x_min":35,"x_max":1121,"o":"m 35 416 l 667 416 l 863 975 l 1105 282 l 951 282 l 944 303 l 932 337 l 919 378 l 903 422 l 863 536 l 822 422 l 806 378 l 792 337 q 781 303 786 318 q 774 282 775 289 l 486 282 l 589 211 l 718 125 q 712 104 716 118 q 700 71 707 91 l 671 -12 l 35 416 m 606 245 l 802 245 l 863 419 l 924 245 l 1121 245 l 961 139 l 1022 -35 l 863 72 l 704 -35 l 764 139 l 606 245 z "},"n":{"ha":1156,"x_min":35,"x_max":1121,"o":"m 35 342 q 54 255 35 296 q 106 183 73 214 q 183 135 139 153 q 278 117 227 117 q 373 135 328 117 q 450 183 417 153 q 502 255 483 214 q 521 342 521 296 q 502 429 521 388 q 450 500 483 469 q 373 548 417 530 q 278 566 328 566 q 183 548 227 566 q 106 500 139 530 q 54 429 73 469 q 35 342 35 388 m 633 342 q 653 429 633 388 q 706 500 672 469 q 783 548 739 530 q 878 566 827 566 q 972 548 928 566 q 1049 500 1017 530 q 1102 429 1082 469 q 1121 342 1121 388 q 1102 255 1121 296 q 1049 183 1082 214 q 972 135 1017 153 q 878 117 928 117 q 783 135 827 117 q 706 183 739 153 q 653 255 672 214 q 633 342 633 296 z "},"o":{"ha":1156,"x_min":72,"x_max":1084,"o":"m 72 160 q 114 241 72 205 q 232 306 156 277 q 216 441 216 372 q 240 589 216 509 q 267 665 252 628 q 302 739 283 703 q 389 873 340 812 q 490 968 439 935 q 473 890 473 922 q 473 882 473 886 q 473 873 473 878 q 496 802 478 835 q 514 770 505 786 q 532 738 523 753 q 560 667 553 705 q 563 635 563 653 q 555 574 563 607 q 492 444 541 520 q 545 437 520 437 q 587 442 566 437 q 663 485 632 454 q 705 566 693 517 q 711 617 709 589 q 709 647 711 631 q 704 677 707 662 q 790 626 749 654 q 862 561 831 599 q 913 472 894 524 q 932 350 932 421 q 928 306 932 328 q 1042 240 1000 277 q 1084 160 1084 203 q 1044 81 1084 118 q 936 18 1004 45 q 774 -25 867 -9 q 578 -40 682 -40 q 381 -25 473 -40 q 220 18 289 -9 q 112 81 151 45 q 72 160 72 118 m 306 329 l 307 329 q 307 319 307 322 q 347 184 307 239 q 460 100 390 125 l 461 100 q 473 95 468 97 q 482 93 479 94 l 485 93 q 494 90 489 92 q 507 87 500 89 l 510 87 q 519 86 515 86 q 529 85 524 86 l 534 85 q 546 84 540 85 q 557 83 551 83 q 573 85 565 85 q 589 86 582 85 l 599 86 q 610 88 604 87 q 621 90 615 89 q 629 92 625 90 q 684 107 659 96 q 686 108 685 107 q 689 109 688 109 l 710 118 q 712 119 711 118 q 714 119 713 119 q 757 147 739 132 l 758 147 q 826 232 805 183 q 845 319 845 274 q 845 325 845 322 q 844 330 845 328 q 819 416 842 375 q 751 489 796 456 q 722 401 741 441 q 679 331 704 360 q 620 284 653 301 q 546 268 587 268 q 491 280 517 268 q 441 314 464 292 q 403 367 419 336 q 380 435 387 398 q 376 479 376 456 q 385 546 376 510 q 327 431 345 485 q 306 329 309 378 z "},"p":{"ha":1156,"x_min":35,"x_max":1121,"o":"m 35 465 q 55 604 35 536 q 115 729 76 671 q 208 836 153 788 q 330 916 262 884 l 347 901 l 385 870 l 433 830 l 481 789 l 518 757 q 536 742 534 743 q 498 710 534 741 l 410 635 l 297 541 l 184 444 l 95 369 l 56 335 q 35 465 35 398 m 75 279 l 92 294 l 132 327 l 182 370 l 234 414 l 277 450 q 292 463 286 458 q 298 469 297 468 l 298 33 q 164 139 221 76 q 75 279 108 202 m 355 4 l 355 245 l 1067 245 q 989 136 1035 186 q 886 50 943 86 q 764 -9 829 13 q 628 -37 699 -32 l 528 -37 q 440 -23 483 -35 q 355 4 398 -12 m 389 939 q 482 963 435 954 q 578 972 529 972 q 803 926 695 972 l 803 589 q 766 619 799 593 l 690 684 l 594 764 l 498 846 l 423 909 l 389 939 m 860 300 l 860 897 q 968 816 920 863 q 1050 713 1016 769 q 1103 595 1084 658 q 1121 465 1121 532 q 1113 382 1121 424 q 1090 300 1105 340 l 860 300 z "},"q":{"ha":1156,"x_min":35,"x_max":1121,"o":"m 35 472 q 54 606 35 541 q 109 726 73 670 q 194 828 144 782 q 304 907 243 874 q 434 959 364 941 q 578 977 503 977 q 722 959 652 977 q 852 907 791 941 q 962 828 912 874 q 1047 726 1011 782 q 1102 606 1082 670 q 1121 472 1121 541 q 1102 338 1121 402 q 1047 217 1082 273 q 962 115 1012 161 q 852 36 912 68 q 722 -15 791 3 q 578 -33 652 -33 q 367 6 465 -33 q 193 115 269 45 q 77 276 119 184 q 35 472 35 368 m 203 472 q 224 359 203 406 q 279 317 245 317 q 280 317 279 317 l 285 317 q 317 317 297 318 l 324 317 q 357 321 339 317 q 387 334 372 325 q 415 362 402 344 q 437 410 428 380 q 452 483 447 439 q 455 515 454 498 q 456 551 456 532 q 455 587 456 568 q 453 627 454 606 q 621 574 556 611 q 722 496 688 535 q 786 395 764 451 q 812 355 798 373 q 839 328 823 340 q 869 317 854 317 q 890 326 880 317 q 910 348 901 334 q 927 380 919 362 q 940 415 935 397 q 949 447 946 432 q 953 472 953 463 q 920 607 950 544 q 841 718 890 671 q 723 793 791 766 q 578 821 656 821 q 432 793 500 821 q 313 718 363 766 q 232 607 262 671 q 203 472 203 544 z "},"r":{"ha":1156,"x_min":35,"x_max":1121,"o":"m 35 96 q 46 148 35 124 q 78 191 58 171 q 124 219 98 209 q 179 229 150 229 q 236 219 210 229 q 282 191 262 209 q 323 96 323 152 q 282 1 323 39 q 179 -37 240 -37 q 78 1 119 -37 q 46 43 58 20 q 35 96 35 67 m 36 435 l 36 627 q 180 613 110 627 q 314 575 250 600 q 436 514 378 550 q 542 432 493 477 q 629 333 591 386 q 695 220 667 281 q 751 -39 751 99 l 543 -39 q 505 143 543 58 q 395 296 467 229 q 231 399 323 363 q 36 435 138 435 m 36 778 l 36 971 q 458 892 261 971 q 803 673 655 812 q 1036 353 951 536 q 1121 -39 1121 170 l 914 -39 q 882 178 913 74 q 793 373 850 282 q 655 538 736 464 q 478 666 575 613 q 269 749 380 720 q 36 778 157 778 z "},"s":{"ha":1156,"x_min":35,"x_max":1121,"o":"m 35 684 q 59 794 35 743 q 124 884 83 846 q 221 944 165 922 q 339 966 276 966 q 424 956 384 966 q 498 925 464 945 q 538 929 518 928 q 578 930 558 930 q 711 914 647 930 q 832 867 776 897 q 934 793 888 836 q 1013 698 980 750 q 1064 587 1046 646 q 1082 463 1082 527 q 1080 427 1082 445 q 1075 389 1078 408 q 1109 318 1097 356 q 1121 240 1121 281 q 1097 130 1121 182 q 1031 40 1073 79 q 935 -20 990 2 q 817 -43 880 -43 q 657 0 727 -43 q 617 -4 637 -3 q 578 -5 597 -5 q 444 11 508 -5 q 324 58 380 28 q 222 132 268 89 q 143 226 176 174 q 92 338 110 278 q 74 463 74 398 q 76 499 74 482 q 81 534 78 517 q 35 684 35 604 m 307 332 q 336 254 307 292 q 411 192 367 214 q 486 167 444 175 q 578 158 527 159 q 724 182 659 158 q 817 249 786 210 q 848 346 848 291 q 831 421 848 390 q 779 472 812 452 q 744 491 764 481 q 700 507 724 500 q 596 532 651 519 l 556 541 q 530 547 539 545 q 510 553 519 550 q 492 561 501 557 q 461 582 473 569 q 452 611 452 593 q 482 659 452 637 q 564 677 517 677 q 567 677 565 677 q 648 660 625 677 q 673 636 662 649 q 692 608 684 624 q 720 575 705 587 q 757 564 732 565 q 802 582 783 564 q 819 621 820 600 q 806 669 819 646 q 761 717 793 691 q 727 737 745 728 q 685 753 708 746 q 635 763 661 760 q 576 766 609 766 q 440 746 496 766 q 350 688 380 724 q 319 602 319 652 q 349 515 319 549 q 428 461 378 479 q 550 427 475 441 q 600 415 578 420 q 637 406 621 411 q 689 378 669 397 q 710 334 710 361 q 672 273 710 297 q 578 250 637 250 q 575 250 577 250 q 504 261 526 250 q 463 292 475 274 q 435 338 446 312 q 408 374 425 361 q 371 386 393 386 q 325 371 342 386 q 307 332 307 353 z "},"t":{"ha":1156,"x_min":35,"x_max":1121,"o":"m 35 476 q 125 423 73 441 q 232 404 177 404 q 341 424 287 404 q 437 486 395 444 q 429 485 433 486 q 421 485 425 485 q 393 490 407 485 q 370 506 378 496 q 360 527 361 515 q 370 551 360 539 q 404 572 380 563 q 394 571 399 572 q 383 571 389 571 q 368 572 376 571 q 354 574 361 572 q 300 597 319 580 q 269 633 280 615 q 299 652 283 646 q 345 660 316 659 q 256 700 282 673 q 222 761 230 726 q 259 767 241 764 q 289 768 278 771 q 215 830 236 795 q 197 888 197 861 q 197 896 197 893 q 285 864 245 880 q 358 835 325 849 q 420 807 392 821 q 475 781 449 793 q 514 756 495 772 l 557 720 q 588 791 572 755 q 625 859 605 827 q 671 919 646 892 q 728 964 696 946 q 711 933 726 948 q 796 971 747 964 q 774 945 793 956 q 755 937 764 941 q 739 930 747 933 q 761 937 745 932 q 794 948 777 943 q 827 954 812 953 q 844 949 842 956 q 840 935 848 941 q 818 925 831 929 q 793 918 806 921 q 777 914 781 916 l 751 905 q 759 906 755 906 q 766 906 763 906 q 827 897 797 906 q 878 872 854 888 q 923 836 903 857 q 959 789 943 814 q 982 737 974 764 l 985 726 q 986 721 985 724 q 987 714 987 718 q 1020 709 1002 709 q 1057 711 1039 709 q 1092 719 1076 714 q 1116 728 1107 724 q 1074 683 1105 701 q 997 663 1044 665 q 1055 649 1021 653 q 1072 648 1063 648 q 1087 648 1080 648 q 1121 650 1105 648 q 1071 618 1101 631 q 991 604 1040 604 q 936 489 975 542 q 843 394 897 435 q 723 326 789 353 q 583 286 656 298 q 470 275 526 275 q 385 281 427 275 q 195 341 286 295 q 35 476 102 389 z "},"u":{"ha":1156,"x_min":173,"x_max":983,"o":"m 173 340 q 174 316 174 326 q 176 301 175 307 q 202 267 180 281 q 230 258 216 258 q 244 261 238 258 l 443 326 q 480 350 464 333 q 498 383 496 367 q 487 416 501 398 q 454 441 473 433 l 243 518 q 203 510 223 526 q 176 465 183 494 q 174 429 175 446 q 174 395 174 412 q 173 376 173 385 q 173 357 173 367 l 173 340 m 267 876 q 275 895 267 884 q 310 926 284 907 q 346 946 326 938 q 387 960 366 954 q 430 968 408 966 q 471 972 452 971 l 481 972 q 514 970 500 972 q 563 949 547 964 q 579 913 579 933 l 582 562 q 572 525 582 541 q 547 505 562 509 q 532 506 541 504 q 514 514 523 509 q 498 526 506 519 q 485 543 490 534 l 288 843 q 275 859 281 852 q 267 876 267 867 m 337 61 q 339 47 337 54 q 348 25 342 35 q 366 11 354 16 l 510 -35 q 523 -37 515 -37 q 533 -36 526 -37 q 552 -30 543 -34 q 569 -19 562 -25 q 581 -5 576 -12 q 586 11 586 3 l 591 228 q 581 264 591 249 q 555 281 571 279 q 538 280 547 282 q 520 272 529 277 q 502 260 511 267 q 486 245 493 254 l 347 92 q 338 71 340 84 l 337 61 m 673 472 q 681 446 673 457 q 713 424 692 430 q 727 421 720 422 q 741 419 734 420 q 757 421 749 419 l 950 454 q 981 485 977 461 q 983 504 983 495 q 979 526 983 515 q 965 551 976 534 l 941 585 q 913 619 928 603 q 886 643 897 635 q 846 661 865 661 l 842 661 q 804 643 820 659 l 693 519 q 674 483 677 503 q 673 477 673 480 q 673 472 673 475 m 685 285 q 697 250 686 268 l 807 62 q 824 50 812 54 q 846 46 834 47 q 849 47 848 46 q 875 53 862 47 q 893 66 888 58 q 928 115 912 92 q 954 156 941 135 q 972 191 966 178 q 977 212 977 201 q 970 237 977 227 q 936 264 956 259 l 762 311 q 724 316 744 316 l 720 316 q 692 309 698 315 q 685 290 685 302 q 685 285 685 288 z "},"v":{"ha":1156,"x_min":35,"x_max":1120,"o":"m 35 737 l 115 804 l 193 869 q 354 961 299 954 q 361 962 357 962 q 369 962 366 962 q 510 799 482 962 q 536 648 526 705 q 553 567 546 590 q 633 412 591 413 q 736 513 667 412 q 808 665 803 614 q 809 675 809 671 q 810 684 810 680 q 736 751 810 751 q 656 736 699 751 q 950 972 732 971 l 962 972 q 1120 793 1119 968 q 1120 782 1120 788 q 1120 770 1120 776 q 899 366 1112 620 q 524 97 678 98 q 364 261 429 97 l 319 411 l 275 561 q 171 724 227 724 q 86 676 158 724 l 35 737 z "},"w":{"ha":1156,"x_min":35,"x_max":1121,"o":"m 35 467 q 54 600 35 536 q 109 721 73 665 q 194 823 144 777 q 304 902 243 869 q 434 953 364 935 q 578 971 503 971 q 722 953 652 971 q 852 902 791 935 q 962 823 912 869 q 1047 721 1011 777 q 1102 600 1082 665 q 1121 467 1121 536 q 1102 332 1121 397 q 1047 212 1082 268 q 962 109 1012 155 q 852 30 912 62 q 722 -22 791 -4 q 583 -39 654 -39 q 578 -39 581 -39 q 572 -39 575 -39 q 434 -22 500 -39 q 304 29 365 -4 q 194 109 243 62 q 109 212 144 155 q 54 332 73 268 q 35 467 35 397 m 77 467 q 97 334 77 397 q 155 215 117 270 q 244 118 192 161 q 358 47 296 75 l 119 656 q 77 467 77 565 m 158 722 q 176 722 168 722 q 192 721 184 721 q 235 722 212 721 q 278 724 258 722 q 325 728 301 724 q 340 722 334 728 q 347 710 346 717 q 342 696 347 703 q 328 689 338 690 q 319 689 323 689 q 311 688 315 688 q 293 686 303 686 q 271 685 282 685 l 453 180 l 562 486 l 485 685 q 464 686 474 685 q 447 688 454 686 q 439 689 443 688 q 432 689 435 689 q 417 695 422 689 q 413 708 413 701 q 419 722 414 715 q 435 728 425 728 q 482 724 458 725 q 525 722 502 722 q 567 721 547 721 q 610 722 587 721 q 654 724 633 722 q 701 728 677 724 q 716 722 711 728 q 723 710 722 717 q 719 696 724 703 q 704 689 714 690 q 695 689 700 689 q 686 688 691 688 q 668 686 678 686 q 647 685 659 685 l 828 183 l 878 339 q 906 422 897 385 q 916 490 915 460 q 912 530 916 511 q 902 564 908 548 q 889 592 896 579 q 875 618 882 606 q 840 673 855 647 q 825 728 825 699 q 848 785 825 760 q 909 810 871 810 l 916 810 q 763 900 848 869 q 578 932 677 932 q 336 875 446 932 q 158 722 226 817 m 436 20 q 578 0 507 0 q 663 7 623 0 q 745 26 704 14 l 741 33 l 586 425 l 436 20 m 829 64 q 931 137 885 94 q 1009 231 977 179 q 1061 342 1042 283 q 1079 467 1079 402 q 1017 690 1079 587 q 1021 642 1021 667 q 1013 565 1021 605 q 982 475 1004 526 l 829 64 z "},"x":{"ha":1156,"x_min":35,"x_max":1121,"o":"m 35 972 l 140 972 l 283 515 l 380 823 l 334 972 l 437 972 l 582 517 l 726 972 l 831 972 l 1078 972 l 1078 926 l 950 690 q 1023 658 989 680 q 1076 606 1057 636 q 1108 539 1096 575 q 1121 463 1121 503 q 1108 369 1121 411 q 1065 290 1095 327 q 917 221 1007 221 q 796 262 848 221 q 720 374 745 304 l 802 406 q 848 339 819 365 q 918 314 878 314 q 987 357 961 314 q 1017 463 1017 399 q 1009 528 1017 496 q 986 581 1002 561 q 940 620 968 603 q 873 637 913 637 l 806 637 l 806 654 l 974 889 l 806 889 l 796 889 l 591 260 l 582 260 l 432 725 l 283 260 l 273 260 l 35 972 z "},"y":{"ha":1156,"x_min":125,"x_max":1031,"o":"m 125 94 l 125 392 q 137 442 125 418 q 169 484 149 466 q 216 512 189 502 q 273 522 243 522 l 882 522 q 939 512 912 522 q 987 484 966 502 q 1019 442 1007 466 q 1031 392 1031 418 l 1031 94 q 1019 43 1031 67 q 987 2 1007 20 q 939 -26 966 -16 q 882 -36 912 -36 l 273 -36 q 216 -26 243 -36 q 169 2 189 -16 q 137 43 149 20 q 125 94 125 67 m 187 376 l 252 376 l 252 61 l 314 61 l 314 375 l 389 375 l 389 422 l 187 422 l 187 376 m 261 974 l 334 974 l 375 838 l 416 974 l 489 974 l 411 791 l 411 579 l 345 579 l 345 791 l 261 974 m 376 329 l 378 163 q 377 130 378 143 q 378 110 376 117 q 380 86 379 99 q 393 66 382 74 q 419 60 404 60 q 447 64 433 60 q 473 78 461 69 q 490 96 485 86 l 489 62 l 541 61 l 541 329 l 478 329 l 478 161 q 479 133 478 143 q 476 121 479 123 q 460 104 473 109 q 440 119 448 100 q 439 133 439 122 q 440 160 440 143 l 439 329 l 376 329 m 484 690 l 484 764 q 490 825 484 802 q 517 861 498 850 q 564 875 536 875 q 606 867 588 875 q 633 843 623 860 q 646 815 642 831 q 650 770 650 798 l 650 699 q 646 643 650 660 q 632 608 645 628 q 606 586 620 591 q 567 578 588 578 q 526 585 544 578 q 501 604 509 589 q 488 635 492 616 q 484 690 484 653 m 539 653 q 547 634 539 642 q 567 625 555 625 q 586 633 578 625 q 595 653 595 642 l 595 800 q 586 821 595 812 q 567 829 578 829 q 548 821 556 829 q 539 800 539 812 l 539 653 m 578 64 l 629 65 l 633 87 q 679 62 659 66 q 713 66 699 58 q 734 93 727 74 q 742 138 742 112 l 742 277 q 713 334 742 316 q 692 339 704 339 q 640 318 669 339 l 640 422 l 578 422 l 578 64 m 639 126 l 639 283 q 647 298 639 292 q 667 304 656 304 q 686 298 677 304 q 694 283 694 292 l 694 126 q 686 112 694 118 q 667 106 677 106 q 647 112 656 106 q 639 126 639 118 m 689 637 q 689 640 689 637 q 689 648 689 642 l 689 677 l 689 864 l 747 864 l 747 648 q 753 634 747 640 q 770 628 760 628 q 786 634 779 628 q 793 648 793 640 l 793 864 l 847 864 l 847 587 l 778 587 l 779 610 q 770 597 774 603 q 761 589 766 592 q 737 582 750 582 q 711 589 721 582 q 696 607 703 594 q 692 618 693 612 q 690 629 692 624 q 689 637 690 633 m 779 155 q 807 80 779 102 q 861 59 832 59 l 867 59 q 923 86 899 61 q 941 134 941 104 q 940 144 941 139 q 939 155 940 150 l 892 155 l 892 149 l 892 125 q 884 108 892 114 q 865 102 876 102 l 856 102 q 838 108 845 102 q 831 125 831 114 l 831 127 l 831 154 l 831 189 l 939 189 l 939 227 q 938 267 939 248 q 935 297 937 286 q 918 327 932 315 q 886 342 904 338 q 863 345 874 345 q 848 343 855 345 q 814 330 828 340 q 787 297 795 318 q 779 239 779 275 l 779 155 m 831 235 l 832 268 q 840 286 832 279 q 860 293 848 293 l 863 293 q 883 286 875 293 q 892 268 892 279 l 890 235 l 831 235 z "},"z":{"ha":1156,"x_min":210,"x_max":946,"o":"m 210 343 q 218 400 210 369 q 244 458 226 431 q 289 503 262 485 q 355 521 317 521 q 398 512 379 521 q 443 484 416 504 q 479 511 460 496 q 517 543 497 526 l 593 612 q 662 681 630 647 q 713 741 693 715 q 579 775 637 762 q 484 789 521 789 q 446 783 468 789 q 396 761 425 777 q 349 835 349 772 q 359 886 349 861 q 389 930 370 911 q 434 960 408 949 q 489 971 460 971 q 584 962 534 971 q 702 930 634 952 l 808 895 q 838 931 825 918 q 867 945 851 945 q 897 936 883 945 q 922 915 911 928 q 939 887 932 903 q 945 859 945 872 q 918 791 945 827 q 825 715 890 755 q 752 626 787 665 q 681 550 718 586 q 604 479 644 514 q 514 406 563 445 q 573 326 547 361 q 620 263 599 290 q 658 217 642 236 q 688 184 675 197 q 734 150 715 157 q 774 143 752 143 q 916 184 837 143 q 936 162 926 178 q 946 126 946 147 q 924 68 946 97 q 867 15 903 39 q 787 -24 832 -9 q 696 -39 742 -39 q 643 -33 667 -38 q 596 -15 619 -28 q 551 22 574 -1 q 500 84 528 46 q 441 176 473 122 q 367 304 408 231 q 341 286 355 295 q 311 269 327 277 q 254 254 279 254 q 236 258 244 254 q 222 272 228 262 q 213 299 216 282 q 210 343 210 317 z "},"{":{"ha":1158,"x_min":203,"x_max":945,"o":"m 203 165 l 203 179 l 203 263 q 205 271 203 267 q 208 279 206 275 q 212 286 209 283 q 413 523 313 406 q 614 760 513 641 q 486 744 536 745 q 406 750 436 743 q 362 767 376 757 q 344 783 348 777 q 343 783 344 783 l 341 787 q 337 808 338 796 q 338 827 337 821 q 356 887 342 859 q 389 940 371 916 q 395 947 392 943 q 400 954 397 951 q 411 960 404 958 q 428 956 418 962 q 442 949 435 952 q 450 945 448 945 q 524 925 486 930 q 602 919 563 920 q 739 922 671 916 q 875 942 807 928 q 885 942 881 943 q 891 938 888 941 q 893 927 895 935 l 883 840 q 880 832 883 836 q 872 823 876 827 q 863 815 867 819 q 857 809 859 811 q 774 713 816 761 q 692 617 733 665 l 496 391 q 435 319 465 354 q 426 309 429 313 q 421 300 422 304 q 419 291 420 296 q 419 276 419 286 q 500 263 460 278 q 574 226 540 248 q 634 189 604 207 q 689 160 660 174 q 743 137 718 145 q 795 126 768 130 q 848 125 822 123 q 897 135 873 127 q 941 160 921 144 q 945 109 946 136 q 938 56 945 82 q 919 5 932 29 q 888 -36 907 -18 q 846 -62 870 -53 q 791 -67 822 -71 q 703 -41 746 -62 q 621 2 660 -20 q 582 28 601 14 q 544 56 563 42 q 506 84 525 71 q 465 109 486 98 q 412 131 438 123 q 359 142 385 138 q 304 147 332 146 q 248 148 277 148 l 216 148 q 209 152 213 149 q 203 165 205 155 z "},"|":{"ha":1158,"x_min":68,"x_max":1124,"o":"m 68 411 l 68 597 l 254 597 l 254 690 q 273 798 254 747 q 327 886 293 848 q 406 946 361 924 q 503 968 452 968 l 661 968 l 661 785 l 503 785 q 480 778 492 785 q 459 758 469 770 q 445 727 450 745 q 439 690 439 710 l 439 597 l 718 597 l 718 690 q 737 798 718 747 q 791 886 757 848 q 870 946 825 924 q 967 968 916 968 l 1124 968 l 1124 785 l 967 785 q 944 778 956 785 q 923 758 932 770 q 908 727 914 745 q 903 690 903 710 l 903 597 l 1088 597 l 1088 411 l 903 411 l 903 -53 l 718 -53 l 718 411 l 439 411 l 439 -53 l 254 -53 l 254 411 l 68 411 z "},"}":{"ha":1158,"x_min":136,"x_max":1073,"o":"m 136 297 l 136 922 l 188 974 l 865 974 l 917 922 l 917 511 l 1073 869 l 1073 557 l 917 245 l 917 -16 l 865 -68 l 240 -68 l 188 -16 l 188 88 l 761 88 l 761 245 l 188 245 l 136 297 m 292 401 l 761 401 l 761 818 l 292 818 l 292 401 z "},"~":{"ha":1158,"x_min":126,"x_max":1035,"o":"m 127 564 q 126 574 127 564 q 126 607 125 584 q 133 654 127 631 q 154 692 139 677 q 193 710 168 707 q 258 696 218 713 q 296 628 281 665 q 321 554 310 592 q 345 478 333 515 q 378 407 357 440 q 431 351 397 372 q 504 324 465 330 q 575 324 540 318 q 643 345 610 330 q 704 382 675 359 q 755 432 733 405 q 799 509 783 468 q 825 593 814 551 q 847 679 836 636 q 878 762 858 722 q 896 785 884 777 q 922 795 907 793 q 951 797 936 798 q 980 791 967 795 q 1008 770 998 784 q 1025 739 1019 756 q 1033 703 1031 722 q 1035 667 1035 684 q 1005 508 1033 587 q 930 364 978 430 q 817 249 883 298 q 673 177 751 199 q 575 162 625 163 q 476 169 525 160 q 380 197 427 178 q 293 244 334 216 q 219 311 252 273 q 164 394 186 348 q 150 427 155 410 q 142 461 145 444 q 137 496 139 479 q 132 532 134 514 q 131 534 131 533 q 130 536 131 535 q 127 564 129 545 m 389 604 q 377 662 380 631 q 379 721 374 692 q 396 778 384 751 q 429 827 409 805 q 464 843 444 842 q 498 827 484 844 q 538 781 522 807 q 562 724 554 754 q 570 662 570 694 q 561 602 570 631 q 541 572 554 584 q 510 554 527 560 q 474 549 493 549 q 438 555 455 549 q 409 574 422 562 q 389 604 395 586 m 597 718 q 596 769 595 742 q 604 821 597 795 q 624 866 610 846 q 662 898 637 886 q 702 891 685 901 q 731 864 719 881 q 749 826 743 847 q 759 787 756 805 q 764 727 763 759 q 759 665 766 694 q 737 610 753 635 q 690 574 721 586 q 646 589 663 574 q 618 626 629 604 q 604 672 608 647 q 597 718 599 697 z "},"":{"ha":694,"x_min":0,"x_max":0,"o":""},"":{"ha":1156,"x_min":68,"x_max":1101,"o":"m 68 340 q 84 454 68 399 q 129 557 100 509 q 199 644 158 605 q 290 712 240 684 q 397 755 340 740 q 516 770 454 770 q 588 765 553 770 q 656 749 623 760 l 656 489 q 574 515 616 508 q 535 518 555 517 q 493 514 515 518 q 448 501 471 510 q 403 476 425 492 q 337 412 357 444 q 309 356 317 381 q 306 300 301 327 q 330 229 310 260 q 351 203 338 216 q 381 180 363 190 q 424 164 399 170 q 479 158 448 158 q 544 165 515 158 q 597 185 573 173 q 639 212 621 197 q 671 243 658 227 q 722 330 704 281 l 722 723 q 774 693 749 709 q 824 656 800 676 q 948 597 885 619 q 1083 578 1011 576 q 1092 575 1088 578 q 1098 566 1095 572 q 1101 545 1101 559 q 1096 514 1101 530 q 1075 481 1090 498 q 1046 450 1063 465 q 1011 423 1032 437 q 960 399 989 409 q 964 370 962 385 q 965 340 965 355 q 930 172 965 250 q 833 35 895 94 q 691 -57 772 -23 q 516 -91 609 -91 q 397 -76 454 -91 q 290 -32 340 -60 q 199 35 240 -4 q 129 122 158 75 q 84 225 100 170 q 68 340 68 280 z "},"":{"ha":1156,"x_min":68,"x_max":1095,"o":"m 68 158 q 185 148 130 157 q 288 122 240 138 q 375 85 335 106 q 448 44 416 65 q 581 -68 525 -5 q 714 44 637 -5 q 787 85 747 65 q 875 122 827 106 q 978 148 923 138 q 1095 158 1033 157 l 1095 294 q 894 264 991 287 q 809 239 852 254 q 724 205 766 225 q 646 159 683 185 q 581 100 609 133 q 517 159 553 133 q 439 205 480 185 q 354 239 397 225 q 269 264 311 254 q 68 294 172 287 l 68 158 m 99 492 q 105 545 100 517 q 129 595 114 576 q 160 625 144 614 q 188 640 175 635 q 205 644 201 644 q 268 747 229 700 q 357 827 307 793 q 468 880 408 861 q 593 899 528 899 q 720 880 659 899 q 830 827 780 861 q 920 746 881 793 q 983 643 959 699 q 989 642 985 643 l 989 843 q 961 865 972 850 q 951 899 951 880 q 969 942 951 924 q 1013 960 987 960 q 1056 942 1038 960 q 1074 899 1074 924 q 1061 861 1074 877 q 1027 840 1047 845 l 1027 623 q 1056 593 1042 612 q 1079 545 1070 575 q 1085 492 1084 517 q 1082 451 1086 471 q 1065 420 1078 430 q 1051 407 1060 414 q 1031 393 1044 401 q 1001 379 1019 386 q 995 358 998 369 q 988 338 991 348 q 960 333 975 336 q 930 328 946 331 q 965 409 953 366 q 977 499 977 452 q 946 640 977 574 q 863 755 916 706 q 741 833 811 804 q 590 861 670 861 q 439 833 510 861 q 317 755 369 804 q 234 640 264 706 q 203 499 203 574 q 216 407 203 451 q 252 323 229 363 q 226 329 238 327 q 201 334 214 332 q 193 355 197 345 q 186 378 190 366 l 186 378 q 154 392 167 385 q 133 406 141 400 q 118 420 123 414 q 101 451 105 430 q 99 492 98 471 m 245 437 q 272 568 245 507 q 345 676 298 630 q 454 748 392 722 q 588 774 517 774 q 722 748 659 774 q 830 676 784 722 q 904 568 877 630 q 931 437 931 507 q 925 374 931 404 q 908 315 920 344 q 821 292 866 306 q 732 257 775 277 q 649 210 688 237 q 581 148 610 183 q 516 208 553 181 q 438 254 479 234 q 353 288 397 274 q 269 313 310 302 q 251 372 257 341 q 245 437 245 404 m 349 490 q 360 464 349 475 q 387 452 372 452 q 415 464 404 452 q 426 490 426 475 q 415 517 426 506 q 387 528 404 528 q 360 517 372 528 q 349 490 349 506 m 399 586 q 416 545 399 562 q 458 528 433 528 q 500 545 483 528 q 517 586 517 562 q 500 627 517 610 q 458 644 483 644 q 416 627 433 644 q 399 586 399 610 z "},"":{"ha":1156,"x_min":203,"x_max":898,"o":"m 203 71 l 280 174 q 351 117 311 142 q 431 78 385 96 q 534 61 477 61 q 616 76 577 61 q 684 116 655 90 q 730 177 713 142 q 747 256 747 213 q 729 337 747 301 q 680 396 711 372 q 607 433 649 420 q 517 446 565 446 q 479 445 496 446 q 456 443 461 444 l 422 518 l 675 819 q 688 833 682 826 q 701 845 695 840 q 715 857 708 851 l 715 859 q 696 857 706 858 q 679 856 688 856 q 662 855 669 855 l 372 855 l 372 724 l 243 724 l 243 974 l 879 974 l 879 873 l 603 555 q 704 531 652 549 q 799 477 755 512 q 870 389 842 442 q 898 262 898 336 q 872 136 898 196 q 801 31 847 77 q 688 -41 754 -14 q 541 -68 623 -68 q 465 -62 501 -68 q 398 -46 429 -56 q 340 -24 367 -37 q 292 1 314 -12 q 203 71 241 32 z "},"":{"ha":1158,"x_min":113,"x_max":1027,"o":"m 113 496 q 130 620 113 560 q 176 730 146 679 q 247 824 205 782 q 339 896 288 866 q 448 943 390 926 q 570 960 507 960 q 691 943 633 960 q 800 896 749 926 q 893 824 851 866 q 964 730 935 782 q 1010 620 994 679 q 1027 496 1027 560 q 1011 376 1027 434 q 967 268 996 319 q 899 176 939 218 q 810 103 859 134 q 839 63 820 79 q 878 37 859 47 q 927 18 901 24 l 927 -61 q 835 -66 874 -71 q 766 -46 795 -62 q 715 -7 736 -31 q 677 47 694 17 q 625 37 652 41 q 570 34 598 34 q 448 51 507 34 q 339 97 390 67 q 247 169 288 127 q 176 263 205 212 q 130 373 146 314 q 113 496 113 433 m 340 435 q 359 323 340 376 q 409 232 377 271 q 483 170 440 193 q 573 147 525 147 q 627 155 601 147 q 590 201 610 185 q 553 226 570 218 q 513 237 532 235 l 513 328 q 584 323 551 330 q 646 304 617 317 q 699 274 675 292 q 742 236 723 256 q 789 326 772 275 q 806 435 806 377 l 806 555 q 788 667 806 614 q 738 759 770 720 q 664 821 707 798 q 573 844 621 844 q 483 821 525 844 q 409 759 440 798 q 359 667 377 720 q 340 555 340 614 l 340 435 z "},"":{"ha":1158,"x_min":65,"x_max":1122,"o":"m 65 310 q 76 360 65 337 q 107 399 87 382 l 107 220 q 76 260 87 237 q 65 310 65 283 m 151 197 l 151 422 q 184 427 168 427 q 195 427 192 427 l 195 193 l 184 193 q 167 194 176 193 q 151 197 159 195 m 240 193 l 240 414 q 244 411 242 412 q 249 408 247 410 q 285 488 257 452 l 285 193 l 240 193 m 329 193 l 329 529 q 373 551 349 542 l 373 193 l 329 193 m 417 193 l 417 560 q 425 561 421 560 q 433 561 429 561 q 461 559 448 561 l 461 193 l 417 193 m 484 193 l 484 554 q 530 534 509 547 q 540 548 535 541 q 551 561 545 555 l 551 193 l 484 193 m 573 193 l 573 583 q 641 624 602 609 q 722 639 679 639 q 805 623 766 639 q 874 581 844 608 q 923 517 904 554 q 947 439 943 481 q 970 447 959 444 q 996 450 982 450 q 1046 439 1023 450 q 1086 412 1069 429 q 1112 371 1103 394 q 1122 321 1122 348 q 1114 274 1122 296 q 1090 234 1106 252 q 1051 206 1075 217 q 994 193 1027 195 l 994 193 l 573 193 z "},"":{"ha":1158,"x_min":65,"x_max":1141,"o":"m 73 607 q 70 612 73 607 q 65 625 66 616 q 68 644 64 634 q 81 647 70 650 q 107 636 92 644 q 142 615 123 627 q 183 591 162 603 q 224 570 204 579 q 262 556 245 560 q 320 546 287 550 q 386 538 353 541 q 449 534 419 535 q 497 534 479 533 q 531 531 516 534 q 558 522 546 528 q 582 508 571 516 q 603 490 593 499 q 608 486 604 488 l 608 505 q 619 520 608 513 q 645 531 629 527 q 678 537 661 535 q 710 539 696 539 l 880 539 q 900 543 885 539 q 936 554 915 547 q 979 570 956 561 q 1024 589 1002 578 q 1064 609 1046 599 q 1090 630 1082 620 q 1117 650 1104 645 q 1136 650 1129 655 q 1141 628 1142 644 q 1125 584 1139 612 q 1086 534 1109 554 q 1036 497 1063 513 q 977 467 1008 481 q 914 437 945 453 l 914 267 q 911 247 914 261 q 902 214 909 232 q 884 176 895 195 q 856 140 873 157 q 817 114 840 124 q 765 103 794 103 q 691 114 721 103 q 643 141 661 125 q 616 172 625 156 q 608 199 608 189 l 608 357 q 574 369 591 361 l 574 199 q 567 176 574 188 q 545 154 559 164 q 512 137 531 144 q 472 131 494 131 q 421 144 450 131 q 366 179 392 158 q 321 223 340 199 q 303 267 303 247 l 303 451 q 221 487 259 469 q 188 503 205 494 q 157 521 172 512 q 130 539 142 530 q 112 556 119 548 q 89 585 98 572 q 73 607 79 597 m 334 713 q 344 760 334 738 q 370 798 353 781 q 408 823 386 814 q 454 833 429 833 q 500 823 478 833 q 538 798 522 814 q 563 760 554 781 q 572 713 572 738 q 563 667 572 689 q 538 629 554 646 q 500 604 522 613 q 454 594 478 594 q 408 604 429 594 q 370 629 386 613 q 344 667 353 646 q 334 713 334 689 m 648 713 q 657 760 648 738 q 683 798 667 781 q 720 823 699 814 q 766 833 742 833 q 812 823 791 833 q 850 798 834 814 q 876 760 867 781 q 886 713 886 738 q 876 667 886 689 q 850 629 867 646 q 812 604 834 613 q 766 594 791 594 q 720 604 742 594 q 683 629 699 613 q 657 667 667 646 q 648 713 648 689 z "},"":{"ha":1156,"x_min":92,"x_max":1028,"o":"m 92 463 q 129 645 92 560 q 229 794 165 730 q 378 895 293 858 q 560 931 463 931 q 742 895 657 931 q 891 794 827 858 q 991 645 955 730 q 1028 463 1028 560 q 991 281 1028 366 q 891 132 955 196 q 742 32 827 68 q 560 -5 657 -5 q 378 32 463 -5 q 229 132 293 68 q 129 281 165 196 q 92 463 92 366 m 231 402 l 233 402 q 265 283 237 338 q 337 187 293 228 q 438 123 381 146 q 560 100 496 100 q 682 123 625 100 q 783 187 739 146 q 855 283 827 228 q 888 402 882 338 l 889 402 l 889 524 l 231 524 l 231 402 m 268 415 l 268 490 l 845 490 l 845 415 l 268 415 m 387 658 q 405 615 387 633 q 448 597 422 597 q 491 615 473 597 q 509 658 509 633 q 491 701 509 684 q 448 719 473 719 q 405 701 422 719 q 387 658 387 684 m 618 658 q 636 615 618 633 q 680 597 654 597 q 723 615 705 597 q 741 658 741 633 q 723 701 741 684 q 680 719 705 719 q 636 701 654 719 q 618 658 618 684 z "},"":{"ha":1158,"x_min":136,"x_max":1044,"o":"m 136 174 l 136 623 q 141 651 136 638 q 156 674 146 665 q 179 689 166 684 q 207 695 192 695 l 972 695 q 1023 674 1002 695 q 1044 623 1044 654 l 1044 174 q 1038 146 1044 159 q 1023 124 1032 134 q 1000 109 1013 114 q 972 103 987 103 l 339 103 q 313 56 332 73 q 274 31 294 39 q 224 19 251 22 q 241 70 239 47 q 241 103 243 94 l 207 103 q 179 109 192 103 q 156 124 166 114 q 141 146 146 134 q 136 174 136 159 m 252 316 q 262 292 252 302 q 286 282 272 282 q 310 292 300 282 q 320 316 320 302 q 310 340 320 330 q 286 350 300 350 q 262 340 272 350 q 252 316 252 330 m 526 212 q 557 170 535 186 q 608 153 579 153 q 641 160 625 153 q 668 178 656 167 q 686 206 680 190 q 693 239 693 222 l 693 246 l 526 212 m 863 316 q 872 292 863 302 q 897 282 882 282 q 920 292 910 282 q 930 316 930 302 q 920 340 930 330 q 897 350 910 350 q 872 340 882 350 q 863 316 863 330 z "},"":{"ha":1158,"x_min":68,"x_max":1095,"o":"m 68 438 l 68 480 q 81 568 71 526 q 106 647 91 609 q 153 740 125 696 q 216 813 182 784 q 217 768 216 789 q 220 733 218 747 q 250 645 228 689 q 302 570 272 601 q 358 528 327 547 q 423 492 389 510 q 555 424 490 456 q 686 356 619 391 q 728 332 707 345 q 767 303 749 319 q 799 268 785 287 q 819 227 812 250 q 824 165 827 195 q 809 107 820 134 q 783 58 798 81 q 752 20 767 36 q 689 -28 724 -9 q 610 -54 653 -47 l 541 -54 q 353 -1 435 -42 q 212 103 270 40 q 159 170 184 134 q 115 248 134 206 q 83 336 96 289 q 68 438 71 384 m 397 821 q 401 844 397 831 q 410 870 405 857 q 422 895 415 883 q 437 916 429 907 q 496 954 460 941 q 572 974 532 967 l 597 974 q 785 930 699 966 q 935 835 870 895 q 1040 690 999 774 q 1095 500 1082 606 l 1095 420 q 1093 416 1093 420 q 1072 304 1088 355 q 1033 212 1055 252 q 1016 184 1025 197 q 997 161 1007 171 q 979 306 1002 245 q 915 410 956 366 q 863 453 892 435 q 802 488 835 471 q 676 553 739 521 q 551 618 613 586 q 492 651 522 634 q 441 691 463 669 q 406 746 418 714 q 397 821 393 777 z "},"":{"ha":1158,"x_min":68,"x_max":1109,"o":"m 68 433 q 86 577 68 508 q 139 706 105 646 q 220 815 173 766 q 326 900 268 865 q 450 955 384 935 q 589 974 517 974 q 727 955 661 974 q 851 900 793 935 q 957 815 909 865 q 1038 706 1004 766 q 1091 577 1072 646 q 1109 433 1109 508 q 1109 423 1109 428 q 1109 412 1109 418 q 1086 551 1106 484 q 1031 675 1066 618 q 950 780 997 733 q 846 861 903 827 q 724 913 789 895 q 589 932 659 932 q 453 913 518 932 q 332 861 389 895 q 228 780 275 827 q 146 675 180 733 q 92 551 112 618 q 69 412 72 484 q 68 423 68 418 q 68 433 68 428 m 258 434 q 259 424 258 429 q 260 414 259 419 q 291 539 264 481 q 362 642 318 598 q 465 710 406 685 q 589 735 523 735 q 713 710 654 735 q 815 642 771 685 q 886 539 859 598 q 918 414 913 481 q 919 424 918 419 q 919 434 919 429 q 907 525 919 481 q 874 607 895 569 q 822 676 852 645 q 755 730 792 707 q 676 764 719 752 q 589 777 634 777 q 501 764 543 777 q 422 730 458 752 q 355 676 385 707 q 303 607 325 645 q 270 525 282 569 q 258 434 258 481 m 431 231 q 444 115 431 170 q 477 20 456 60 q 527 -44 498 -21 q 589 -68 556 -68 q 650 -44 621 -68 q 700 20 678 -21 q 733 115 721 60 q 746 231 746 170 q 733 328 746 293 q 700 378 721 362 q 650 398 678 395 q 589 401 621 401 q 527 398 556 401 q 477 378 498 395 q 444 328 456 362 q 431 231 431 293 m 481 523 q 489 479 481 500 q 512 444 498 459 q 547 420 527 429 q 589 411 566 411 q 631 420 611 411 q 665 444 650 429 q 688 479 680 459 q 696 523 696 500 q 688 566 696 546 q 665 602 680 587 q 631 626 650 617 q 589 635 611 635 q 547 626 566 635 q 512 602 527 617 q 489 566 498 587 q 481 523 481 546 z "},"":{"ha":1158,"x_min":68,"x_max":1088,"o":"m 68 541 q 78 593 68 568 q 107 635 89 617 q 149 663 125 652 q 201 673 173 673 q 246 666 224 673 q 284 644 267 658 q 313 612 301 631 q 331 571 326 593 l 604 479 q 650 510 624 498 q 707 523 677 522 l 749 647 q 748 651 749 648 q 748 654 748 653 q 762 721 748 690 q 798 774 775 751 q 852 811 821 798 q 918 824 883 824 q 985 811 954 824 q 1039 774 1016 798 q 1075 721 1062 751 q 1088 654 1088 690 q 1080 602 1088 627 q 1056 555 1072 576 q 1020 519 1041 534 q 975 494 1000 503 l 860 397 q 862 373 862 385 q 850 315 862 342 q 818 267 838 288 q 770 235 798 247 q 711 223 743 223 q 660 232 684 223 q 616 256 636 241 q 583 293 597 272 q 564 340 570 315 l 281 435 q 244 415 264 422 q 201 408 224 408 q 149 419 173 408 q 107 447 125 429 q 78 489 89 465 q 68 541 68 513 m 110 541 q 117 505 110 522 q 137 476 124 488 q 166 456 150 463 q 203 449 183 449 q 217 450 210 449 q 231 453 224 450 l 186 468 q 163 486 172 475 q 151 511 155 497 q 148 538 146 524 q 156 566 149 553 q 175 588 163 579 q 200 602 186 597 q 228 604 213 606 q 256 596 242 603 l 285 587 q 251 621 273 608 q 203 634 229 634 q 166 627 183 634 q 137 607 150 620 q 117 577 124 594 q 110 541 110 560 m 591 330 q 627 280 601 300 q 688 260 654 260 q 727 268 709 260 q 759 289 745 275 q 780 321 772 303 q 788 360 788 340 q 780 399 788 380 q 759 431 772 417 q 727 453 745 445 q 688 460 709 460 q 665 458 675 460 l 722 439 q 744 420 734 431 q 757 396 753 409 q 760 368 761 382 q 751 340 758 353 q 733 318 744 327 q 708 304 722 309 q 680 301 694 300 q 652 310 665 302 l 591 330 m 785 654 q 796 603 785 627 q 824 561 806 578 q 866 533 842 543 q 918 522 890 522 q 969 533 945 522 q 1011 561 994 543 q 1040 603 1029 578 q 1050 654 1050 627 q 1040 706 1050 682 q 1011 747 1029 730 q 969 775 994 765 q 918 786 945 786 q 866 775 890 786 q 824 747 842 765 q 796 706 806 730 q 785 654 785 682 m 823 653 q 831 690 823 673 q 851 720 838 707 q 881 740 864 732 q 918 747 899 747 q 955 740 937 747 q 984 720 972 732 q 1004 690 997 707 q 1012 653 1012 673 q 1004 616 1012 633 q 984 587 997 600 q 955 567 972 574 q 918 559 937 559 q 881 567 899 559 q 851 587 864 574 q 831 616 838 600 q 823 653 823 633 z "},"":{"ha":1156,"x_min":0,"x_max":0,"o":""},"":{"ha":1156,"x_min":0,"x_max":0,"o":""},"":{"ha":1158,"x_min":68,"x_max":1109,"o":"m 98 173 q 85 207 98 173 q 68 317 73 242 q 80 466 64 391 q 126 605 95 541 q 144 635 136 624 q 159 652 152 647 q 175 661 167 659 l 1036 661 q 1072 648 1056 658 q 1098 622 1086 639 q 1109 576 1109 606 q 1101 527 1109 562 q 1076 444 1093 492 q 1032 339 1059 395 q 968 225 1005 282 q 884 116 931 169 q 778 22 836 63 q 648 -43 719 -19 q 495 -68 578 -68 q 306 -36 385 -68 q 175 50 227 -4 q 98 173 124 103 m 183 469 q 177 444 183 469 q 169 368 171 420 q 176 264 166 315 q 212 168 186 212 q 271 101 237 127 q 343 61 304 75 q 420 41 381 47 q 495 36 460 36 q 612 54 558 36 q 713 103 667 72 q 797 174 759 134 q 866 257 836 214 q 921 346 897 301 q 962 432 945 391 q 990 505 979 472 q 1005 557 1000 537 l 216 557 q 183 469 196 518 m 288 896 q 295 926 288 912 q 317 951 303 940 q 349 968 331 962 q 389 974 368 974 q 428 968 410 974 q 460 951 446 962 q 481 926 473 940 q 489 896 489 912 q 481 865 489 880 q 460 841 473 851 q 428 824 446 830 q 389 818 410 818 q 349 824 368 818 q 317 841 331 830 q 295 865 303 851 q 288 896 288 880 m 741 896 q 748 865 741 880 q 770 841 756 851 q 802 824 784 830 q 842 818 821 818 q 881 824 863 818 q 913 841 899 830 q 934 865 926 851 q 942 896 942 880 q 934 926 942 912 q 913 951 926 940 q 881 968 899 962 q 842 974 863 974 q 802 968 821 974 q 770 951 784 962 q 748 926 756 940 q 741 896 741 912 z "},"":{"ha":1158,"x_min":91,"x_max":1067,"o":"m 91 633 q 98 669 91 652 q 118 698 105 686 q 147 718 130 711 q 182 725 163 725 q 228 713 208 725 q 260 680 248 701 l 414 746 q 413 754 414 750 q 413 761 413 758 q 418 788 413 775 q 433 809 424 800 q 454 824 442 819 q 481 829 467 829 q 507 824 495 829 q 529 809 519 819 q 543 788 538 800 q 549 761 549 775 q 548 751 549 754 l 792 674 q 815 694 802 687 q 846 702 829 702 q 872 696 860 702 q 894 682 885 691 q 909 660 903 672 q 914 633 914 648 q 899 591 914 609 l 949 496 q 976 500 962 500 q 1011 493 995 500 q 1040 473 1028 486 q 1060 444 1053 460 q 1067 408 1067 427 q 1060 373 1067 389 q 1040 343 1053 356 q 1011 324 1028 331 q 976 317 995 317 q 928 330 949 317 q 895 365 907 343 l 654 277 q 636 230 650 252 q 604 192 623 208 q 561 166 585 176 q 510 157 537 157 q 453 169 479 157 q 406 200 426 180 q 374 247 386 220 q 363 304 363 274 q 367 337 363 321 q 377 368 370 353 l 227 553 q 182 542 205 542 q 147 549 163 542 q 118 569 130 556 q 98 598 105 581 q 91 633 91 614 m 272 617 l 406 469 q 401 493 403 481 q 399 517 399 505 q 413 585 399 553 q 449 642 426 617 q 502 681 471 666 q 569 699 533 696 l 528 712 q 506 698 518 703 q 481 693 494 693 q 453 699 465 693 q 431 715 440 705 l 273 631 q 273 624 273 627 q 272 617 273 621 m 425 425 l 425 425 q 425 426 425 425 l 425 425 m 448 517 q 469 446 448 477 q 510 452 490 452 q 577 436 547 452 q 627 393 608 420 q 689 441 665 408 q 713 517 713 475 q 703 570 713 545 q 674 612 692 594 q 632 641 656 630 q 581 651 608 651 q 529 641 553 651 q 487 612 505 630 q 458 570 469 594 q 448 517 448 545 m 669 359 l 889 438 q 899 459 892 450 q 914 476 906 469 l 862 567 q 846 565 854 565 q 820 570 832 565 q 799 584 808 575 q 785 604 790 592 q 779 629 779 615 l 698 655 q 744 595 727 631 q 762 517 762 559 q 736 425 762 467 q 669 359 711 383 z "},"":{"ha":1158,"x_min":203,"x_max":990,"o":"m 203 85 q 211 113 203 101 q 232 131 219 125 l 232 345 q 253 400 232 378 q 306 425 275 422 l 306 529 q 330 631 311 583 q 351 672 338 651 q 380 713 363 693 q 420 749 397 732 q 472 777 443 765 q 538 795 507 790 q 597 802 569 801 q 656 795 625 801 q 722 777 688 790 q 774 749 751 765 q 814 713 797 732 q 844 672 831 693 q 864 631 856 651 q 888 529 883 583 l 888 425 q 941 400 920 422 q 962 345 962 378 l 962 131 q 982 113 975 125 q 990 85 990 101 q 976 50 990 64 q 941 35 962 35 q 905 50 920 35 q 890 85 890 64 q 898 113 890 101 q 919 131 906 125 l 919 274 q 888 266 905 267 l 888 216 q 889 210 888 213 q 889 204 889 208 q 889 198 889 201 q 888 191 888 195 l 888 190 q 873 131 886 159 q 840 83 861 104 q 793 48 820 62 q 736 31 766 35 l 736 30 l 458 30 l 458 31 q 401 48 428 35 q 354 83 374 62 q 321 131 334 104 q 306 190 309 159 l 306 191 q 305 198 305 195 q 305 204 305 201 q 305 210 305 208 q 306 216 305 213 l 306 266 q 275 274 288 267 l 275 131 q 295 113 288 125 q 303 85 303 101 q 289 50 303 64 q 254 35 274 35 q 218 50 233 35 q 203 85 203 64 m 395 551 q 402 513 395 527 q 419 492 410 499 q 444 482 430 484 q 460 479 451 480 q 480 479 470 479 q 500 480 490 479 q 515 482 509 481 q 533 484 521 483 q 558 487 545 486 q 581 489 570 488 q 595 491 592 490 q 597 490 597 490 q 598 491 598 491 q 612 489 602 490 q 636 487 623 488 q 661 484 649 486 q 679 482 673 483 q 694 480 685 481 q 713 479 703 479 q 733 479 724 479 q 749 482 743 480 q 774 492 763 485 q 792 513 784 499 q 800 551 800 526 q 793 592 799 571 q 779 630 789 610 q 749 666 768 650 q 709 692 731 682 q 667 707 688 702 q 628 715 646 713 q 600 718 610 718 l 598 718 l 597 718 l 595 718 l 594 718 q 565 715 583 718 q 527 707 547 713 q 484 692 506 702 q 444 666 463 682 q 415 630 425 650 q 401 592 406 610 q 395 551 395 571 m 428 558 q 439 585 428 574 q 465 596 450 596 q 492 585 481 596 q 503 558 503 574 q 492 531 503 543 q 465 520 481 520 q 439 531 450 520 q 428 558 428 543 m 472 19 l 717 19 q 698 -16 710 0 q 670 -43 686 -32 q 634 -61 654 -55 q 594 -68 615 -68 q 518 -44 551 -68 q 472 19 486 -20 m 545 924 q 559 959 545 945 q 594 974 574 974 q 630 959 615 974 q 644 924 644 945 q 636 897 644 909 q 616 878 629 885 l 616 828 l 569 828 l 569 880 q 551 898 558 886 q 545 924 545 909 m 632 349 q 639 332 632 339 q 656 325 646 325 q 673 332 666 325 q 680 349 680 339 q 673 367 680 359 q 656 374 666 374 q 639 367 646 374 q 632 349 632 359 m 686 558 q 697 585 686 574 q 724 596 708 596 q 750 585 739 596 q 761 558 761 574 q 750 531 761 543 q 724 520 739 520 q 697 531 708 520 q 686 558 686 543 m 692 349 q 699 332 692 339 q 715 325 706 325 q 733 332 726 325 q 740 349 740 339 q 733 367 740 359 q 715 374 726 374 q 699 367 706 374 q 692 349 692 359 m 751 349 q 758 332 751 339 q 774 325 765 325 q 792 332 785 325 q 799 349 799 339 q 792 367 799 359 q 774 374 785 374 q 758 367 765 374 q 751 349 751 359 z "},"":{"ha":1156,"x_min":0,"x_max":0,"o":""},"":{"ha":1156,"x_min":271,"x_max":966,"o":"m 271 279 l 271 974 l 470 974 l 470 279 q 481 222 470 249 q 513 174 493 195 q 561 142 534 154 q 618 131 588 131 q 676 142 649 131 q 724 174 703 154 q 755 222 744 195 q 767 279 767 249 q 755 337 767 310 q 724 385 744 364 q 676 416 703 405 q 618 428 649 428 l 519 428 l 519 627 l 618 627 q 753 599 690 627 q 864 525 817 572 q 938 414 911 477 q 966 279 966 351 q 938 144 966 208 q 864 34 911 81 q 753 -40 817 -13 q 618 -68 690 -68 q 484 -40 547 -68 q 373 34 420 -13 q 299 144 326 81 q 271 279 271 208 z "},"":{"ha":1156,"x_min":0,"x_max":0,"o":""},"":{"ha":1156,"x_min":0,"x_max":1152,"o":"m 0 516 q 53 529 24 524 q 113 534 81 533 q 177 536 144 536 q 242 536 210 536 q 229 606 232 567 q 231 682 226 644 q 248 752 235 720 q 283 802 261 784 q 275 838 277 818 q 274 877 273 857 q 280 914 275 897 q 294 944 286 932 q 338 937 318 943 q 375 924 357 932 q 408 906 392 916 q 438 886 423 896 q 518 902 477 897 q 612 903 559 907 q 655 896 633 902 q 694 891 677 890 q 710 896 702 892 q 727 906 718 901 q 743 918 735 912 q 760 927 751 924 q 799 940 780 936 q 842 944 818 943 q 851 915 847 931 q 858 881 856 899 q 858 846 859 863 q 852 812 857 828 q 889 762 874 793 q 910 694 903 731 q 915 616 917 657 q 903 538 913 576 q 968 535 934 536 q 1035 534 1002 535 q 1098 529 1067 533 q 1152 516 1128 526 q 1103 523 1130 519 q 1048 530 1077 527 q 990 534 1020 533 q 930 534 960 536 q 919 533 925 533 q 907 531 912 532 q 898 525 901 529 q 895 513 895 522 q 1028 500 963 508 q 1149 475 1094 492 q 1029 495 1095 484 q 895 508 964 507 q 811 423 867 452 q 676 389 755 395 q 686 372 680 379 q 697 358 692 366 q 707 340 703 350 q 714 315 712 330 q 715 267 717 293 q 713 215 714 241 q 713 168 712 190 q 722 130 714 145 q 730 119 725 123 q 739 111 734 115 q 749 104 744 108 q 758 95 753 101 q 732 83 748 83 q 702 89 717 83 q 675 107 687 96 q 661 130 663 118 q 657 176 656 151 q 661 225 659 201 q 660 272 663 250 q 645 308 658 294 q 644 259 646 286 q 641 207 642 233 q 641 155 640 180 q 648 110 642 130 q 654 96 650 102 q 662 85 659 90 q 668 74 665 80 q 668 62 670 68 q 621 69 638 58 q 596 100 604 80 q 586 147 587 120 q 584 203 584 174 q 584 261 584 232 q 578 315 583 291 q 569 310 572 315 q 567 300 567 306 q 567 288 566 294 q 568 277 568 281 q 569 227 568 253 q 569 176 570 201 q 565 129 568 151 q 552 91 562 106 q 527 66 543 75 q 485 62 511 58 q 486 75 484 69 q 491 85 488 80 q 498 95 494 90 q 505 107 503 100 q 512 152 511 127 q 511 203 513 177 q 508 257 509 230 q 510 308 507 283 q 494 273 495 296 q 494 223 492 250 q 497 168 496 195 q 490 120 498 140 q 474 100 484 109 q 450 88 463 92 q 422 84 437 84 q 395 90 408 84 q 401 103 397 98 q 412 111 406 107 q 424 118 418 114 q 433 130 429 122 q 439 155 438 141 q 439 183 440 168 q 437 214 438 198 q 438 247 436 231 q 342 248 383 235 q 280 295 302 260 q 266 328 271 311 q 250 359 262 345 q 237 370 244 366 q 224 379 231 374 q 212 389 217 383 q 203 404 206 395 q 242 405 226 410 q 271 390 258 400 q 295 365 284 379 q 318 339 306 351 q 345 317 330 326 q 380 308 359 309 q 397 309 389 307 q 411 312 404 310 q 426 316 418 314 q 441 320 433 318 q 456 358 446 342 q 481 387 466 375 q 409 400 444 391 q 346 424 375 410 q 295 459 317 438 q 258 508 272 479 q 3 473 118 500 q 120 500 56 492 q 255 511 184 508 q 244 528 253 523 q 222 535 235 534 q 196 535 210 536 q 171 534 182 534 q 127 531 150 532 q 81 527 104 529 q 38 522 58 525 q 0 516 17 519 z "},"":{"ha":1156,"x_min":271,"x_max":850,"o":"m 271 609 q 346 866 271 761 q 558 974 418 971 q 704 931 637 974 q 798 802 770 888 l 801 802 l 801 957 l 850 957 l 850 254 q 849 223 850 242 q 846 179 848 205 q 815 69 841 125 q 730 -28 789 11 q 563 -68 670 -68 q 384 -16 454 -68 q 304 163 311 37 l 353 163 q 422 23 363 66 q 564 -20 480 -20 q 700 16 650 -20 q 771 92 749 47 q 798 182 793 139 q 800 216 800 201 q 801 241 801 231 l 801 412 l 798 412 q 558 242 727 244 q 342 349 413 244 q 271 609 271 452 m 320 609 q 381 385 320 477 q 558 290 442 292 q 740 388 681 292 q 800 609 800 479 q 740 831 800 739 q 558 926 681 924 q 380 828 438 924 q 320 609 320 733 z "},"":{"ha":2313,"x_min":0,"x_max":0,"o":""},"":{"ha":1156,"x_min":68,"x_max":1088,"o":"m 68 481 q 81 574 68 530 q 119 659 94 618 l 407 368 l 206 201 q 105 327 142 256 q 68 481 68 399 m 141 692 q 221 773 174 736 q 323 835 267 809 q 444 876 379 861 q 578 890 508 890 q 759 863 674 890 q 911 790 844 837 l 436 393 l 141 692 m 178 7 q 226 87 206 48 q 258 162 245 127 q 247 169 253 165 q 236 177 241 173 l 272 208 l 366 281 l 369 281 l 433 338 l 434 340 l 439 345 l 661 531 l 970 219 q 891 158 935 185 q 798 112 848 131 q 692 82 748 92 q 578 72 637 72 q 508 76 543 72 q 441 87 474 79 q 382 44 414 64 q 316 10 351 23 q 247 -6 282 -3 q 178 7 211 -8 m 691 556 l 943 766 q 1049 638 1010 711 q 1088 481 1088 565 q 1064 356 1088 415 q 996 246 1040 296 l 691 556 z "},"":{"ha":1156,"x_min":68,"x_max":1095,"o":"m 68 524 q 86 633 68 581 q 138 731 104 686 q 218 814 172 777 q 322 878 265 851 q 445 919 379 905 q 582 934 511 934 q 718 919 652 934 q 841 878 784 905 q 945 814 898 851 q 1025 731 991 777 q 1077 633 1059 686 q 1095 524 1095 581 q 1066 388 1095 452 q 984 271 1036 323 q 861 181 932 218 q 707 127 790 144 q 650 59 681 94 q 583 -5 618 25 q 508 -59 547 -35 q 426 -94 469 -82 q 458 20 448 -35 q 473 124 469 75 q 312 176 387 139 q 184 265 238 212 q 99 384 130 318 q 68 524 68 450 m 715 795 q 779 746 750 774 q 829 682 808 717 q 861 608 850 648 q 872 524 872 568 q 863 448 872 485 q 836 379 853 412 q 794 319 819 347 q 739 269 770 291 q 749 268 744 269 q 759 268 753 268 q 770 268 764 268 q 781 269 776 269 q 791 270 787 270 q 802 272 796 271 q 882 304 845 280 q 947 362 920 328 q 990 441 975 397 q 1006 534 1006 485 q 986 637 1006 589 q 933 722 967 686 q 855 779 900 758 q 759 800 810 800 q 715 795 734 800 z "},"":{"ha":1156,"x_min":208,"x_max":934,"o":"m 208 624 q 239 742 215 689 q 299 836 263 795 q 382 905 336 876 q 478 950 428 934 q 582 972 529 967 q 684 970 634 977 q 740 955 708 966 q 801 923 772 943 q 847 874 829 903 q 865 805 866 844 q 845 746 863 770 q 801 711 827 722 q 747 702 775 700 q 697 722 719 705 q 665 773 675 740 q 666 857 655 806 q 581 847 618 867 q 518 788 544 827 q 477 698 492 750 q 461 590 463 646 q 470 483 459 535 q 507 390 481 430 q 571 327 532 349 q 666 312 611 305 q 675 355 673 330 q 676 407 677 380 q 674 460 675 433 q 675 511 673 488 l 934 511 q 928 424 928 468 q 929 335 928 379 q 931 249 930 291 q 926 168 931 207 q 909 96 921 130 q 873 35 897 62 q 816 -11 850 8 q 745 -41 783 -31 q 667 -53 707 -52 q 591 -47 627 -55 q 525 -20 555 -39 q 479 27 496 -2 q 460 97 462 56 q 476 191 458 138 q 349 261 404 226 q 259 345 294 297 q 211 460 224 393 q 208 624 198 527 m 573 180 q 568 172 573 180 q 563 147 564 163 q 569 115 562 130 q 597 87 576 99 q 662 135 644 97 q 675 235 680 172 q 657 243 671 245 q 625 232 641 241 q 595 210 608 223 q 573 180 582 197 z "},"":{"ha":1156,"x_min":68,"x_max":1109,"o":"m 68 -68 l 68 974 l 1109 974 l 1109 -68 l 68 -68 m 315 823 l 543 373 l 543 117 l 635 117 l 635 373 l 862 823 l 762 823 l 589 484 l 422 823 l 315 823 z "},"":{"ha":1156,"x_min":100,"x_max":1064,"o":"m 113 588 q 106 571 113 588 q 100 517 100 553 q 113 447 100 481 q 154 385 127 412 q 215 344 181 357 q 286 330 250 330 q 356 344 321 330 q 417 385 390 357 l 712 684 q 722 699 719 690 q 726 716 726 707 q 722 734 726 725 q 712 749 719 743 q 679 763 699 763 q 646 749 660 763 q 640 741 643 746 l 351 451 q 320 430 338 437 q 286 423 303 423 q 251 430 268 423 q 220 451 233 437 q 199 482 206 465 q 192 517 192 499 q 199 552 192 535 q 220 583 206 570 l 501 867 q 470 888 488 881 q 435 895 453 895 q 400 888 417 895 q 369 867 382 881 l 154 650 q 113 588 127 622 m 241 500 q 239 504 241 500 q 237 517 237 509 q 241 535 237 526 q 251 551 244 544 q 255 554 253 553 q 259 557 257 556 l 549 848 q 610 889 576 876 q 681 903 645 903 q 751 889 717 903 q 812 848 785 876 q 825 815 826 835 q 810 783 824 796 q 778 769 797 769 q 745 783 759 769 l 741 788 q 710 805 727 800 q 677 810 694 810 q 644 802 660 809 q 614 782 627 795 l 319 485 q 284 471 304 471 q 251 485 265 471 q 241 500 244 492 m 350 253 q 336 220 336 239 q 350 186 336 200 q 354 183 352 185 q 357 180 355 182 q 418 143 385 155 q 487 132 452 131 q 555 146 522 132 q 614 186 588 160 l 909 485 q 920 500 916 492 q 923 517 923 509 q 920 535 923 526 q 909 551 916 544 q 894 561 903 557 q 877 564 886 564 q 859 561 868 564 q 844 551 850 557 q 841 547 842 549 q 838 543 839 545 l 549 252 q 518 232 535 239 q 483 224 501 224 q 448 232 465 224 q 417 252 431 239 l 416 253 q 400 263 409 260 q 383 267 392 267 q 366 263 374 267 q 350 253 357 260 m 449 353 q 435 319 435 338 q 449 286 435 300 q 482 272 463 272 q 516 286 501 272 l 812 584 q 843 604 826 597 q 878 611 860 611 q 913 604 896 611 q 944 584 930 597 q 964 552 958 570 q 971 517 971 535 q 964 482 971 499 q 944 451 958 465 l 663 168 q 694 147 677 154 q 729 140 711 140 q 764 147 747 140 q 795 168 781 154 l 1009 385 q 1050 447 1036 412 q 1064 517 1064 481 q 1050 588 1064 553 q 1009 650 1036 622 q 948 691 982 677 q 878 705 913 705 q 808 691 842 705 q 747 650 774 677 l 456 359 q 449 353 454 357 z "},"":{"ha":1156,"x_min":2,"x_max":1153,"o":"m 2 231 l 2 418 l 39 418 l 39 575 l 2 575 l 2 762 l 285 762 l 285 629 q 314 638 298 635 q 347 642 330 642 q 402 630 377 642 q 446 598 428 618 q 475 550 465 578 q 486 491 486 523 l 486 418 l 524 418 l 524 367 l 486 367 l 486 280 l 524 280 l 524 231 l 2 231 m 53 280 l 251 280 l 251 367 l 235 367 l 235 446 q 252 489 242 475 q 274 503 262 503 q 288 488 286 503 q 291 453 291 473 l 291 367 l 274 367 l 274 280 l 474 280 l 474 367 l 435 367 l 435 491 q 429 530 435 512 q 410 562 422 549 q 382 583 399 576 q 347 591 366 591 q 310 585 328 591 q 279 569 293 578 q 253 546 264 559 q 235 519 242 533 l 235 712 l 53 712 l 53 626 l 90 626 l 90 367 l 53 367 l 53 280 m 436 231 l 436 418 l 475 418 l 475 448 l 436 448 l 436 634 l 507 634 l 507 732 l 720 732 l 720 418 l 757 418 l 757 231 l 436 231 m 486 280 l 707 280 l 707 367 l 669 367 l 669 585 l 486 585 l 486 498 l 525 498 l 525 367 l 486 367 l 486 280 m 557 608 l 669 608 l 669 682 l 557 682 l 557 608 m 669 367 l 669 418 q 673 433 671 425 q 680 449 676 441 l 678 449 l 736 762 l 1123 762 l 1113 560 q 1143 504 1133 534 q 1153 444 1153 474 q 1135 353 1153 394 q 1084 282 1116 312 q 1006 236 1051 253 q 906 220 960 220 q 787 240 836 220 q 707 292 737 260 l 707 367 l 669 367 m 720 390 q 733 346 720 368 q 771 308 747 325 q 831 281 795 291 q 910 271 866 271 q 995 284 958 271 q 1056 321 1031 298 q 1094 376 1081 345 q 1107 443 1107 407 q 1098 492 1107 467 q 1072 535 1089 516 q 1028 567 1054 555 q 968 579 1002 579 q 901 568 929 579 q 863 543 873 557 l 874 602 l 1068 602 l 1074 712 l 782 712 l 741 492 l 851 477 q 863 494 854 488 q 889 500 872 500 q 921 482 911 500 q 932 439 932 465 q 928 410 932 424 q 918 385 925 395 q 901 367 911 374 q 876 360 890 360 q 849 368 856 360 q 842 387 842 375 q 845 401 842 395 q 848 418 848 407 q 835 452 848 438 q 797 467 822 467 q 764 460 779 467 q 740 443 750 454 q 725 419 730 433 q 720 390 720 405 z "},"":{"ha":1158,"x_min":68,"x_max":1109,"o":"m 68 385 q 82 457 68 423 q 121 515 96 490 q 180 554 146 540 q 252 569 214 569 q 316 557 286 569 q 370 525 346 545 l 743 711 q 742 717 743 715 q 742 722 742 720 q 756 794 742 760 q 795 852 770 827 q 854 891 821 877 q 926 906 888 906 q 997 891 964 906 q 1056 852 1031 877 q 1095 794 1080 827 q 1109 722 1109 760 q 1095 651 1109 684 q 1056 592 1080 617 q 997 553 1031 567 q 926 538 964 538 q 861 550 891 538 q 808 583 831 562 l 435 396 q 435 390 435 393 q 435 385 435 388 q 435 380 435 382 q 435 375 435 378 l 808 188 q 861 220 831 208 q 926 232 891 232 q 997 217 964 232 q 1056 178 1031 203 q 1095 120 1080 153 q 1109 48 1109 86 q 1095 -23 1109 10 q 1056 -82 1080 -57 q 997 -121 1031 -107 q 926 -136 964 -136 q 854 -121 888 -136 q 795 -82 821 -107 q 756 -23 770 -57 q 742 48 742 10 q 742 54 742 52 q 743 59 743 56 l 370 245 q 316 213 346 225 q 252 201 286 201 q 180 216 214 201 q 121 255 146 230 q 82 314 96 280 q 68 385 68 347 z "},"":{"ha":1156,"x_min":307,"x_max":741,"o":"m 307 -43 q 423 -16 397 -36 q 450 90 450 4 l 450 746 q 423 850 450 828 q 381 869 410 863 q 307 879 352 876 l 307 906 l 741 906 l 741 879 q 625 850 651 873 q 598 746 598 828 l 598 90 q 625 -16 598 4 q 741 -43 652 -36 l 741 -71 l 307 -71 l 307 -43 z "},"":{"ha":1156,"x_min":61,"x_max":1148,"o":"m 61 475 q 79 603 61 541 q 129 719 97 665 q 207 817 161 772 q 307 892 252 861 q 426 941 362 924 q 557 959 489 959 q 689 942 626 959 q 808 893 753 924 q 908 817 863 861 q 985 720 954 773 q 1035 604 1017 666 q 1053 475 1053 542 q 1046 396 1053 435 q 1026 321 1039 357 l 1148 -68 l 774 41 q 670 5 725 18 q 556 -8 616 -8 q 424 9 488 -8 q 306 58 361 26 q 206 134 251 90 q 129 231 161 178 q 79 347 96 285 q 61 475 61 408 m 220 475 q 247 347 220 407 q 319 243 273 288 q 426 173 364 199 q 556 147 487 147 q 638 157 599 147 q 712 184 677 167 l 882 131 l 961 111 l 940 169 q 939 168 939 169 l 934 184 l 934 184 l 871 359 q 887 416 882 387 q 893 475 893 445 q 867 603 893 543 q 795 707 840 663 q 688 778 749 752 q 557 803 627 803 q 426 777 488 803 q 319 707 365 751 q 247 603 273 663 q 220 475 220 543 z "},"":{"ha":1156,"x_min":203,"x_max":1059,"o":"m 203 37 l 203 854 q 211 896 203 876 q 231 929 218 915 q 260 951 243 943 q 296 960 277 960 q 332 951 315 960 q 362 929 349 943 q 381 896 374 915 q 389 854 389 876 l 389 395 l 620 644 q 659 678 640 665 q 702 691 677 691 q 735 683 720 691 q 761 662 751 675 q 778 632 772 649 q 783 597 783 615 q 772 548 783 570 q 741 505 760 526 l 595 363 l 769 96 q 786 61 781 77 q 792 28 792 45 q 785 -11 792 6 q 766 -41 778 -28 q 739 -61 754 -54 q 705 -68 723 -68 q 660 -57 677 -68 q 625 -19 642 -45 l 463 234 l 389 158 l 389 37 q 381 -4 389 16 q 362 -37 374 -23 q 332 -60 349 -52 q 296 -68 315 -68 q 260 -60 277 -68 q 231 -37 243 -52 q 211 -4 218 -23 q 203 37 203 16 m 837 274 q 846 230 837 250 q 870 194 854 210 q 905 170 885 179 q 948 161 925 161 q 991 170 971 161 q 1027 194 1012 179 q 1050 230 1042 210 q 1059 274 1059 250 q 1050 317 1059 297 q 1027 353 1042 338 q 991 376 1012 368 q 948 385 971 385 q 905 376 925 385 q 870 353 885 368 q 846 317 854 338 q 837 274 837 297 z "},"":{"ha":1156,"x_min":68,"x_max":1109,"o":"m 68 7 l 68 899 q 74 928 68 915 q 91 952 80 942 q 115 968 101 962 q 144 974 129 974 l 1033 974 q 1062 968 1048 974 q 1087 952 1076 962 q 1103 928 1097 942 q 1109 899 1109 915 l 1109 7 q 1103 -22 1109 -9 q 1087 -46 1097 -36 q 1062 -62 1076 -56 q 1033 -68 1048 -68 l 144 -68 q 115 -62 129 -68 q 91 -46 101 -56 q 74 -22 80 -36 q 68 7 68 -9 m 217 718 q 240 660 217 684 q 304 637 264 637 l 305 637 q 342 643 326 637 q 370 661 359 650 q 388 686 382 671 q 394 718 394 701 q 370 775 393 752 q 306 799 347 799 q 269 793 286 799 q 241 775 253 787 q 223 749 230 764 q 217 718 217 734 m 227 102 l 384 102 l 384 572 l 227 572 l 227 102 m 471 102 l 628 102 l 628 365 q 629 385 628 375 q 633 403 630 395 q 644 423 637 413 q 661 441 651 433 q 685 455 671 450 q 714 460 698 460 q 775 431 757 460 q 793 353 793 401 l 793 102 l 951 102 l 951 372 q 937 466 951 426 q 899 531 924 505 q 842 570 875 557 q 770 583 808 583 q 715 576 739 583 q 675 556 692 568 q 647 531 659 545 q 628 505 636 517 l 628 572 l 471 572 q 471 539 471 564 q 471 480 471 515 q 471 404 471 446 q 471 321 471 363 q 471 102 471 222 m 627 504 q 628 505 628 505 l 628 504 l 627 504 z "},"":{"ha":1156,"x_min":38,"x_max":1106,"o":"m 38 98 q 42 272 34 118 q 75 711 51 425 q 72 718 73 715 q 71 722 71 720 q 77 778 63 756 q 113 804 90 799 q 127 805 119 805 q 143 802 136 804 q 157 795 151 800 q 164 783 162 790 q 163 754 165 776 q 157 694 161 732 q 148 603 153 656 q 136 481 142 550 q 253 655 184 562 q 409 860 321 749 q 433 885 422 876 q 452 897 443 895 q 476 880 471 901 q 474 864 477 872 q 461 850 470 855 q 343 684 412 786 q 180 440 274 582 q 289 364 243 401 q 367 296 336 327 q 415 242 398 265 q 433 207 431 219 q 432 186 435 197 q 422 168 429 176 q 408 154 416 160 q 392 147 399 149 q 381 147 385 145 q 376 153 377 149 q 377 162 374 157 q 378 172 380 166 q 312 237 375 186 q 126 380 248 287 q 116 186 118 253 q 113 109 114 119 q 99 88 111 96 q 73 77 87 80 q 50 79 59 73 q 38 98 41 85 m 395 494 q 396 512 393 502 q 406 531 399 522 q 422 547 412 540 q 445 557 433 555 q 466 555 456 560 q 477 541 475 551 q 478 528 478 536 q 478 509 479 519 l 517 507 q 524 523 519 515 q 534 537 528 530 q 547 543 543 542 q 575 540 560 546 q 592 523 589 534 q 590 506 594 515 q 576 485 586 496 q 548 365 554 418 q 550 272 542 311 q 560 252 553 258 q 572 246 566 245 q 629 349 603 254 q 638 411 631 377 q 658 479 645 444 q 711 545 679 538 q 732 545 722 548 q 747 534 742 542 q 757 537 753 536 q 766 540 761 539 q 808 526 787 545 q 838 465 828 507 q 861 483 852 473 q 876 503 869 493 q 886 523 882 513 q 894 540 890 533 q 898 610 896 581 q 903 659 900 640 q 911 687 906 677 q 926 699 917 697 q 945 697 935 701 q 958 683 956 693 q 955 639 960 671 q 948 549 950 606 q 981 616 966 592 q 1013 643 996 640 q 1064 627 1040 648 q 1099 557 1089 605 q 1106 466 1109 511 q 1089 382 1103 420 q 1055 319 1076 345 q 1008 288 1034 294 q 969 290 989 283 q 939 312 949 296 q 939 131 937 196 q 944 51 940 66 q 947 43 945 46 q 951 39 949 41 q 956 36 954 37 q 958 33 958 35 q 954 17 960 24 q 939 8 947 9 q 907 9 920 3 q 890 33 894 15 q 887 70 889 39 q 884 152 885 100 q 884 280 883 205 q 889 452 885 355 q 841 414 868 424 q 807 272 836 323 q 732 212 779 221 q 674 218 700 204 q 637 267 649 232 q 608 219 623 236 q 570 197 593 203 q 518 207 539 191 q 490 255 497 222 q 496 441 475 324 l 465 444 q 443 327 455 368 q 414 283 431 287 q 403 285 408 281 q 396 296 397 288 q 398 312 395 299 q 406 347 401 325 q 413 401 410 370 q 418 474 417 433 q 402 483 408 478 q 395 494 396 487 m 708 418 q 703 403 708 418 q 695 355 699 389 q 697 291 691 321 q 728 261 704 257 q 754 285 741 264 q 775 336 766 306 q 786 400 783 366 q 782 465 789 435 q 772 487 779 480 q 755 491 765 493 q 730 468 743 488 q 708 418 718 448 m 945 357 q 963 334 950 341 q 989 330 975 326 q 1023 357 1011 334 q 1043 424 1035 380 q 1050 495 1050 463 q 1045 551 1050 528 q 1021 582 1037 585 q 1004 565 1015 581 q 982 522 993 550 q 960 452 970 493 q 945 357 950 410 z "},"":{"ha":1156,"x_min":136,"x_max":980,"o":"m 154 623 q 136 704 133 660 q 165 794 139 748 q 216 859 186 829 q 280 911 245 889 q 351 947 315 934 q 420 960 388 960 q 479 946 453 960 q 522 909 505 933 l 910 395 q 917 378 916 387 l 980 -26 q 966 -60 983 -47 q 945 -68 957 -68 q 930 -65 937 -68 l 561 90 q 546 101 553 92 l 157 618 q 154 623 155 621 m 191 765 q 183 750 191 765 q 172 702 175 734 q 186 640 169 669 l 575 123 l 945 -32 l 882 372 l 492 888 q 461 915 480 907 q 420 924 443 924 q 357 911 391 924 q 293 876 324 898 q 234 826 261 854 q 191 765 207 797 m 206 600 q 213 657 203 629 q 238 712 222 686 q 276 760 254 738 q 319 800 297 783 q 373 836 345 821 q 426 859 400 851 q 476 869 452 867 q 520 863 500 870 q 525 859 524 862 q 526 852 527 855 q 515 846 523 843 q 475 850 497 852 q 430 841 454 849 q 380 820 406 833 q 330 787 355 806 q 290 749 310 770 q 255 704 270 728 q 231 654 239 680 q 224 602 222 628 q 222 595 224 598 q 216 592 219 593 l 215 592 q 206 600 206 592 m 275 503 q 282 559 273 531 q 307 614 291 588 q 345 662 323 640 q 388 703 366 685 q 442 739 414 724 q 495 762 469 753 q 546 771 522 770 q 589 765 570 772 q 595 754 598 762 q 583 748 592 745 q 544 753 566 754 q 499 744 523 751 q 450 722 475 736 q 401 690 425 709 l 660 342 q 713 319 685 326 q 771 313 742 312 q 828 322 800 313 q 881 348 857 331 q 890 349 886 351 q 895 342 894 347 l 954 -31 q 950 -39 954 -36 q 945 -41 947 -41 q 941 -40 942 -41 l 593 105 q 588 112 589 107 q 591 120 588 117 q 637 186 621 149 q 652 266 652 224 q 641 335 652 303 q 640 338 640 336 l 387 678 q 350 642 368 662 q 318 599 332 621 q 298 552 305 576 q 293 504 291 528 q 291 497 294 500 q 285 494 288 494 q 278 496 281 494 q 275 503 275 498 m 613 117 l 933 -17 l 880 326 q 828 303 855 311 q 773 295 801 296 q 717 300 745 294 q 665 319 690 306 q 671 266 671 293 q 656 185 671 224 q 613 117 642 147 m 825 18 q 862 76 836 52 q 923 107 888 100 l 945 -32 l 825 18 z "},"":{"ha":2313,"x_min":0,"x_max":0,"o":""},"":{"ha":1156,"x_min":136,"x_max":1038,"o":"m 141 693 q 138 707 141 693 q 136 743 136 720 q 140 780 136 765 q 161 852 146 821 q 196 903 176 882 q 241 936 216 924 q 290 954 265 949 q 345 959 321 958 q 387 956 368 959 q 422 947 406 953 q 452 935 437 942 q 494 907 477 923 q 527 870 512 890 q 557 825 543 850 q 588 772 571 801 q 641 869 612 827 q 713 932 670 911 q 745 946 730 941 q 779 955 761 952 q 818 959 796 958 q 867 959 839 960 q 954 919 916 945 q 1015 844 993 892 q 1037 743 1041 798 q 1009 628 1034 687 q 943 507 985 568 q 852 387 902 446 q 761 270 804 330 q 683 150 718 209 q 624 35 648 90 q 589 -68 600 -21 q 583 -52 587 -64 q 573 -24 578 -39 q 563 3 568 -9 q 556 20 558 16 q 536 64 545 45 q 512 109 526 84 q 476 169 498 134 q 418 258 454 203 q 385 307 404 281 q 343 362 365 334 q 298 421 321 391 q 254 479 275 451 q 219 532 234 507 q 192 575 204 557 q 159 636 172 606 q 141 693 146 667 z "},"":{"ha":1156,"x_min":136,"x_max":1040,"o":"m 136 316 q 359 511 250 412 q 376 499 369 506 q 391 485 383 492 q 281 383 338 431 q 167 285 223 336 q 136 316 146 296 m 136 774 l 136 810 q 249 810 192 810 q 351 810 307 811 q 355 852 353 829 q 361 896 357 874 q 371 938 365 918 q 385 974 376 958 l 471 974 q 461 937 467 956 q 452 900 456 919 q 445 859 448 880 q 442 815 442 838 q 521 810 479 810 q 605 810 563 809 q 685 811 646 810 q 755 810 724 812 q 756 855 758 833 q 750 897 754 877 q 740 937 745 918 q 728 974 734 956 l 799 974 q 822 901 814 941 q 830 812 830 861 q 885 811 859 811 q 935 811 910 810 q 984 811 959 811 q 1038 810 1009 811 q 1040 790 1038 800 q 1038 771 1042 780 l 833 771 q 809 668 824 716 q 769 580 793 619 q 708 513 744 541 q 622 472 672 486 l 622 220 q 767 193 699 211 q 890 143 836 175 q 982 64 944 112 q 1038 -53 1020 16 l 955 -53 q 836 96 920 46 q 625 153 751 146 q 622 51 620 104 q 622 -53 623 -2 q 598 -54 611 -52 q 578 -51 585 -55 l 578 147 q 396 86 467 135 q 292 -53 324 37 q 225 -53 259 -52 q 161 -51 191 -55 q 218 64 180 16 q 309 144 256 112 q 431 193 363 176 q 578 217 498 211 l 578 469 q 486 508 524 481 q 420 574 447 535 q 377 663 393 613 q 354 771 361 713 q 243 771 300 772 q 136 774 186 769 m 445 763 q 458 692 450 728 q 482 624 467 655 q 518 569 496 592 q 570 537 539 545 q 597 533 583 534 q 627 537 612 533 q 681 569 659 545 q 719 626 703 593 q 743 697 734 659 q 755 771 751 735 l 450 771 q 445 763 445 769 m 772 469 q 784 483 776 478 q 796 496 792 487 q 858 449 828 473 q 917 400 888 425 q 976 351 946 376 q 1036 303 1005 326 q 1024 287 1031 293 q 1009 275 1017 281 q 889 370 947 321 q 772 469 830 418 z "},"":{"ha":1156,"x_min":68,"x_max":1095,"o":"m 68 266 q 74 294 68 281 q 89 316 79 307 q 112 331 99 326 q 140 337 125 337 q 168 331 155 337 q 191 316 181 326 q 206 294 200 307 q 212 266 212 281 q 206 238 212 251 q 191 215 200 225 q 168 200 181 205 q 140 195 155 195 q 112 200 125 195 q 89 215 99 205 q 74 238 79 225 q 68 266 68 251 m 68 632 q 74 660 68 647 q 89 682 79 673 q 112 697 99 692 q 140 703 125 703 q 168 697 155 703 q 191 682 181 692 q 206 660 200 673 q 212 632 212 647 q 206 604 212 617 q 191 582 200 591 q 168 566 181 572 q 140 561 155 561 q 112 566 125 561 q 89 582 99 572 q 74 604 79 591 q 68 632 68 617 m 269 350 q 274 378 269 365 q 290 400 280 391 q 312 415 299 410 q 340 421 326 421 q 369 415 355 421 q 391 400 382 410 q 407 378 401 391 q 412 350 412 365 q 407 322 412 335 q 391 299 401 309 q 369 284 382 290 q 340 279 355 279 q 312 284 326 279 q 290 299 299 290 q 274 322 280 309 q 269 350 269 335 m 269 546 q 274 574 269 561 q 290 596 280 587 q 312 611 299 606 q 340 617 326 617 q 369 611 355 617 q 391 596 382 606 q 407 574 401 587 q 412 546 412 561 q 407 518 412 531 q 391 495 401 505 q 369 480 382 486 q 340 475 355 475 q 312 480 326 475 q 290 495 299 486 q 274 518 280 505 q 269 546 269 531 m 322 3 q 328 31 322 18 q 343 54 334 44 q 366 69 353 63 q 394 75 379 75 q 422 69 409 75 q 445 54 435 63 q 460 31 454 44 q 466 3 466 18 q 460 -24 466 -12 q 445 -47 454 -37 q 422 -62 435 -57 q 394 -68 409 -68 q 366 -62 379 -68 q 343 -47 353 -57 q 328 -24 334 -37 q 322 3 322 -12 m 322 888 q 328 916 322 903 q 343 939 334 929 q 366 954 353 948 q 394 960 379 960 q 422 954 409 960 q 445 939 435 948 q 460 916 454 929 q 466 888 466 903 q 460 861 466 873 q 445 838 454 848 q 422 823 435 828 q 394 817 409 817 q 366 823 379 817 q 343 838 353 828 q 328 861 334 848 q 322 888 322 873 m 412 208 q 418 235 412 222 q 433 258 424 248 q 456 273 443 267 q 484 279 469 279 q 512 273 499 279 q 535 258 525 267 q 550 235 545 248 q 556 208 556 222 q 550 180 556 193 q 535 157 545 167 q 512 142 525 147 q 484 136 499 136 q 456 142 469 136 q 433 157 443 147 q 418 180 424 167 q 412 208 412 193 m 412 688 q 418 716 412 703 q 433 739 424 729 q 456 754 443 748 q 484 760 469 760 q 512 754 499 760 q 535 739 525 748 q 550 716 545 729 q 556 688 556 703 q 550 661 556 673 q 535 638 545 648 q 512 623 525 628 q 484 617 499 617 q 456 623 469 617 q 433 638 443 628 q 418 661 424 648 q 412 688 412 673 m 607 208 q 613 235 607 222 q 628 258 618 248 q 651 273 637 267 q 679 279 664 279 q 707 273 694 279 q 730 258 720 267 q 745 235 739 248 q 751 208 751 222 q 745 180 751 193 q 730 157 739 167 q 707 142 720 147 q 679 136 694 136 q 651 142 664 136 q 628 157 637 147 q 613 180 618 167 q 607 208 607 193 m 607 688 q 613 716 607 703 q 628 739 618 729 q 651 754 637 748 q 679 760 664 760 q 707 754 694 760 q 730 739 720 748 q 745 716 739 729 q 751 688 751 703 q 745 661 751 673 q 730 638 739 648 q 707 623 720 628 q 679 617 694 617 q 651 623 664 617 q 628 638 637 628 q 613 661 618 648 q 607 688 607 673 m 696 3 q 702 31 696 18 q 717 54 707 44 q 740 69 727 63 q 768 75 753 75 q 796 69 783 75 q 819 54 809 63 q 834 31 828 44 q 840 3 840 18 q 834 -24 840 -12 q 819 -47 828 -37 q 796 -62 809 -57 q 768 -68 783 -68 q 740 -62 753 -68 q 717 -47 727 -57 q 702 -24 707 -37 q 696 3 696 -12 m 696 888 q 702 916 696 903 q 717 939 707 929 q 740 954 727 948 q 768 960 753 960 q 796 954 783 960 q 819 939 809 948 q 834 916 828 929 q 840 888 840 903 q 834 861 840 873 q 819 838 828 848 q 796 823 809 828 q 768 817 783 817 q 740 823 753 817 q 717 838 727 828 q 702 861 707 848 q 696 888 696 873 m 751 350 q 756 378 751 365 q 772 400 762 391 q 795 415 782 410 q 823 421 808 421 q 851 415 838 421 q 873 400 864 410 q 889 378 883 391 q 895 350 895 365 q 889 322 895 335 q 873 299 883 309 q 851 284 864 290 q 823 279 838 279 q 795 284 808 279 q 772 299 782 290 q 756 322 762 309 q 751 350 751 335 m 751 546 q 756 574 751 561 q 772 596 762 587 q 795 611 782 606 q 823 617 808 617 q 851 611 838 617 q 873 596 864 606 q 889 574 883 587 q 895 546 895 561 q 889 518 895 531 q 873 495 883 505 q 851 480 864 486 q 823 475 838 475 q 795 480 808 475 q 772 495 782 486 q 756 518 762 505 q 751 546 751 531 m 951 266 q 957 294 951 281 q 972 316 963 307 q 995 331 982 326 q 1023 337 1008 337 q 1052 331 1038 337 q 1074 316 1065 326 q 1089 294 1084 307 q 1095 266 1095 281 q 1089 238 1095 251 q 1074 215 1084 225 q 1052 200 1065 205 q 1023 195 1038 195 q 995 200 1008 195 q 972 215 982 205 q 957 238 963 225 q 951 266 951 251 m 951 632 q 957 660 951 647 q 972 682 963 673 q 995 697 982 692 q 1023 703 1008 703 q 1052 697 1038 703 q 1074 682 1065 692 q 1089 660 1084 673 q 1095 632 1095 647 q 1089 604 1095 617 q 1074 582 1084 591 q 1052 566 1065 572 q 1023 561 1038 561 q 995 566 1008 561 q 972 582 982 572 q 957 604 963 591 q 951 632 951 617 z "},"":{"ha":1156,"x_min":0,"x_max":1154,"o":"m 0 29 l 0 901 l 1154 901 l 1154 624 l 1154 29 l 875 29 l 875 621 l 716 621 l 716 29 l 437 29 l 437 621 l 278 621 l 278 29 l 0 29 z "},"":{"ha":1156,"x_min":203,"x_max":991,"o":"m 203 341 q 221 457 203 401 q 269 559 238 512 q 343 642 300 606 q 438 702 386 679 l 366 914 q 368 949 359 932 q 395 972 376 966 l 396 972 q 409 974 403 974 q 437 964 425 974 q 452 939 449 955 l 503 724 q 597 736 549 736 q 750 705 679 736 q 876 621 822 674 q 960 495 929 567 q 991 341 991 423 q 977 236 991 287 q 937 142 963 186 q 876 62 911 98 q 796 0 840 26 q 702 -39 752 -25 q 597 -54 652 -54 q 493 -39 543 -54 q 398 0 442 -25 q 319 62 355 26 q 257 142 283 98 q 217 236 231 186 q 203 341 203 287 m 279 341 q 304 217 279 275 q 373 116 330 159 q 474 48 416 73 q 597 23 532 23 q 721 48 663 23 q 822 116 779 73 q 890 217 865 159 q 916 341 916 275 q 890 465 916 407 q 822 567 865 524 q 721 635 779 610 q 597 660 663 660 q 521 650 559 660 l 580 399 q 584 365 585 380 q 576 348 583 350 l 574 348 q 560 359 568 348 q 547 387 552 370 l 463 630 q 389 582 422 611 q 331 515 355 552 q 293 433 307 477 q 279 341 279 389 m 360 296 q 395 225 372 258 q 449 168 418 192 q 519 131 481 144 q 600 117 557 117 q 697 137 652 117 q 777 191 743 157 q 830 270 810 224 q 850 368 850 315 q 848 397 850 382 q 843 425 846 412 q 844 415 844 420 q 844 405 844 410 q 824 305 844 352 q 769 223 804 258 q 689 169 735 189 q 590 149 643 149 q 517 159 552 149 q 452 190 482 170 q 399 237 422 210 q 360 296 375 264 m 428 261 q 498 209 456 229 q 588 190 539 190 q 655 200 623 190 q 713 229 688 211 q 758 273 739 248 q 785 328 777 298 q 716 253 762 284 q 610 214 670 222 q 510 219 557 206 q 428 261 463 233 m 492 278 q 546 273 517 271 q 604 286 575 275 q 664 322 639 300 q 701 372 689 345 q 691 327 701 348 q 662 291 680 307 q 620 267 644 275 q 568 258 595 258 q 527 263 547 258 q 492 278 508 269 z "},"":{"ha":1156,"x_min":68,"x_max":1058,"o":"m 68 376 q 84 445 72 414 q 113 498 96 475 q 148 538 130 522 q 183 567 167 555 q 213 584 200 578 q 231 591 226 589 q 192 637 206 610 q 178 697 178 665 q 189 751 178 726 q 219 794 200 776 q 263 823 238 812 q 318 834 289 834 q 372 823 347 834 q 416 794 397 812 q 446 751 435 776 q 457 697 457 726 q 443 638 457 665 q 406 592 429 611 q 480 551 446 578 q 445 531 465 543 q 402 500 425 518 q 358 458 380 482 q 317 402 336 433 q 285 331 298 370 q 267 245 271 292 l 267 241 q 197 250 222 243 q 158 263 172 256 q 137 280 142 271 q 120 307 125 291 q 109 310 113 308 q 100 315 104 313 q 93 321 96 318 q 80 332 85 324 q 71 348 75 338 q 68 376 67 359 m 315 229 q 340 330 321 285 q 382 409 358 375 q 434 468 407 444 q 487 510 462 493 q 530 535 511 526 q 556 547 549 544 q 500 615 521 575 q 479 704 479 656 q 496 783 479 746 q 540 847 512 819 q 605 890 568 874 q 686 906 643 906 q 766 890 728 906 q 831 847 804 874 q 876 783 859 819 q 892 704 892 746 q 871 616 892 656 q 817 547 851 575 q 888 514 853 534 q 952 466 922 494 q 1005 402 982 437 q 1042 326 1029 368 q 1057 263 1052 296 q 1058 202 1062 231 q 1037 153 1053 174 q 988 125 1021 132 q 982 111 985 117 q 975 100 979 105 l 975 99 q 941 68 967 82 q 878 44 920 56 q 764 27 836 32 q 757 25 760 26 q 750 24 753 25 l 696 24 l 679 24 l 632 24 q 628 25 630 25 q 624 26 626 25 q 513 39 553 29 q 451 59 472 49 q 418 85 427 71 q 393 125 401 101 q 376 131 384 127 q 363 138 369 134 q 352 146 357 142 q 333 161 341 151 q 320 187 326 171 q 315 229 315 203 z "},"":{"ha":1158,"x_min":68,"x_max":1074,"o":"m 68 351 q 81 422 68 389 q 116 481 94 455 q 169 525 138 507 q 234 548 199 543 q 233 558 233 553 q 233 569 233 564 q 242 618 233 595 q 269 659 252 642 q 309 686 286 676 q 357 696 332 696 q 401 688 381 696 q 438 665 422 680 q 470 729 452 699 q 514 783 488 760 q 577 820 541 806 q 667 834 614 834 q 777 811 730 834 q 855 751 824 789 q 901 665 886 713 q 916 564 916 616 q 916 555 916 559 q 916 547 916 551 q 978 522 949 539 q 1028 478 1007 504 q 1062 420 1050 452 q 1074 351 1074 387 q 1058 274 1074 311 q 1016 211 1042 238 q 953 168 989 184 q 876 153 917 153 l 265 153 q 189 168 224 153 q 126 211 153 184 q 83 274 99 238 q 68 351 68 311 z "},"":{"ha":1158,"x_min":-1,"x_max":1171,"o":"m -1 168 l -1 545 l 150 545 l 150 321 l 1019 321 l 1019 545 l 1171 545 l 1171 321 l 1171 168 l -1 168 z "},"":{"ha":1158,"x_min":203,"x_max":973,"o":"m 216 -24 q 204 17 205 -6 q 211 64 202 39 q 239 115 219 89 q 293 165 259 140 q 350 198 322 186 q 401 218 377 210 q 445 232 425 227 q 480 246 465 238 q 502 266 494 254 q 510 299 510 278 l 510 946 q 515 952 510 949 q 527 957 520 955 q 539 959 533 959 q 549 957 546 960 q 551 955 550 956 q 553 954 552 955 q 554 951 553 952 q 565 937 558 945 q 578 922 570 930 q 595 905 586 914 q 620 895 602 900 q 662 883 637 890 q 713 865 686 876 q 767 836 741 854 q 815 792 793 819 q 850 729 837 766 q 873 647 863 692 q 893 555 884 602 q 910 464 902 509 q 928 381 919 419 q 948 317 937 344 q 973 279 959 290 q 973 270 987 269 q 928 284 959 272 q 855 320 897 297 q 771 375 813 342 q 692 448 728 407 q 635 537 655 488 q 608 619 616 582 q 597 688 600 656 q 594 748 594 720 q 593 801 595 776 q 587 849 592 825 q 566 896 581 872 q 556 912 559 907 q 551 921 552 918 l 551 201 q 550 166 551 190 q 542 113 550 143 q 514 51 534 83 q 456 -12 494 18 q 372 -58 412 -45 q 300 -68 332 -70 q 246 -53 269 -66 q 216 -24 224 -41 m 600 878 q 600 874 597 878 q 620 845 606 866 q 652 800 634 825 q 681 752 667 781 q 709 692 695 724 q 737 626 724 660 q 762 559 750 591 q 799 484 776 522 q 844 414 823 446 q 898 343 870 377 q 901 341 899 342 q 903 341 903 340 q 877 377 893 353 q 836 441 860 401 q 801 510 818 471 q 770 585 784 549 q 738 668 751 635 q 712 726 724 701 q 687 769 700 750 q 656 811 674 789 q 635 837 645 825 q 618 858 625 848 q 602 878 609 869 q 600 878 600 878 z "},"":{"ha":1156,"x_min":68,"x_max":1095,"o":"m 68 446 q 86 583 68 517 q 138 705 104 648 q 218 809 172 762 q 322 889 265 856 q 445 941 379 923 q 581 960 510 960 q 718 941 652 960 q 841 889 784 923 q 945 809 898 856 q 1025 705 991 762 q 1077 583 1059 648 q 1095 446 1095 517 q 1077 309 1095 375 q 1025 186 1059 243 q 945 83 991 130 q 841 2 898 36 q 718 -50 784 -31 q 581 -68 652 -68 q 445 -50 511 -68 q 322 2 379 -31 q 218 83 265 36 q 138 186 172 130 q 86 309 104 243 q 68 446 68 375 m 231 446 q 258 310 231 374 q 333 198 286 245 q 445 122 381 150 q 581 95 509 95 q 718 122 654 95 q 830 198 782 150 q 905 310 878 245 q 932 446 932 374 q 905 583 932 519 q 830 694 878 646 q 718 769 782 742 q 581 797 654 797 q 445 769 509 797 q 333 694 381 742 q 258 583 286 646 q 231 446 231 519 z "},"":{"ha":1156,"x_min":70,"x_max":1093,"o":"m 103 387 q 70 511 75 446 q 76 640 64 576 q 159 815 95 742 q 323 928 223 889 q 440 962 378 950 q 566 974 502 973 q 693 964 629 975 q 814 931 756 954 q 924 875 873 909 q 1014 795 975 841 q 1065 713 1045 758 q 1092 621 1084 669 q 1092 526 1099 574 q 1065 435 1086 478 q 987 327 1036 374 q 877 253 938 280 q 747 220 816 226 q 611 235 679 214 q 612 152 616 195 q 590 70 607 109 q 544 2 574 32 q 471 -43 515 -28 q 385 -53 429 -58 q 300 -31 341 -48 q 272 0 279 -21 q 265 46 265 21 q 268 98 265 72 q 269 142 271 124 q 295 133 282 140 q 321 120 308 126 q 348 113 334 115 q 376 117 362 111 q 396 137 389 122 q 406 169 403 151 q 410 203 409 186 q 411 231 411 220 q 411 380 414 306 q 408 530 408 455 l 408 670 q 409 679 408 676 q 411 684 409 682 q 415 685 412 685 q 425 687 418 686 q 488 692 456 692 q 551 689 520 692 q 569 687 561 688 q 587 686 578 687 q 596 685 593 685 q 600 683 599 684 q 601 679 601 682 q 601 669 601 675 l 601 402 q 604 389 601 394 q 612 382 607 385 q 625 379 618 380 q 640 376 632 378 q 659 372 650 373 q 678 369 669 370 q 746 372 713 366 q 802 389 775 377 q 850 420 828 401 q 883 461 870 439 q 902 509 896 484 q 906 560 907 534 q 898 611 905 586 q 861 684 886 652 q 803 741 836 717 q 729 781 769 765 q 646 805 689 798 q 561 811 604 812 q 478 801 517 810 q 397 769 436 791 q 328 719 359 748 q 278 655 298 690 q 252 582 258 620 q 258 505 247 544 q 301 429 269 465 q 245 377 272 404 q 185 332 219 351 q 151 316 168 322 q 133 338 142 326 q 117 361 124 349 q 103 387 109 374 z "},"":{"ha":1156,"x_min":203,"x_max":1002,"o":"m 203 -18 q 288 -11 256 -18 q 335 17 319 -4 q 357 78 352 38 q 362 182 362 117 l 362 739 q 357 844 362 805 q 335 904 352 883 q 288 931 319 925 q 203 938 256 938 l 203 974 l 644 974 q 907 892 813 974 q 1002 684 1002 810 q 907 477 1002 559 q 644 397 812 397 l 495 397 l 495 182 q 500 78 495 117 q 522 17 505 38 q 570 -11 538 -4 q 654 -18 602 -18 l 654 -54 l 203 -54 l 203 -18 m 495 458 l 642 458 q 733 475 694 458 q 800 522 773 492 q 840 593 827 552 q 854 684 854 635 q 840 775 854 734 q 800 847 827 817 q 733 894 773 877 q 642 911 694 911 l 495 911 l 495 458 z "},"":{"ha":1156,"x_min":68,"x_max":1081,"o":"m 68 197 l 68 746 q 81 779 68 765 q 114 792 95 792 q 127 824 114 811 q 160 838 140 838 l 252 838 q 284 824 271 838 q 298 792 298 811 l 396 792 q 481 826 436 814 q 574 838 526 838 q 668 826 623 838 q 752 792 713 814 l 1035 792 q 1067 779 1054 792 q 1081 746 1081 765 l 1081 197 q 1067 165 1081 178 q 1035 151 1054 151 l 752 151 q 668 118 713 130 q 574 106 623 106 q 481 118 526 106 q 396 151 436 130 l 114 151 q 81 165 95 151 q 68 197 68 178 m 114 197 l 331 197 q 240 319 273 248 q 206 471 206 389 q 240 625 206 554 q 331 746 273 695 l 114 746 l 114 197 m 252 471 q 263 387 252 427 q 295 311 275 347 q 345 247 316 276 q 409 197 374 218 q 446 178 427 186 q 486 164 465 170 q 488 163 487 163 q 490 163 489 163 q 507 159 498 161 q 524 156 515 157 q 529 155 527 155 q 534 155 531 155 q 554 152 544 153 q 574 151 564 151 q 595 152 585 151 q 615 155 605 153 q 625 156 618 155 q 642 159 633 157 q 659 163 650 161 q 661 163 660 163 q 663 164 662 163 q 703 178 684 170 q 740 197 722 186 q 804 247 775 218 q 853 311 833 276 q 885 387 874 347 q 897 471 897 427 q 885 556 897 515 q 853 632 874 597 q 804 696 833 667 q 740 746 775 725 q 703 765 722 757 q 663 779 684 773 q 661 780 662 780 q 659 781 660 780 q 642 784 650 783 q 625 787 633 786 q 615 789 618 789 q 595 791 605 790 q 574 792 585 792 q 554 791 564 792 q 534 789 544 790 q 529 788 531 789 q 524 787 527 788 q 507 784 515 786 q 490 781 498 783 q 488 780 489 780 q 486 779 487 780 q 446 765 465 773 q 409 746 427 757 q 345 696 374 725 q 295 632 316 667 q 263 556 275 597 q 252 471 252 515 m 574 685 l 574 723 q 673 703 627 723 q 753 649 719 684 q 807 569 787 615 q 827 471 827 524 l 789 471 q 772 554 789 515 q 726 622 755 593 q 657 668 696 651 q 574 685 618 685 m 818 197 l 1035 197 l 1035 746 l 818 746 q 909 625 876 695 q 943 471 943 554 q 909 319 943 389 q 818 197 876 248 z "},"":{"ha":1156,"x_min":0,"x_max":1154,"o":"m 0 168 l 0 622 q 56 629 24 627 q 130 632 87 632 q 211 623 177 632 q 267 594 245 613 q 301 551 288 577 q 313 492 313 525 q 273 389 313 427 q 210 351 248 363 q 126 338 172 338 q 104 339 115 338 q 84 342 94 340 l 84 168 l 0 168 m 84 408 q 103 405 93 406 q 126 404 113 404 q 201 426 174 404 q 229 489 229 448 q 203 547 229 528 q 134 567 178 567 q 104 566 116 567 q 84 563 92 564 l 84 408 m 307 615 q 313 645 307 631 q 330 669 319 659 q 354 685 340 679 q 384 691 368 691 q 413 685 399 691 q 437 669 427 679 q 454 645 448 659 q 460 615 460 631 q 454 586 460 600 q 437 562 448 572 q 413 546 427 551 q 384 540 399 540 q 354 546 368 540 q 330 562 340 551 q 313 586 319 572 q 307 615 307 600 m 322 615 q 340 572 322 590 q 384 555 358 555 q 427 572 410 555 q 445 615 445 590 q 427 658 445 641 q 384 675 410 675 q 340 658 358 675 q 322 615 322 641 m 341 168 l 341 500 l 426 500 l 426 168 l 341 168 m 351 588 q 353 596 350 593 q 361 601 357 600 q 368 600 366 601 l 368 646 l 412 652 l 412 653 l 412 595 l 412 595 q 409 586 412 590 q 401 582 406 583 q 392 584 395 581 q 389 592 389 587 q 391 601 388 597 q 399 605 394 604 q 405 604 403 605 l 405 635 l 374 630 l 374 591 q 372 582 375 585 q 363 577 369 578 q 355 579 358 576 q 351 588 351 583 m 481 500 l 555 500 l 559 451 l 561 451 q 576 471 567 460 q 600 489 586 481 q 631 503 614 498 q 669 509 648 509 q 712 501 691 509 q 751 477 734 494 q 778 432 768 460 q 789 366 789 405 l 789 168 l 704 168 l 704 355 q 689 416 704 392 q 640 439 674 439 q 597 425 614 439 q 572 391 580 410 q 570 378 570 385 q 569 364 569 371 l 569 168 l 484 168 l 484 401 q 483 454 484 430 q 481 500 482 479 m 824 332 q 837 406 824 374 q 870 461 849 439 q 919 496 891 484 q 977 509 946 509 q 1039 493 1016 509 q 1074 456 1063 477 l 1076 456 l 1080 500 l 1154 500 q 1152 461 1152 484 q 1151 405 1151 439 l 1151 216 q 1139 126 1151 163 q 1101 65 1127 89 q 1040 33 1075 41 q 970 24 1006 24 q 906 31 938 24 q 853 51 875 38 l 871 115 q 913 97 888 105 q 970 90 939 90 q 1008 95 991 90 q 1039 113 1026 100 q 1059 144 1052 125 q 1067 190 1067 163 l 1067 218 l 1065 218 q 1026 183 1050 197 q 967 170 1002 170 q 909 182 935 170 q 864 216 883 194 q 834 267 845 237 q 824 332 824 297 m 910 335 q 916 295 910 313 q 931 262 921 276 q 957 241 942 249 q 993 233 972 233 q 1036 247 1017 233 q 1062 283 1055 260 q 1065 298 1064 290 q 1065 313 1065 306 l 1065 367 q 1063 390 1065 380 q 1038 428 1055 413 q 994 444 1021 444 q 933 415 957 444 q 910 335 910 386 z "},"":{"ha":1156,"x_min":68,"x_max":1109,"o":"m 68 637 l 397 974 l 397 846 l 710 557 l 906 605 l 703 389 l 1109 -68 l 648 341 l 452 140 l 483 317 l 216 646 l 68 637 z "},"":{"ha":1156,"x_min":0,"x_max":0,"o":""},"":{"ha":1156,"x_min":67,"x_max":1051,"o":"m 67 245 q 81 276 67 260 q 118 307 95 292 q 174 336 142 322 q 244 363 207 351 q 324 385 282 375 q 408 403 366 395 l 408 316 l 227 268 q 217 248 220 257 q 219 234 215 241 q 238 228 222 228 q 305 230 274 227 q 359 238 336 233 q 410 250 387 243 l 410 175 q 374 163 395 168 q 327 155 355 159 q 260 153 299 152 q 186 159 222 153 q 125 176 151 165 q 83 204 98 187 q 67 245 67 221 m 448 137 l 448 838 q 616 793 539 821 q 682 767 649 782 q 742 734 714 753 q 790 694 769 716 q 819 647 810 672 q 832 584 829 613 q 831 529 835 554 q 820 484 827 504 q 803 451 812 465 q 784 429 793 437 q 769 421 775 422 q 726 423 743 418 q 696 436 708 429 q 675 456 684 444 l 675 676 l 600 707 l 597 73 l 448 137 m 637 87 q 820 150 736 120 q 891 176 855 163 q 957 202 926 189 q 1010 226 987 215 q 1042 245 1032 237 q 1051 272 1055 256 q 1030 304 1046 288 q 989 336 1015 321 q 936 363 964 352 q 879 378 908 374 q 827 378 850 383 q 766 371 798 376 q 705 357 739 366 q 637 334 671 349 q 637 321 637 333 q 637 296 637 310 l 637 260 l 866 313 l 946 278 l 637 170 l 637 87 z "},"":{"ha":1156,"x_min":68,"x_max":1109,"o":"m 68 237 q 93 355 68 300 q 160 452 117 411 q 259 517 202 493 q 381 541 316 541 l 381 237 l 694 237 q 670 118 694 174 q 603 21 645 62 q 503 -44 560 -20 q 381 -68 446 -68 q 259 -44 316 -68 q 160 21 202 -20 q 93 118 117 62 q 68 237 68 174 m 493 374 l 493 690 q 522 801 496 749 q 589 891 547 852 q 685 952 630 930 q 801 974 739 974 q 921 950 865 974 q 1019 886 977 926 q 1085 790 1061 845 q 1109 674 1109 736 q 1098 594 1109 633 q 1067 523 1087 556 q 1019 462 1047 490 q 957 415 991 435 q 883 385 922 396 q 801 374 844 374 l 493 374 m 753 525 q 767 493 753 506 q 800 479 781 479 q 833 493 820 479 q 846 525 846 506 q 833 557 846 544 q 800 570 820 570 q 767 557 781 570 q 753 525 753 544 m 753 821 l 766 642 q 776 618 766 628 q 800 609 786 609 q 824 618 814 609 q 833 642 833 628 l 846 821 l 846 827 q 833 859 846 846 q 800 872 820 872 q 767 859 781 872 q 753 827 753 846 l 753 821 z "},"":{"ha":1156,"x_min":203,"x_max":909,"o":"m 203 347 q 225 405 203 381 q 281 433 248 429 q 316 429 300 435 q 350 416 332 423 q 353 381 351 403 q 359 334 355 359 q 368 284 363 309 q 380 241 373 260 q 345 249 363 245 q 308 256 326 252 q 270 264 288 260 q 238 278 251 268 q 214 306 224 288 q 203 347 203 323 m 366 485 q 366 572 364 530 q 377 658 368 615 q 426 794 393 734 q 510 899 460 855 q 567 938 536 920 q 641 959 599 956 q 714 952 681 962 q 772 924 747 942 q 818 882 798 905 q 852 834 838 858 q 901 711 884 781 q 909 558 917 641 q 889 456 903 505 q 852 365 875 407 q 798 289 829 323 q 730 233 767 256 q 676 207 705 217 q 610 199 646 197 q 583 278 592 245 q 570 330 574 311 q 567 368 566 353 q 610 363 588 363 q 653 374 633 363 q 695 410 680 387 q 723 462 711 433 q 743 521 734 488 q 754 589 751 553 q 754 660 757 624 q 740 728 751 696 q 729 754 736 741 q 714 780 723 768 q 692 800 705 791 q 663 808 679 808 q 642 804 652 808 q 623 794 632 800 q 607 781 614 788 q 595 768 600 774 q 546 661 560 723 q 532 521 532 598 q 533 483 532 502 q 535 446 534 465 q 542 390 538 417 q 552 336 547 362 q 577 233 564 275 q 604 165 591 191 q 632 117 618 135 q 636 109 634 113 q 641 100 638 104 q 651 83 646 92 q 663 65 656 73 q 673 52 668 58 q 681 40 677 46 q 687 27 684 34 q 689 9 689 20 q 679 -31 689 -14 q 651 -57 668 -47 q 612 -68 633 -67 q 570 -57 591 -68 q 547 -38 559 -52 q 524 -11 535 -24 q 465 72 491 27 q 420 167 439 117 q 389 276 401 219 q 370 396 377 332 q 367 439 367 418 q 366 485 366 461 z "},"":{"ha":1156,"x_min":136,"x_max":1038,"o":"m 136 -68 l 136 974 l 774 974 l 1038 974 l 1038 220 l 400 220 l 400 -68 l 136 -68 m 400 482 l 774 482 l 774 711 l 400 711 l 400 482 z "},"":{"ha":2313,"x_min":0,"x_max":0,"o":""},"":{"ha":2313,"x_min":0,"x_max":0,"o":""},"":{"ha":1158,"x_min":0,"x_max":0,"o":""},"":{"ha":1158,"x_min":0,"x_max":0,"o":""},"":{"ha":488,"x_min":0,"x_max":0,"o":""},"":{"ha":977,"x_min":0,"x_max":0,"o":""},"":{"ha":488,"x_min":0,"x_max":0,"o":""},"":{"ha":977,"x_min":0,"x_max":0,"o":""},"":{"ha":326,"x_min":0,"x_max":0,"o":""},"":{"ha":244,"x_min":0,"x_max":0,"o":""},"":{"ha":163,"x_min":0,"x_max":0,"o":""},"":{"ha":163,"x_min":0,"x_max":0,"o":""},"":{"ha":122,"x_min":0,"x_max":0,"o":""},"":{"ha":195,"x_min":0,"x_max":0,"o":""},"":{"ha":54,"x_min":0,"x_max":0,"o":""},"":{"ha":1158,"x_min":136,"x_max":1044,"o":"m 136 174 l 136 623 q 141 651 136 638 q 156 674 146 665 q 179 689 166 684 q 207 695 192 695 l 972 695 q 1023 674 1002 695 q 1044 623 1044 654 l 1044 174 q 1038 146 1044 159 q 1023 124 1032 134 q 1000 109 1013 114 q 972 103 987 103 l 339 103 q 313 56 332 73 q 274 31 294 39 q 224 19 251 22 q 241 70 239 47 q 241 103 243 94 l 207 103 q 179 109 192 103 q 156 124 166 114 q 141 146 146 134 q 136 174 136 159 m 252 316 q 262 292 252 302 q 286 282 272 282 q 310 292 300 282 q 320 316 320 302 q 310 340 320 330 q 286 350 300 350 q 262 340 272 350 q 252 316 252 330 m 526 212 q 557 170 535 186 q 608 153 579 153 q 641 160 625 153 q 668 178 656 167 q 686 206 680 190 q 693 239 693 222 l 693 246 l 526 212 m 863 316 q 872 292 863 302 q 897 282 882 282 q 920 292 910 282 q 930 316 930 302 q 920 340 930 330 q 897 350 910 350 q 872 340 882 350 q 863 316 863 330 z "},"":{"ha":1158,"x_min":136,"x_max":1044,"o":"m 136 174 l 136 623 q 141 651 136 638 q 156 674 146 665 q 179 689 166 684 q 207 695 192 695 l 972 695 q 1023 674 1002 695 q 1044 623 1044 654 l 1044 174 q 1038 146 1044 159 q 1023 124 1032 134 q 1000 109 1013 114 q 972 103 987 103 l 339 103 q 313 56 332 73 q 274 31 294 39 q 224 19 251 22 q 241 70 239 47 q 241 103 243 94 l 207 103 q 179 109 192 103 q 156 124 166 114 q 141 146 146 134 q 136 174 136 159 m 252 316 q 262 292 252 302 q 286 282 272 282 q 310 292 300 282 q 320 316 320 302 q 310 340 320 330 q 286 350 300 350 q 262 340 272 350 q 252 316 252 330 m 526 212 q 557 170 535 186 q 608 153 579 153 q 641 160 625 153 q 668 178 656 167 q 686 206 680 190 q 693 239 693 222 l 693 246 l 526 212 m 863 316 q 872 292 863 302 q 897 282 882 282 q 920 292 910 282 q 930 316 930 302 q 920 340 930 330 q 897 350 910 350 q 872 340 882 350 q 863 316 863 330 z "},"":{"ha":1158,"x_min":136,"x_max":1044,"o":"m 136 174 l 136 623 q 141 651 136 638 q 156 674 146 665 q 179 689 166 684 q 207 695 192 695 l 972 695 q 1023 674 1002 695 q 1044 623 1044 654 l 1044 174 q 1038 146 1044 159 q 1023 124 1032 134 q 1000 109 1013 114 q 972 103 987 103 l 339 103 q 313 56 332 73 q 274 31 294 39 q 224 19 251 22 q 241 70 239 47 q 241 103 243 94 l 207 103 q 179 109 192 103 q 156 124 166 114 q 141 146 146 134 q 136 174 136 159 m 252 316 q 262 292 252 302 q 286 282 272 282 q 310 292 300 282 q 320 316 320 302 q 310 340 320 330 q 286 350 300 350 q 262 340 272 350 q 252 316 252 330 m 526 212 q 557 170 535 186 q 608 153 579 153 q 641 160 625 153 q 668 178 656 167 q 686 206 680 190 q 693 239 693 222 l 693 246 l 526 212 m 863 316 q 872 292 863 302 q 897 282 882 282 q 920 292 910 282 q 930 316 930 302 q 920 340 930 330 q 897 350 910 350 q 872 340 882 350 q 863 316 863 330 z "},"":{"ha":694,"x_min":0,"x_max":0,"o":""},"":{"ha":1389,"x_min":0,"x_max":0,"o":""},"":{"ha":1158,"x_min":0,"x_max":1164,"o":"m 0 469 l 259 753 l 519 469 l 328 469 l 328 208 l 532 208 l 667 71 l 234 71 q 204 83 216 71 q 191 114 191 96 l 191 469 l 0 469 m 498 756 l 930 756 q 961 743 948 756 q 974 713 974 730 l 974 357 l 1164 357 l 905 73 l 646 357 l 838 357 l 838 619 l 632 619 l 498 756 z "},"":{"ha":195,"x_min":0,"x_max":0,"o":""},"":{"ha":244,"x_min":0,"x_max":0,"o":""}}}
